G04 #@! TF.GenerationSoftware,KiCad,Pcbnew,5.1.6*
G04 #@! TF.CreationDate,2020-06-26T20:36:41-07:00*
G04 #@! TF.ProjectId,MegaBote,4d656761-426f-4746-952e-6b696361645f,rev?*
G04 #@! TF.SameCoordinates,Original*
G04 #@! TF.FileFunction,Soldermask,Bot*
G04 #@! TF.FilePolarity,Negative*
%FSLAX46Y46*%
G04 Gerber Fmt 4.6, Leading zero omitted, Abs format (unit mm)*
G04 Created by KiCad (PCBNEW 5.1.6) date 2020-06-26 20:36:41*
%MOMM*%
%LPD*%
G01*
G04 APERTURE LIST*
%ADD10C,1.624000*%
%ADD11C,0.800000*%
%ADD12C,4.500000*%
%ADD13C,1.000000*%
G04 APERTURE END LIST*
D10*
X179000000Y-92000000D03*
X183000000Y-92000000D03*
X187000000Y-92000000D03*
X191000000Y-92000000D03*
X195000000Y-92000000D03*
X199000000Y-92000000D03*
X203000000Y-92000000D03*
X207000000Y-92000000D03*
X179000000Y-95000000D03*
X183000000Y-95000000D03*
X187000000Y-95000000D03*
X191000000Y-95000000D03*
X195000000Y-95000000D03*
X199000000Y-95000000D03*
X203000000Y-95000000D03*
X207000000Y-95000000D03*
D11*
X174166726Y-91833274D03*
X173000000Y-91350000D03*
X171833274Y-91833274D03*
X171350000Y-93000000D03*
X171833274Y-94166726D03*
X173000000Y-94650000D03*
X174166726Y-94166726D03*
X174650000Y-93000000D03*
D12*
X173000000Y-93000000D03*
X173000000Y-132000000D03*
D11*
X174650000Y-132000000D03*
X174166726Y-133166726D03*
X173000000Y-133650000D03*
X171833274Y-133166726D03*
X171350000Y-132000000D03*
X171833274Y-130833274D03*
X173000000Y-130350000D03*
X174166726Y-130833274D03*
D12*
X212000000Y-93000000D03*
D11*
X213650000Y-93000000D03*
X213166726Y-94166726D03*
X212000000Y-94650000D03*
X210833274Y-94166726D03*
X210350000Y-93000000D03*
X210833274Y-91833274D03*
X212000000Y-91350000D03*
X213166726Y-91833274D03*
X213166726Y-130833274D03*
X212000000Y-130350000D03*
X210833274Y-130833274D03*
X210350000Y-132000000D03*
X210833274Y-133166726D03*
X212000000Y-133650000D03*
X213166726Y-133166726D03*
X213650000Y-132000000D03*
D12*
X212000000Y-132000000D03*
D13*
X199800000Y-130000000D03*
X204200000Y-130000000D03*
M02*
