M48
; DRILL file {KiCad 5.1.6} date Fri Jun 26 20:36:34 2020
; FORMAT={3:3/ absolute / metric / suppress leading zeros}
; #@! TF.CreationDate,2020-06-26T20:36:34-07:00
; #@! TF.GenerationSoftware,Kicad,Pcbnew,5.1.6
FMAT,2
METRIC,TZ
T1C0.400
T2C0.800
T3C1.500
T4C2.200
T5C0.900
%
G90
G05
T1
X171069Y-114656
X177272Y-123271
X181924Y-123150
X183055Y-123119
X184134Y-120542
X184841Y-121249
X187935Y-121056
X197206Y-96342
X198238Y-117815
X198945Y-118522
X206299Y-110414
X212700Y-124202
X210350Y-132000
X210833Y-130833
X210833Y-133167
X212000Y-130350
X212000Y-133650
X213167Y-130833
X213167Y-133167
X213650Y-132000
X210350Y-93000
X210833Y-91833
X210833Y-94167
X212000Y-91350
X212000Y-94650
X213167Y-91833
X213167Y-94167
X213650Y-93000
X171350Y-93000
X171833Y-91833
X171833Y-94167
X173000Y-91350
X173000Y-94650
X174167Y-91833
X174167Y-94167
X174650Y-93000
X171350Y-132000
X171833Y-130833
X171833Y-133167
X173000Y-130350
X173000Y-133650
X174167Y-130833
X174167Y-133167
X174650Y-132000
T2
X172000Y-98000
X172000Y-102000
X172000Y-106000
X172000Y-126000
X172187Y-122022
X172253Y-118278
X173863Y-109550
X174424Y-118328
X175000Y-98000
X175000Y-102000
X175000Y-122000
X175000Y-126000
X176000Y-108000
X178000Y-98000
X178000Y-102000
X180493Y-109602
X181000Y-98000
X181000Y-102000
X183135Y-104702
X183398Y-109602
X185000Y-113000
X185233Y-124259
X185398Y-109602
X187325Y-108027
X188610Y-123347
X191000Y-98000
X191000Y-100000
X191000Y-125000
X191000Y-129000
X191000Y-133000
X192646Y-106170
X194000Y-98000
X194000Y-100000
X195000Y-125000
X195000Y-129000
X195000Y-133000
X199000Y-110000
X201000Y-108000
X202000Y-112000
X203000Y-106000
X204000Y-110000
X206040Y-115687
X206098Y-117782
X206299Y-108839
X207000Y-123000
X210000Y-123000
X210609Y-104686
X210947Y-111735
T3
X179000Y-92000
X179000Y-95000
X183000Y-92000
X183000Y-95000
X187000Y-92000
X187000Y-95000
X191000Y-92000
X191000Y-95000
X195000Y-92000
X195000Y-95000
X199000Y-92000
X199000Y-95000
X203000Y-92000
X203000Y-95000
X207000Y-92000
X207000Y-95000
T4
X212000Y-132000
X212000Y-93000
X173000Y-93000
X173000Y-132000
T5
X199800Y-130000
X204200Y-130000
T0
M30
