G04 #@! TF.GenerationSoftware,KiCad,Pcbnew,5.1.6*
G04 #@! TF.CreationDate,2020-06-26T20:36:41-07:00*
G04 #@! TF.ProjectId,MegaBote,4d656761-426f-4746-952e-6b696361645f,rev?*
G04 #@! TF.SameCoordinates,Original*
G04 #@! TF.FileFunction,Copper,L3,Inr*
G04 #@! TF.FilePolarity,Positive*
%FSLAX46Y46*%
G04 Gerber Fmt 4.6, Leading zero omitted, Abs format (unit mm)*
G04 Created by KiCad (PCBNEW 5.1.6) date 2020-06-26 20:36:41*
%MOMM*%
%LPD*%
G01*
G04 APERTURE LIST*
G04 #@! TA.AperFunction,ViaPad*
%ADD10C,1.524000*%
G04 #@! TD*
G04 #@! TA.AperFunction,ViaPad*
%ADD11C,0.700000*%
G04 #@! TD*
G04 #@! TA.AperFunction,ViaPad*
%ADD12C,4.400000*%
G04 #@! TD*
G04 #@! TA.AperFunction,ViaPad*
%ADD13C,1.000000*%
G04 #@! TD*
G04 #@! TA.AperFunction,ViaPad*
%ADD14C,0.800000*%
G04 #@! TD*
G04 #@! TA.AperFunction,Conductor*
%ADD15C,0.254000*%
G04 #@! TD*
G04 APERTURE END LIST*
D10*
X179000000Y-92000000D03*
X183000000Y-92000000D03*
X187000000Y-92000000D03*
X191000000Y-92000000D03*
X195000000Y-92000000D03*
X199000000Y-92000000D03*
X203000000Y-92000000D03*
X207000000Y-92000000D03*
X179000000Y-95000000D03*
X183000000Y-95000000D03*
X187000000Y-95000000D03*
X191000000Y-95000000D03*
X195000000Y-95000000D03*
X199000000Y-95000000D03*
X203000000Y-95000000D03*
X207000000Y-95000000D03*
D11*
X174166726Y-91833274D03*
X173000000Y-91350000D03*
X171833274Y-91833274D03*
X171350000Y-93000000D03*
X171833274Y-94166726D03*
X173000000Y-94650000D03*
X174166726Y-94166726D03*
X174650000Y-93000000D03*
D12*
X173000000Y-93000000D03*
X173000000Y-132000000D03*
D11*
X174650000Y-132000000D03*
X174166726Y-133166726D03*
X173000000Y-133650000D03*
X171833274Y-133166726D03*
X171350000Y-132000000D03*
X171833274Y-130833274D03*
X173000000Y-130350000D03*
X174166726Y-130833274D03*
D12*
X212000000Y-93000000D03*
D11*
X213650000Y-93000000D03*
X213166726Y-94166726D03*
X212000000Y-94650000D03*
X210833274Y-94166726D03*
X210350000Y-93000000D03*
X210833274Y-91833274D03*
X212000000Y-91350000D03*
X213166726Y-91833274D03*
X213166726Y-130833274D03*
X212000000Y-130350000D03*
X210833274Y-130833274D03*
X210350000Y-132000000D03*
X210833274Y-133166726D03*
X212000000Y-133650000D03*
X213166726Y-133166726D03*
X213650000Y-132000000D03*
D12*
X212000000Y-132000000D03*
D13*
X188610240Y-123347480D03*
D14*
X177271680Y-123271280D03*
X183055260Y-123118880D03*
D13*
X173863000Y-109550200D03*
D14*
X171069000Y-114655600D03*
D13*
X206098140Y-117782340D03*
X210947000Y-111734600D03*
X172252640Y-118277640D03*
X183134718Y-104702180D03*
X180493142Y-109602200D03*
X172000000Y-98000000D03*
X175000000Y-98000000D03*
X178000000Y-98000000D03*
X181000000Y-98000000D03*
X181000000Y-102000000D03*
X178000000Y-102000000D03*
X175000000Y-102000000D03*
X172000000Y-102000000D03*
X172000000Y-106000000D03*
X191000000Y-98000000D03*
X194000000Y-98000000D03*
X191000000Y-100000000D03*
X194000000Y-100000000D03*
X199000000Y-110000000D03*
X201000000Y-108000000D03*
X203000000Y-106000000D03*
X202000000Y-112000000D03*
X204000000Y-110000000D03*
X185397800Y-109602200D03*
X183397800Y-109602200D03*
X185000000Y-113000000D03*
X172186600Y-122021600D03*
X175000000Y-122000000D03*
X172000000Y-126000000D03*
X175000000Y-126000000D03*
X191000000Y-125000000D03*
X195000000Y-125000000D03*
X195000000Y-129000000D03*
X191000000Y-129000000D03*
X191000000Y-133000000D03*
X195000000Y-133000000D03*
X207000000Y-123000000D03*
X210000000Y-123000000D03*
D14*
X184840769Y-121248987D03*
D13*
X185233459Y-124258914D03*
X210609180Y-104686100D03*
X206298700Y-108839000D03*
X206039720Y-115686840D03*
X174424340Y-118328440D03*
X187325000Y-108027200D03*
X176000000Y-108000000D03*
D14*
X187934600Y-121056400D03*
X198945315Y-118521663D03*
X206298700Y-110413800D03*
X184133661Y-120541879D03*
X181924200Y-123150200D03*
X198238208Y-117814555D03*
X212699600Y-124202000D03*
D13*
X192645774Y-106169986D03*
D14*
X197205600Y-96342200D03*
D15*
G36*
X178338273Y-90761995D02*
G01*
X178109465Y-90914880D01*
X177914880Y-91109465D01*
X177761995Y-91338273D01*
X177656686Y-91592510D01*
X177603000Y-91862408D01*
X177603000Y-92137592D01*
X177656686Y-92407490D01*
X177761995Y-92661727D01*
X177914880Y-92890535D01*
X178109465Y-93085120D01*
X178338273Y-93238005D01*
X178592510Y-93343314D01*
X178862408Y-93397000D01*
X179137592Y-93397000D01*
X179407490Y-93343314D01*
X179661727Y-93238005D01*
X179890535Y-93085120D01*
X180085120Y-92890535D01*
X180238005Y-92661727D01*
X180343314Y-92407490D01*
X180397000Y-92137592D01*
X180397000Y-91862408D01*
X180343314Y-91592510D01*
X180238005Y-91338273D01*
X180085120Y-91109465D01*
X179890535Y-90914880D01*
X179661727Y-90761995D01*
X179415491Y-90660000D01*
X182584509Y-90660000D01*
X182338273Y-90761995D01*
X182109465Y-90914880D01*
X181914880Y-91109465D01*
X181761995Y-91338273D01*
X181656686Y-91592510D01*
X181603000Y-91862408D01*
X181603000Y-92137592D01*
X181656686Y-92407490D01*
X181761995Y-92661727D01*
X181914880Y-92890535D01*
X182109465Y-93085120D01*
X182338273Y-93238005D01*
X182592510Y-93343314D01*
X182862408Y-93397000D01*
X183137592Y-93397000D01*
X183407490Y-93343314D01*
X183661727Y-93238005D01*
X183890535Y-93085120D01*
X184085120Y-92890535D01*
X184238005Y-92661727D01*
X184343314Y-92407490D01*
X184397000Y-92137592D01*
X184397000Y-91862408D01*
X184343314Y-91592510D01*
X184238005Y-91338273D01*
X184085120Y-91109465D01*
X183890535Y-90914880D01*
X183661727Y-90761995D01*
X183415491Y-90660000D01*
X186584509Y-90660000D01*
X186338273Y-90761995D01*
X186109465Y-90914880D01*
X185914880Y-91109465D01*
X185761995Y-91338273D01*
X185656686Y-91592510D01*
X185603000Y-91862408D01*
X185603000Y-92137592D01*
X185656686Y-92407490D01*
X185761995Y-92661727D01*
X185914880Y-92890535D01*
X186109465Y-93085120D01*
X186338273Y-93238005D01*
X186592510Y-93343314D01*
X186862408Y-93397000D01*
X187137592Y-93397000D01*
X187407490Y-93343314D01*
X187661727Y-93238005D01*
X187890535Y-93085120D01*
X188085120Y-92890535D01*
X188238005Y-92661727D01*
X188343314Y-92407490D01*
X188397000Y-92137592D01*
X188397000Y-91862408D01*
X188343314Y-91592510D01*
X188238005Y-91338273D01*
X188085120Y-91109465D01*
X187890535Y-90914880D01*
X187661727Y-90761995D01*
X187415491Y-90660000D01*
X190584509Y-90660000D01*
X190338273Y-90761995D01*
X190109465Y-90914880D01*
X189914880Y-91109465D01*
X189761995Y-91338273D01*
X189656686Y-91592510D01*
X189603000Y-91862408D01*
X189603000Y-92137592D01*
X189656686Y-92407490D01*
X189761995Y-92661727D01*
X189914880Y-92890535D01*
X190109465Y-93085120D01*
X190338273Y-93238005D01*
X190592510Y-93343314D01*
X190862408Y-93397000D01*
X191137592Y-93397000D01*
X191407490Y-93343314D01*
X191661727Y-93238005D01*
X191890535Y-93085120D01*
X192085120Y-92890535D01*
X192238005Y-92661727D01*
X192343314Y-92407490D01*
X192397000Y-92137592D01*
X192397000Y-91862408D01*
X192343314Y-91592510D01*
X192238005Y-91338273D01*
X192085120Y-91109465D01*
X191890535Y-90914880D01*
X191661727Y-90761995D01*
X191415491Y-90660000D01*
X194584509Y-90660000D01*
X194338273Y-90761995D01*
X194109465Y-90914880D01*
X193914880Y-91109465D01*
X193761995Y-91338273D01*
X193656686Y-91592510D01*
X193603000Y-91862408D01*
X193603000Y-92137592D01*
X193656686Y-92407490D01*
X193761995Y-92661727D01*
X193914880Y-92890535D01*
X194109465Y-93085120D01*
X194338273Y-93238005D01*
X194592510Y-93343314D01*
X194862408Y-93397000D01*
X195137592Y-93397000D01*
X195407490Y-93343314D01*
X195661727Y-93238005D01*
X195890535Y-93085120D01*
X196085120Y-92890535D01*
X196238005Y-92661727D01*
X196343314Y-92407490D01*
X196397000Y-92137592D01*
X196397000Y-91862408D01*
X196343314Y-91592510D01*
X196238005Y-91338273D01*
X196085120Y-91109465D01*
X195890535Y-90914880D01*
X195661727Y-90761995D01*
X195415491Y-90660000D01*
X198584509Y-90660000D01*
X198338273Y-90761995D01*
X198109465Y-90914880D01*
X197914880Y-91109465D01*
X197761995Y-91338273D01*
X197656686Y-91592510D01*
X197603000Y-91862408D01*
X197603000Y-92137592D01*
X197656686Y-92407490D01*
X197761995Y-92661727D01*
X197914880Y-92890535D01*
X198109465Y-93085120D01*
X198338273Y-93238005D01*
X198592510Y-93343314D01*
X198862408Y-93397000D01*
X199137592Y-93397000D01*
X199407490Y-93343314D01*
X199661727Y-93238005D01*
X199890535Y-93085120D01*
X200085120Y-92890535D01*
X200238005Y-92661727D01*
X200343314Y-92407490D01*
X200397000Y-92137592D01*
X200397000Y-91862408D01*
X200343314Y-91592510D01*
X200238005Y-91338273D01*
X200085120Y-91109465D01*
X199890535Y-90914880D01*
X199661727Y-90761995D01*
X199415491Y-90660000D01*
X202584509Y-90660000D01*
X202338273Y-90761995D01*
X202109465Y-90914880D01*
X201914880Y-91109465D01*
X201761995Y-91338273D01*
X201656686Y-91592510D01*
X201603000Y-91862408D01*
X201603000Y-92137592D01*
X201656686Y-92407490D01*
X201761995Y-92661727D01*
X201914880Y-92890535D01*
X202109465Y-93085120D01*
X202338273Y-93238005D01*
X202592510Y-93343314D01*
X202862408Y-93397000D01*
X203137592Y-93397000D01*
X203407490Y-93343314D01*
X203661727Y-93238005D01*
X203890535Y-93085120D01*
X204085120Y-92890535D01*
X204238005Y-92661727D01*
X204343314Y-92407490D01*
X204397000Y-92137592D01*
X204397000Y-91862408D01*
X204343314Y-91592510D01*
X204238005Y-91338273D01*
X204085120Y-91109465D01*
X203890535Y-90914880D01*
X203661727Y-90761995D01*
X203415491Y-90660000D01*
X206584509Y-90660000D01*
X206338273Y-90761995D01*
X206109465Y-90914880D01*
X205914880Y-91109465D01*
X205761995Y-91338273D01*
X205656686Y-91592510D01*
X205603000Y-91862408D01*
X205603000Y-92137592D01*
X205656686Y-92407490D01*
X205761995Y-92661727D01*
X205914880Y-92890535D01*
X206109465Y-93085120D01*
X206338273Y-93238005D01*
X206592510Y-93343314D01*
X206862408Y-93397000D01*
X207137592Y-93397000D01*
X207407490Y-93343314D01*
X207661727Y-93238005D01*
X207890535Y-93085120D01*
X208085120Y-92890535D01*
X208238005Y-92661727D01*
X208343314Y-92407490D01*
X208397000Y-92137592D01*
X208397000Y-91862408D01*
X208343314Y-91592510D01*
X208238005Y-91338273D01*
X208085120Y-91109465D01*
X207890535Y-90914880D01*
X207661727Y-90761995D01*
X207415491Y-90660000D01*
X210399193Y-90660000D01*
X210192793Y-90797912D01*
X209797912Y-91192793D01*
X209487656Y-91657124D01*
X209273948Y-92173061D01*
X209165000Y-92720777D01*
X209165000Y-93279223D01*
X209273948Y-93826939D01*
X209487656Y-94342876D01*
X209797912Y-94807207D01*
X210192793Y-95202088D01*
X210657124Y-95512344D01*
X211173061Y-95726052D01*
X211720777Y-95835000D01*
X212279223Y-95835000D01*
X212826939Y-95726052D01*
X213342876Y-95512344D01*
X213807207Y-95202088D01*
X214202088Y-94807207D01*
X214340001Y-94600806D01*
X214340000Y-130399193D01*
X214202088Y-130192793D01*
X213807207Y-129797912D01*
X213342876Y-129487656D01*
X212826939Y-129273948D01*
X212279223Y-129165000D01*
X211720777Y-129165000D01*
X211173061Y-129273948D01*
X210657124Y-129487656D01*
X210192793Y-129797912D01*
X209797912Y-130192793D01*
X209487656Y-130657124D01*
X209273948Y-131173061D01*
X209165000Y-131720777D01*
X209165000Y-132279223D01*
X209273948Y-132826939D01*
X209487656Y-133342876D01*
X209797912Y-133807207D01*
X210192793Y-134202088D01*
X210399193Y-134340000D01*
X174600807Y-134340000D01*
X174807207Y-134202088D01*
X175202088Y-133807207D01*
X175512344Y-133342876D01*
X175700671Y-132888212D01*
X189865000Y-132888212D01*
X189865000Y-133111788D01*
X189908617Y-133331067D01*
X189994176Y-133537624D01*
X190118388Y-133723520D01*
X190276480Y-133881612D01*
X190462376Y-134005824D01*
X190668933Y-134091383D01*
X190888212Y-134135000D01*
X191111788Y-134135000D01*
X191331067Y-134091383D01*
X191537624Y-134005824D01*
X191723520Y-133881612D01*
X191881612Y-133723520D01*
X192005824Y-133537624D01*
X192091383Y-133331067D01*
X192135000Y-133111788D01*
X192135000Y-132888212D01*
X193865000Y-132888212D01*
X193865000Y-133111788D01*
X193908617Y-133331067D01*
X193994176Y-133537624D01*
X194118388Y-133723520D01*
X194276480Y-133881612D01*
X194462376Y-134005824D01*
X194668933Y-134091383D01*
X194888212Y-134135000D01*
X195111788Y-134135000D01*
X195331067Y-134091383D01*
X195537624Y-134005824D01*
X195723520Y-133881612D01*
X195881612Y-133723520D01*
X196005824Y-133537624D01*
X196091383Y-133331067D01*
X196135000Y-133111788D01*
X196135000Y-132888212D01*
X196091383Y-132668933D01*
X196005824Y-132462376D01*
X195881612Y-132276480D01*
X195723520Y-132118388D01*
X195537624Y-131994176D01*
X195331067Y-131908617D01*
X195111788Y-131865000D01*
X194888212Y-131865000D01*
X194668933Y-131908617D01*
X194462376Y-131994176D01*
X194276480Y-132118388D01*
X194118388Y-132276480D01*
X193994176Y-132462376D01*
X193908617Y-132668933D01*
X193865000Y-132888212D01*
X192135000Y-132888212D01*
X192091383Y-132668933D01*
X192005824Y-132462376D01*
X191881612Y-132276480D01*
X191723520Y-132118388D01*
X191537624Y-131994176D01*
X191331067Y-131908617D01*
X191111788Y-131865000D01*
X190888212Y-131865000D01*
X190668933Y-131908617D01*
X190462376Y-131994176D01*
X190276480Y-132118388D01*
X190118388Y-132276480D01*
X189994176Y-132462376D01*
X189908617Y-132668933D01*
X189865000Y-132888212D01*
X175700671Y-132888212D01*
X175726052Y-132826939D01*
X175835000Y-132279223D01*
X175835000Y-131720777D01*
X175726052Y-131173061D01*
X175512344Y-130657124D01*
X175202088Y-130192793D01*
X174807207Y-129797912D01*
X174342876Y-129487656D01*
X173826939Y-129273948D01*
X173279223Y-129165000D01*
X172720777Y-129165000D01*
X172173061Y-129273948D01*
X171657124Y-129487656D01*
X171192793Y-129797912D01*
X170797912Y-130192793D01*
X170660000Y-130399193D01*
X170660000Y-128888212D01*
X189865000Y-128888212D01*
X189865000Y-129111788D01*
X189908617Y-129331067D01*
X189994176Y-129537624D01*
X190118388Y-129723520D01*
X190276480Y-129881612D01*
X190462376Y-130005824D01*
X190668933Y-130091383D01*
X190888212Y-130135000D01*
X191111788Y-130135000D01*
X191331067Y-130091383D01*
X191537624Y-130005824D01*
X191723520Y-129881612D01*
X191881612Y-129723520D01*
X192005824Y-129537624D01*
X192091383Y-129331067D01*
X192135000Y-129111788D01*
X192135000Y-128888212D01*
X193865000Y-128888212D01*
X193865000Y-129111788D01*
X193908617Y-129331067D01*
X193994176Y-129537624D01*
X194118388Y-129723520D01*
X194276480Y-129881612D01*
X194462376Y-130005824D01*
X194668933Y-130091383D01*
X194888212Y-130135000D01*
X195111788Y-130135000D01*
X195331067Y-130091383D01*
X195537624Y-130005824D01*
X195706271Y-129893137D01*
X198715000Y-129893137D01*
X198715000Y-130106863D01*
X198756696Y-130316483D01*
X198838485Y-130513940D01*
X198957225Y-130691647D01*
X199108353Y-130842775D01*
X199286060Y-130961515D01*
X199483517Y-131043304D01*
X199693137Y-131085000D01*
X199906863Y-131085000D01*
X200116483Y-131043304D01*
X200313940Y-130961515D01*
X200491647Y-130842775D01*
X200642775Y-130691647D01*
X200761515Y-130513940D01*
X200843304Y-130316483D01*
X200885000Y-130106863D01*
X200885000Y-129893137D01*
X203115000Y-129893137D01*
X203115000Y-130106863D01*
X203156696Y-130316483D01*
X203238485Y-130513940D01*
X203357225Y-130691647D01*
X203508353Y-130842775D01*
X203686060Y-130961515D01*
X203883517Y-131043304D01*
X204093137Y-131085000D01*
X204306863Y-131085000D01*
X204516483Y-131043304D01*
X204713940Y-130961515D01*
X204891647Y-130842775D01*
X205042775Y-130691647D01*
X205161515Y-130513940D01*
X205243304Y-130316483D01*
X205285000Y-130106863D01*
X205285000Y-129893137D01*
X205243304Y-129683517D01*
X205161515Y-129486060D01*
X205042775Y-129308353D01*
X204891647Y-129157225D01*
X204713940Y-129038485D01*
X204516483Y-128956696D01*
X204306863Y-128915000D01*
X204093137Y-128915000D01*
X203883517Y-128956696D01*
X203686060Y-129038485D01*
X203508353Y-129157225D01*
X203357225Y-129308353D01*
X203238485Y-129486060D01*
X203156696Y-129683517D01*
X203115000Y-129893137D01*
X200885000Y-129893137D01*
X200843304Y-129683517D01*
X200761515Y-129486060D01*
X200642775Y-129308353D01*
X200491647Y-129157225D01*
X200313940Y-129038485D01*
X200116483Y-128956696D01*
X199906863Y-128915000D01*
X199693137Y-128915000D01*
X199483517Y-128956696D01*
X199286060Y-129038485D01*
X199108353Y-129157225D01*
X198957225Y-129308353D01*
X198838485Y-129486060D01*
X198756696Y-129683517D01*
X198715000Y-129893137D01*
X195706271Y-129893137D01*
X195723520Y-129881612D01*
X195881612Y-129723520D01*
X196005824Y-129537624D01*
X196091383Y-129331067D01*
X196135000Y-129111788D01*
X196135000Y-128888212D01*
X196091383Y-128668933D01*
X196005824Y-128462376D01*
X195881612Y-128276480D01*
X195723520Y-128118388D01*
X195537624Y-127994176D01*
X195331067Y-127908617D01*
X195111788Y-127865000D01*
X194888212Y-127865000D01*
X194668933Y-127908617D01*
X194462376Y-127994176D01*
X194276480Y-128118388D01*
X194118388Y-128276480D01*
X193994176Y-128462376D01*
X193908617Y-128668933D01*
X193865000Y-128888212D01*
X192135000Y-128888212D01*
X192091383Y-128668933D01*
X192005824Y-128462376D01*
X191881612Y-128276480D01*
X191723520Y-128118388D01*
X191537624Y-127994176D01*
X191331067Y-127908617D01*
X191111788Y-127865000D01*
X190888212Y-127865000D01*
X190668933Y-127908617D01*
X190462376Y-127994176D01*
X190276480Y-128118388D01*
X190118388Y-128276480D01*
X189994176Y-128462376D01*
X189908617Y-128668933D01*
X189865000Y-128888212D01*
X170660000Y-128888212D01*
X170660000Y-125888212D01*
X170865000Y-125888212D01*
X170865000Y-126111788D01*
X170908617Y-126331067D01*
X170994176Y-126537624D01*
X171118388Y-126723520D01*
X171276480Y-126881612D01*
X171462376Y-127005824D01*
X171668933Y-127091383D01*
X171888212Y-127135000D01*
X172111788Y-127135000D01*
X172331067Y-127091383D01*
X172537624Y-127005824D01*
X172723520Y-126881612D01*
X172881612Y-126723520D01*
X173005824Y-126537624D01*
X173091383Y-126331067D01*
X173135000Y-126111788D01*
X173135000Y-125888212D01*
X173865000Y-125888212D01*
X173865000Y-126111788D01*
X173908617Y-126331067D01*
X173994176Y-126537624D01*
X174118388Y-126723520D01*
X174276480Y-126881612D01*
X174462376Y-127005824D01*
X174668933Y-127091383D01*
X174888212Y-127135000D01*
X175111788Y-127135000D01*
X175331067Y-127091383D01*
X175537624Y-127005824D01*
X175723520Y-126881612D01*
X175881612Y-126723520D01*
X176005824Y-126537624D01*
X176091383Y-126331067D01*
X176135000Y-126111788D01*
X176135000Y-125888212D01*
X176091383Y-125668933D01*
X176005824Y-125462376D01*
X175881612Y-125276480D01*
X175723520Y-125118388D01*
X175537624Y-124994176D01*
X175331067Y-124908617D01*
X175228484Y-124888212D01*
X189865000Y-124888212D01*
X189865000Y-125111788D01*
X189908617Y-125331067D01*
X189994176Y-125537624D01*
X190118388Y-125723520D01*
X190276480Y-125881612D01*
X190462376Y-126005824D01*
X190668933Y-126091383D01*
X190888212Y-126135000D01*
X191111788Y-126135000D01*
X191331067Y-126091383D01*
X191537624Y-126005824D01*
X191723520Y-125881612D01*
X191881612Y-125723520D01*
X192005824Y-125537624D01*
X192091383Y-125331067D01*
X192135000Y-125111788D01*
X192135000Y-124888212D01*
X193865000Y-124888212D01*
X193865000Y-125111788D01*
X193908617Y-125331067D01*
X193994176Y-125537624D01*
X194118388Y-125723520D01*
X194276480Y-125881612D01*
X194462376Y-126005824D01*
X194668933Y-126091383D01*
X194888212Y-126135000D01*
X195111788Y-126135000D01*
X195331067Y-126091383D01*
X195537624Y-126005824D01*
X195723520Y-125881612D01*
X195881612Y-125723520D01*
X196005824Y-125537624D01*
X196091383Y-125331067D01*
X196135000Y-125111788D01*
X196135000Y-124888212D01*
X196091383Y-124668933D01*
X196005824Y-124462376D01*
X195881612Y-124276480D01*
X195723520Y-124118388D01*
X195537624Y-123994176D01*
X195331067Y-123908617D01*
X195111788Y-123865000D01*
X194888212Y-123865000D01*
X194668933Y-123908617D01*
X194462376Y-123994176D01*
X194276480Y-124118388D01*
X194118388Y-124276480D01*
X193994176Y-124462376D01*
X193908617Y-124668933D01*
X193865000Y-124888212D01*
X192135000Y-124888212D01*
X192091383Y-124668933D01*
X192005824Y-124462376D01*
X191881612Y-124276480D01*
X191723520Y-124118388D01*
X191537624Y-123994176D01*
X191331067Y-123908617D01*
X191111788Y-123865000D01*
X190888212Y-123865000D01*
X190668933Y-123908617D01*
X190462376Y-123994176D01*
X190276480Y-124118388D01*
X190118388Y-124276480D01*
X189994176Y-124462376D01*
X189908617Y-124668933D01*
X189865000Y-124888212D01*
X175228484Y-124888212D01*
X175111788Y-124865000D01*
X174888212Y-124865000D01*
X174668933Y-124908617D01*
X174462376Y-124994176D01*
X174276480Y-125118388D01*
X174118388Y-125276480D01*
X173994176Y-125462376D01*
X173908617Y-125668933D01*
X173865000Y-125888212D01*
X173135000Y-125888212D01*
X173091383Y-125668933D01*
X173005824Y-125462376D01*
X172881612Y-125276480D01*
X172723520Y-125118388D01*
X172537624Y-124994176D01*
X172331067Y-124908617D01*
X172111788Y-124865000D01*
X171888212Y-124865000D01*
X171668933Y-124908617D01*
X171462376Y-124994176D01*
X171276480Y-125118388D01*
X171118388Y-125276480D01*
X170994176Y-125462376D01*
X170908617Y-125668933D01*
X170865000Y-125888212D01*
X170660000Y-125888212D01*
X170660000Y-123169341D01*
X176236680Y-123169341D01*
X176236680Y-123373219D01*
X176276454Y-123573178D01*
X176354475Y-123761536D01*
X176467743Y-123931054D01*
X176611906Y-124075217D01*
X176781424Y-124188485D01*
X176969782Y-124266506D01*
X177169741Y-124306280D01*
X177373619Y-124306280D01*
X177573578Y-124266506D01*
X177761936Y-124188485D01*
X177931454Y-124075217D01*
X178075617Y-123931054D01*
X178188885Y-123761536D01*
X178266906Y-123573178D01*
X178306680Y-123373219D01*
X178306680Y-123169341D01*
X178282596Y-123048261D01*
X180889200Y-123048261D01*
X180889200Y-123252139D01*
X180928974Y-123452098D01*
X181006995Y-123640456D01*
X181120263Y-123809974D01*
X181264426Y-123954137D01*
X181433944Y-124067405D01*
X181622302Y-124145426D01*
X181822261Y-124185200D01*
X182026139Y-124185200D01*
X182226098Y-124145426D01*
X182414456Y-124067405D01*
X182513167Y-124001449D01*
X182565004Y-124036085D01*
X182753362Y-124114106D01*
X182953321Y-124153880D01*
X183157199Y-124153880D01*
X183357158Y-124114106D01*
X183545516Y-124036085D01*
X183715034Y-123922817D01*
X183859197Y-123778654D01*
X183972465Y-123609136D01*
X184050486Y-123420778D01*
X184087301Y-123235692D01*
X187475240Y-123235692D01*
X187475240Y-123459268D01*
X187518857Y-123678547D01*
X187604416Y-123885104D01*
X187728628Y-124071000D01*
X187886720Y-124229092D01*
X188072616Y-124353304D01*
X188279173Y-124438863D01*
X188498452Y-124482480D01*
X188722028Y-124482480D01*
X188941307Y-124438863D01*
X189147864Y-124353304D01*
X189333760Y-124229092D01*
X189491852Y-124071000D01*
X189616064Y-123885104D01*
X189701623Y-123678547D01*
X189745240Y-123459268D01*
X189745240Y-123235692D01*
X189701623Y-123016413D01*
X189648521Y-122888212D01*
X205865000Y-122888212D01*
X205865000Y-123111788D01*
X205908617Y-123331067D01*
X205994176Y-123537624D01*
X206118388Y-123723520D01*
X206276480Y-123881612D01*
X206462376Y-124005824D01*
X206668933Y-124091383D01*
X206888212Y-124135000D01*
X207111788Y-124135000D01*
X207331067Y-124091383D01*
X207537624Y-124005824D01*
X207723520Y-123881612D01*
X207881612Y-123723520D01*
X208005824Y-123537624D01*
X208091383Y-123331067D01*
X208135000Y-123111788D01*
X208135000Y-122888212D01*
X208865000Y-122888212D01*
X208865000Y-123111788D01*
X208908617Y-123331067D01*
X208994176Y-123537624D01*
X209118388Y-123723520D01*
X209276480Y-123881612D01*
X209462376Y-124005824D01*
X209668933Y-124091383D01*
X209888212Y-124135000D01*
X210111788Y-124135000D01*
X210287439Y-124100061D01*
X211664600Y-124100061D01*
X211664600Y-124303939D01*
X211704374Y-124503898D01*
X211782395Y-124692256D01*
X211895663Y-124861774D01*
X212039826Y-125005937D01*
X212209344Y-125119205D01*
X212397702Y-125197226D01*
X212597661Y-125237000D01*
X212801539Y-125237000D01*
X213001498Y-125197226D01*
X213189856Y-125119205D01*
X213359374Y-125005937D01*
X213503537Y-124861774D01*
X213616805Y-124692256D01*
X213694826Y-124503898D01*
X213734600Y-124303939D01*
X213734600Y-124100061D01*
X213694826Y-123900102D01*
X213616805Y-123711744D01*
X213503537Y-123542226D01*
X213359374Y-123398063D01*
X213189856Y-123284795D01*
X213001498Y-123206774D01*
X212801539Y-123167000D01*
X212597661Y-123167000D01*
X212397702Y-123206774D01*
X212209344Y-123284795D01*
X212039826Y-123398063D01*
X211895663Y-123542226D01*
X211782395Y-123711744D01*
X211704374Y-123900102D01*
X211664600Y-124100061D01*
X210287439Y-124100061D01*
X210331067Y-124091383D01*
X210537624Y-124005824D01*
X210723520Y-123881612D01*
X210881612Y-123723520D01*
X211005824Y-123537624D01*
X211091383Y-123331067D01*
X211135000Y-123111788D01*
X211135000Y-122888212D01*
X211091383Y-122668933D01*
X211005824Y-122462376D01*
X210881612Y-122276480D01*
X210723520Y-122118388D01*
X210537624Y-121994176D01*
X210331067Y-121908617D01*
X210111788Y-121865000D01*
X209888212Y-121865000D01*
X209668933Y-121908617D01*
X209462376Y-121994176D01*
X209276480Y-122118388D01*
X209118388Y-122276480D01*
X208994176Y-122462376D01*
X208908617Y-122668933D01*
X208865000Y-122888212D01*
X208135000Y-122888212D01*
X208091383Y-122668933D01*
X208005824Y-122462376D01*
X207881612Y-122276480D01*
X207723520Y-122118388D01*
X207537624Y-121994176D01*
X207331067Y-121908617D01*
X207111788Y-121865000D01*
X206888212Y-121865000D01*
X206668933Y-121908617D01*
X206462376Y-121994176D01*
X206276480Y-122118388D01*
X206118388Y-122276480D01*
X205994176Y-122462376D01*
X205908617Y-122668933D01*
X205865000Y-122888212D01*
X189648521Y-122888212D01*
X189616064Y-122809856D01*
X189491852Y-122623960D01*
X189333760Y-122465868D01*
X189147864Y-122341656D01*
X188941307Y-122256097D01*
X188722028Y-122212480D01*
X188498452Y-122212480D01*
X188279173Y-122256097D01*
X188072616Y-122341656D01*
X187886720Y-122465868D01*
X187728628Y-122623960D01*
X187604416Y-122809856D01*
X187518857Y-123016413D01*
X187475240Y-123235692D01*
X184087301Y-123235692D01*
X184090260Y-123220819D01*
X184090260Y-123016941D01*
X184050486Y-122816982D01*
X183972465Y-122628624D01*
X183859197Y-122459106D01*
X183715034Y-122314943D01*
X183545516Y-122201675D01*
X183357158Y-122123654D01*
X183157199Y-122083880D01*
X182953321Y-122083880D01*
X182753362Y-122123654D01*
X182565004Y-122201675D01*
X182466293Y-122267631D01*
X182414456Y-122232995D01*
X182226098Y-122154974D01*
X182026139Y-122115200D01*
X181822261Y-122115200D01*
X181622302Y-122154974D01*
X181433944Y-122232995D01*
X181264426Y-122346263D01*
X181120263Y-122490426D01*
X181006995Y-122659944D01*
X180928974Y-122848302D01*
X180889200Y-123048261D01*
X178282596Y-123048261D01*
X178266906Y-122969382D01*
X178188885Y-122781024D01*
X178075617Y-122611506D01*
X177931454Y-122467343D01*
X177761936Y-122354075D01*
X177573578Y-122276054D01*
X177373619Y-122236280D01*
X177169741Y-122236280D01*
X176969782Y-122276054D01*
X176781424Y-122354075D01*
X176611906Y-122467343D01*
X176467743Y-122611506D01*
X176354475Y-122781024D01*
X176276454Y-122969382D01*
X176236680Y-123169341D01*
X170660000Y-123169341D01*
X170660000Y-121909812D01*
X171051600Y-121909812D01*
X171051600Y-122133388D01*
X171095217Y-122352667D01*
X171180776Y-122559224D01*
X171304988Y-122745120D01*
X171463080Y-122903212D01*
X171648976Y-123027424D01*
X171855533Y-123112983D01*
X172074812Y-123156600D01*
X172298388Y-123156600D01*
X172517667Y-123112983D01*
X172724224Y-123027424D01*
X172910120Y-122903212D01*
X173068212Y-122745120D01*
X173192424Y-122559224D01*
X173277983Y-122352667D01*
X173321600Y-122133388D01*
X173321600Y-121909812D01*
X173317304Y-121888212D01*
X173865000Y-121888212D01*
X173865000Y-122111788D01*
X173908617Y-122331067D01*
X173994176Y-122537624D01*
X174118388Y-122723520D01*
X174276480Y-122881612D01*
X174462376Y-123005824D01*
X174668933Y-123091383D01*
X174888212Y-123135000D01*
X175111788Y-123135000D01*
X175331067Y-123091383D01*
X175537624Y-123005824D01*
X175723520Y-122881612D01*
X175881612Y-122723520D01*
X176005824Y-122537624D01*
X176091383Y-122331067D01*
X176135000Y-122111788D01*
X176135000Y-121888212D01*
X176091383Y-121668933D01*
X176005824Y-121462376D01*
X175881612Y-121276480D01*
X175723520Y-121118388D01*
X175537624Y-120994176D01*
X175331067Y-120908617D01*
X175111788Y-120865000D01*
X174888212Y-120865000D01*
X174668933Y-120908617D01*
X174462376Y-120994176D01*
X174276480Y-121118388D01*
X174118388Y-121276480D01*
X173994176Y-121462376D01*
X173908617Y-121668933D01*
X173865000Y-121888212D01*
X173317304Y-121888212D01*
X173277983Y-121690533D01*
X173192424Y-121483976D01*
X173068212Y-121298080D01*
X172910120Y-121139988D01*
X172724224Y-121015776D01*
X172517667Y-120930217D01*
X172298388Y-120886600D01*
X172074812Y-120886600D01*
X171855533Y-120930217D01*
X171648976Y-121015776D01*
X171463080Y-121139988D01*
X171304988Y-121298080D01*
X171180776Y-121483976D01*
X171095217Y-121690533D01*
X171051600Y-121909812D01*
X170660000Y-121909812D01*
X170660000Y-120439940D01*
X183098661Y-120439940D01*
X183098661Y-120643818D01*
X183138435Y-120843777D01*
X183216456Y-121032135D01*
X183329724Y-121201653D01*
X183473887Y-121345816D01*
X183643405Y-121459084D01*
X183831763Y-121537105D01*
X183843257Y-121539391D01*
X183845543Y-121550885D01*
X183923564Y-121739243D01*
X184036832Y-121908761D01*
X184180995Y-122052924D01*
X184350513Y-122166192D01*
X184538871Y-122244213D01*
X184738830Y-122283987D01*
X184942708Y-122283987D01*
X185142667Y-122244213D01*
X185331025Y-122166192D01*
X185500543Y-122052924D01*
X185644706Y-121908761D01*
X185757974Y-121739243D01*
X185835995Y-121550885D01*
X185875769Y-121350926D01*
X185875769Y-121147048D01*
X185835995Y-120947089D01*
X185757974Y-120758731D01*
X185644706Y-120589213D01*
X185500543Y-120445050D01*
X185331025Y-120331782D01*
X185142667Y-120253761D01*
X185131173Y-120251475D01*
X185128887Y-120239981D01*
X185050866Y-120051623D01*
X184937598Y-119882105D01*
X184793435Y-119737942D01*
X184623917Y-119624674D01*
X184435559Y-119546653D01*
X184235600Y-119506879D01*
X184031722Y-119506879D01*
X183831763Y-119546653D01*
X183643405Y-119624674D01*
X183473887Y-119737942D01*
X183329724Y-119882105D01*
X183216456Y-120051623D01*
X183138435Y-120239981D01*
X183098661Y-120439940D01*
X170660000Y-120439940D01*
X170660000Y-118165852D01*
X171117640Y-118165852D01*
X171117640Y-118389428D01*
X171161257Y-118608707D01*
X171246816Y-118815264D01*
X171371028Y-119001160D01*
X171529120Y-119159252D01*
X171715016Y-119283464D01*
X171921573Y-119369023D01*
X172140852Y-119412640D01*
X172364428Y-119412640D01*
X172583707Y-119369023D01*
X172790264Y-119283464D01*
X172976160Y-119159252D01*
X173134252Y-119001160D01*
X173258464Y-118815264D01*
X173344023Y-118608707D01*
X173387640Y-118389428D01*
X173387640Y-118165852D01*
X173344023Y-117946573D01*
X173258464Y-117740016D01*
X173240156Y-117712616D01*
X197203208Y-117712616D01*
X197203208Y-117916494D01*
X197242982Y-118116453D01*
X197321003Y-118304811D01*
X197434271Y-118474329D01*
X197578434Y-118618492D01*
X197747952Y-118731760D01*
X197936310Y-118809781D01*
X197947803Y-118812067D01*
X197950089Y-118823561D01*
X198028110Y-119011919D01*
X198141378Y-119181437D01*
X198285541Y-119325600D01*
X198455059Y-119438868D01*
X198643417Y-119516889D01*
X198843376Y-119556663D01*
X199047254Y-119556663D01*
X199247213Y-119516889D01*
X199435571Y-119438868D01*
X199605089Y-119325600D01*
X199749252Y-119181437D01*
X199862520Y-119011919D01*
X199940541Y-118823561D01*
X199980315Y-118623602D01*
X199980315Y-118419724D01*
X199940541Y-118219765D01*
X199862520Y-118031407D01*
X199749252Y-117861889D01*
X199605089Y-117717726D01*
X199534488Y-117670552D01*
X204963140Y-117670552D01*
X204963140Y-117894128D01*
X205006757Y-118113407D01*
X205092316Y-118319964D01*
X205216528Y-118505860D01*
X205374620Y-118663952D01*
X205560516Y-118788164D01*
X205767073Y-118873723D01*
X205986352Y-118917340D01*
X206209928Y-118917340D01*
X206429207Y-118873723D01*
X206635764Y-118788164D01*
X206821660Y-118663952D01*
X206979752Y-118505860D01*
X207103964Y-118319964D01*
X207189523Y-118113407D01*
X207233140Y-117894128D01*
X207233140Y-117670552D01*
X207189523Y-117451273D01*
X207103964Y-117244716D01*
X206979752Y-117058820D01*
X206821660Y-116900728D01*
X206635764Y-116776516D01*
X206429207Y-116690957D01*
X206209928Y-116647340D01*
X205986352Y-116647340D01*
X205767073Y-116690957D01*
X205560516Y-116776516D01*
X205374620Y-116900728D01*
X205216528Y-117058820D01*
X205092316Y-117244716D01*
X205006757Y-117451273D01*
X204963140Y-117670552D01*
X199534488Y-117670552D01*
X199435571Y-117604458D01*
X199247213Y-117526437D01*
X199235720Y-117524151D01*
X199233434Y-117512657D01*
X199155413Y-117324299D01*
X199042145Y-117154781D01*
X198897982Y-117010618D01*
X198728464Y-116897350D01*
X198540106Y-116819329D01*
X198340147Y-116779555D01*
X198136269Y-116779555D01*
X197936310Y-116819329D01*
X197747952Y-116897350D01*
X197578434Y-117010618D01*
X197434271Y-117154781D01*
X197321003Y-117324299D01*
X197242982Y-117512657D01*
X197203208Y-117712616D01*
X173240156Y-117712616D01*
X173134252Y-117554120D01*
X172976160Y-117396028D01*
X172790264Y-117271816D01*
X172583707Y-117186257D01*
X172364428Y-117142640D01*
X172140852Y-117142640D01*
X171921573Y-117186257D01*
X171715016Y-117271816D01*
X171529120Y-117396028D01*
X171371028Y-117554120D01*
X171246816Y-117740016D01*
X171161257Y-117946573D01*
X171117640Y-118165852D01*
X170660000Y-118165852D01*
X170660000Y-115606463D01*
X170767102Y-115650826D01*
X170967061Y-115690600D01*
X171170939Y-115690600D01*
X171370898Y-115650826D01*
X171559256Y-115572805D01*
X171728774Y-115459537D01*
X171819111Y-115369200D01*
X174500000Y-115369200D01*
X174524776Y-115366760D01*
X174548601Y-115359533D01*
X174570557Y-115347797D01*
X174589803Y-115332003D01*
X174605597Y-115312757D01*
X174617333Y-115290801D01*
X174624560Y-115266976D01*
X174627000Y-115242200D01*
X174627000Y-112888212D01*
X183865000Y-112888212D01*
X183865000Y-113111788D01*
X183908617Y-113331067D01*
X183994176Y-113537624D01*
X184118388Y-113723520D01*
X184276480Y-113881612D01*
X184462376Y-114005824D01*
X184668933Y-114091383D01*
X184888212Y-114135000D01*
X185111788Y-114135000D01*
X185331067Y-114091383D01*
X185537624Y-114005824D01*
X185723520Y-113881612D01*
X185881612Y-113723520D01*
X186005824Y-113537624D01*
X186091383Y-113331067D01*
X186135000Y-113111788D01*
X186135000Y-112888212D01*
X186091383Y-112668933D01*
X186005824Y-112462376D01*
X185881612Y-112276480D01*
X185723520Y-112118388D01*
X185537624Y-111994176D01*
X185331067Y-111908617D01*
X185228484Y-111888212D01*
X200865000Y-111888212D01*
X200865000Y-112111788D01*
X200908617Y-112331067D01*
X200994176Y-112537624D01*
X201118388Y-112723520D01*
X201276480Y-112881612D01*
X201462376Y-113005824D01*
X201668933Y-113091383D01*
X201888212Y-113135000D01*
X202111788Y-113135000D01*
X202331067Y-113091383D01*
X202537624Y-113005824D01*
X202723520Y-112881612D01*
X202881612Y-112723520D01*
X203005824Y-112537624D01*
X203091383Y-112331067D01*
X203135000Y-112111788D01*
X203135000Y-111888212D01*
X203091383Y-111668933D01*
X203072279Y-111622812D01*
X209812000Y-111622812D01*
X209812000Y-111846388D01*
X209855617Y-112065667D01*
X209941176Y-112272224D01*
X210065388Y-112458120D01*
X210223480Y-112616212D01*
X210409376Y-112740424D01*
X210615933Y-112825983D01*
X210835212Y-112869600D01*
X211058788Y-112869600D01*
X211278067Y-112825983D01*
X211484624Y-112740424D01*
X211670520Y-112616212D01*
X211828612Y-112458120D01*
X211952824Y-112272224D01*
X212038383Y-112065667D01*
X212082000Y-111846388D01*
X212082000Y-111622812D01*
X212038383Y-111403533D01*
X211952824Y-111196976D01*
X211828612Y-111011080D01*
X211670520Y-110852988D01*
X211484624Y-110728776D01*
X211278067Y-110643217D01*
X211058788Y-110599600D01*
X210835212Y-110599600D01*
X210615933Y-110643217D01*
X210409376Y-110728776D01*
X210223480Y-110852988D01*
X210065388Y-111011080D01*
X209941176Y-111196976D01*
X209855617Y-111403533D01*
X209812000Y-111622812D01*
X203072279Y-111622812D01*
X203005824Y-111462376D01*
X202881612Y-111276480D01*
X202723520Y-111118388D01*
X202537624Y-110994176D01*
X202331067Y-110908617D01*
X202111788Y-110865000D01*
X201888212Y-110865000D01*
X201668933Y-110908617D01*
X201462376Y-110994176D01*
X201276480Y-111118388D01*
X201118388Y-111276480D01*
X200994176Y-111462376D01*
X200908617Y-111668933D01*
X200865000Y-111888212D01*
X185228484Y-111888212D01*
X185111788Y-111865000D01*
X184888212Y-111865000D01*
X184668933Y-111908617D01*
X184462376Y-111994176D01*
X184276480Y-112118388D01*
X184118388Y-112276480D01*
X183994176Y-112462376D01*
X183908617Y-112668933D01*
X183865000Y-112888212D01*
X174627000Y-112888212D01*
X174627000Y-112119200D01*
X177750000Y-112119200D01*
X177774776Y-112116760D01*
X177798601Y-112109533D01*
X177820557Y-112097797D01*
X177839803Y-112082003D01*
X177855597Y-112062757D01*
X177867333Y-112040801D01*
X177874560Y-112016976D01*
X177877000Y-111992200D01*
X177877000Y-110742200D01*
X177874560Y-110717424D01*
X177867333Y-110693599D01*
X177855597Y-110671643D01*
X177839803Y-110652397D01*
X177820557Y-110636603D01*
X177798601Y-110624867D01*
X177774776Y-110617640D01*
X177750000Y-110615200D01*
X174627000Y-110615200D01*
X174627000Y-110391332D01*
X174744612Y-110273720D01*
X174868824Y-110087824D01*
X174954383Y-109881267D01*
X174998000Y-109661988D01*
X174998000Y-109490412D01*
X179358142Y-109490412D01*
X179358142Y-109713988D01*
X179401759Y-109933267D01*
X179487318Y-110139824D01*
X179611530Y-110325720D01*
X179769622Y-110483812D01*
X179955518Y-110608024D01*
X180162075Y-110693583D01*
X180381354Y-110737200D01*
X180604930Y-110737200D01*
X180824209Y-110693583D01*
X181030766Y-110608024D01*
X181216662Y-110483812D01*
X181374754Y-110325720D01*
X181498966Y-110139824D01*
X181584525Y-109933267D01*
X181628142Y-109713988D01*
X181628142Y-109490412D01*
X182262800Y-109490412D01*
X182262800Y-109713988D01*
X182306417Y-109933267D01*
X182391976Y-110139824D01*
X182516188Y-110325720D01*
X182674280Y-110483812D01*
X182860176Y-110608024D01*
X183066733Y-110693583D01*
X183286012Y-110737200D01*
X183509588Y-110737200D01*
X183728867Y-110693583D01*
X183935424Y-110608024D01*
X184121320Y-110483812D01*
X184279412Y-110325720D01*
X184397800Y-110148540D01*
X184516188Y-110325720D01*
X184674280Y-110483812D01*
X184860176Y-110608024D01*
X185066733Y-110693583D01*
X185286012Y-110737200D01*
X185509588Y-110737200D01*
X185728867Y-110693583D01*
X185935424Y-110608024D01*
X186121320Y-110483812D01*
X186279412Y-110325720D01*
X186403624Y-110139824D01*
X186489183Y-109933267D01*
X186498144Y-109888212D01*
X197865000Y-109888212D01*
X197865000Y-110111788D01*
X197908617Y-110331067D01*
X197994176Y-110537624D01*
X198118388Y-110723520D01*
X198276480Y-110881612D01*
X198462376Y-111005824D01*
X198668933Y-111091383D01*
X198888212Y-111135000D01*
X199111788Y-111135000D01*
X199331067Y-111091383D01*
X199537624Y-111005824D01*
X199723520Y-110881612D01*
X199881612Y-110723520D01*
X200005824Y-110537624D01*
X200091383Y-110331067D01*
X200135000Y-110111788D01*
X200135000Y-109888212D01*
X202865000Y-109888212D01*
X202865000Y-110111788D01*
X202908617Y-110331067D01*
X202994176Y-110537624D01*
X203118388Y-110723520D01*
X203276480Y-110881612D01*
X203462376Y-111005824D01*
X203668933Y-111091383D01*
X203888212Y-111135000D01*
X204111788Y-111135000D01*
X204331067Y-111091383D01*
X204537624Y-111005824D01*
X204723520Y-110881612D01*
X204881612Y-110723520D01*
X205005824Y-110537624D01*
X205091383Y-110331067D01*
X205095203Y-110311861D01*
X205263700Y-110311861D01*
X205263700Y-110515739D01*
X205303474Y-110715698D01*
X205381495Y-110904056D01*
X205494763Y-111073574D01*
X205638926Y-111217737D01*
X205808444Y-111331005D01*
X205996802Y-111409026D01*
X206196761Y-111448800D01*
X206400639Y-111448800D01*
X206600598Y-111409026D01*
X206788956Y-111331005D01*
X206958474Y-111217737D01*
X207102637Y-111073574D01*
X207215905Y-110904056D01*
X207293926Y-110715698D01*
X207333700Y-110515739D01*
X207333700Y-110311861D01*
X207293926Y-110111902D01*
X207215905Y-109923544D01*
X207102637Y-109754026D01*
X206958474Y-109609863D01*
X206788956Y-109496595D01*
X206600598Y-109418574D01*
X206400639Y-109378800D01*
X206196761Y-109378800D01*
X205996802Y-109418574D01*
X205808444Y-109496595D01*
X205638926Y-109609863D01*
X205494763Y-109754026D01*
X205381495Y-109923544D01*
X205303474Y-110111902D01*
X205263700Y-110311861D01*
X205095203Y-110311861D01*
X205135000Y-110111788D01*
X205135000Y-109888212D01*
X205091383Y-109668933D01*
X205005824Y-109462376D01*
X204881612Y-109276480D01*
X204723520Y-109118388D01*
X204537624Y-108994176D01*
X204331067Y-108908617D01*
X204111788Y-108865000D01*
X203888212Y-108865000D01*
X203668933Y-108908617D01*
X203462376Y-108994176D01*
X203276480Y-109118388D01*
X203118388Y-109276480D01*
X202994176Y-109462376D01*
X202908617Y-109668933D01*
X202865000Y-109888212D01*
X200135000Y-109888212D01*
X200091383Y-109668933D01*
X200005824Y-109462376D01*
X199881612Y-109276480D01*
X199723520Y-109118388D01*
X199537624Y-108994176D01*
X199331067Y-108908617D01*
X199111788Y-108865000D01*
X198888212Y-108865000D01*
X198668933Y-108908617D01*
X198462376Y-108994176D01*
X198276480Y-109118388D01*
X198118388Y-109276480D01*
X197994176Y-109462376D01*
X197908617Y-109668933D01*
X197865000Y-109888212D01*
X186498144Y-109888212D01*
X186532800Y-109713988D01*
X186532800Y-109490412D01*
X186489183Y-109271133D01*
X186403624Y-109064576D01*
X186279412Y-108878680D01*
X186121320Y-108720588D01*
X185935424Y-108596376D01*
X185728867Y-108510817D01*
X185509588Y-108467200D01*
X185286012Y-108467200D01*
X185066733Y-108510817D01*
X184860176Y-108596376D01*
X184674280Y-108720588D01*
X184516188Y-108878680D01*
X184397800Y-109055860D01*
X184279412Y-108878680D01*
X184121320Y-108720588D01*
X183935424Y-108596376D01*
X183728867Y-108510817D01*
X183509588Y-108467200D01*
X183286012Y-108467200D01*
X183066733Y-108510817D01*
X182860176Y-108596376D01*
X182674280Y-108720588D01*
X182516188Y-108878680D01*
X182391976Y-109064576D01*
X182306417Y-109271133D01*
X182262800Y-109490412D01*
X181628142Y-109490412D01*
X181584525Y-109271133D01*
X181498966Y-109064576D01*
X181374754Y-108878680D01*
X181216662Y-108720588D01*
X181030766Y-108596376D01*
X180824209Y-108510817D01*
X180604930Y-108467200D01*
X180381354Y-108467200D01*
X180162075Y-108510817D01*
X179955518Y-108596376D01*
X179769622Y-108720588D01*
X179611530Y-108878680D01*
X179487318Y-109064576D01*
X179401759Y-109271133D01*
X179358142Y-109490412D01*
X174998000Y-109490412D01*
X174998000Y-109438412D01*
X174954383Y-109219133D01*
X174868824Y-109012576D01*
X174744612Y-108826680D01*
X174619859Y-108701927D01*
X174617333Y-108693599D01*
X174605597Y-108671643D01*
X174589803Y-108652397D01*
X174570557Y-108636603D01*
X174548601Y-108624867D01*
X174524776Y-108617640D01*
X174507764Y-108615965D01*
X174400624Y-108544376D01*
X174194067Y-108458817D01*
X173974788Y-108415200D01*
X173751212Y-108415200D01*
X173531933Y-108458817D01*
X173325376Y-108544376D01*
X173219381Y-108615200D01*
X170660000Y-108615200D01*
X170660000Y-107888212D01*
X199865000Y-107888212D01*
X199865000Y-108111788D01*
X199908617Y-108331067D01*
X199994176Y-108537624D01*
X200118388Y-108723520D01*
X200276480Y-108881612D01*
X200462376Y-109005824D01*
X200668933Y-109091383D01*
X200888212Y-109135000D01*
X201111788Y-109135000D01*
X201331067Y-109091383D01*
X201537624Y-109005824D01*
X201723520Y-108881612D01*
X201881612Y-108723520D01*
X202005824Y-108537624D01*
X202091383Y-108331067D01*
X202135000Y-108111788D01*
X202135000Y-107888212D01*
X202091383Y-107668933D01*
X202005824Y-107462376D01*
X201881612Y-107276480D01*
X201723520Y-107118388D01*
X201537624Y-106994176D01*
X201331067Y-106908617D01*
X201111788Y-106865000D01*
X200888212Y-106865000D01*
X200668933Y-106908617D01*
X200462376Y-106994176D01*
X200276480Y-107118388D01*
X200118388Y-107276480D01*
X199994176Y-107462376D01*
X199908617Y-107668933D01*
X199865000Y-107888212D01*
X170660000Y-107888212D01*
X170660000Y-105888212D01*
X170865000Y-105888212D01*
X170865000Y-106111788D01*
X170908617Y-106331067D01*
X170994176Y-106537624D01*
X171118388Y-106723520D01*
X171276480Y-106881612D01*
X171462376Y-107005824D01*
X171668933Y-107091383D01*
X171888212Y-107135000D01*
X172111788Y-107135000D01*
X172331067Y-107091383D01*
X172537624Y-107005824D01*
X172723520Y-106881612D01*
X172881612Y-106723520D01*
X173005824Y-106537624D01*
X173091383Y-106331067D01*
X173135000Y-106111788D01*
X173135000Y-106058198D01*
X191510774Y-106058198D01*
X191510774Y-106281774D01*
X191554391Y-106501053D01*
X191639950Y-106707610D01*
X191764162Y-106893506D01*
X191922254Y-107051598D01*
X192108150Y-107175810D01*
X192314707Y-107261369D01*
X192533986Y-107304986D01*
X192757562Y-107304986D01*
X192976841Y-107261369D01*
X193183398Y-107175810D01*
X193369294Y-107051598D01*
X193527386Y-106893506D01*
X193651598Y-106707610D01*
X193737157Y-106501053D01*
X193780774Y-106281774D01*
X193780774Y-106058198D01*
X193746962Y-105888212D01*
X201865000Y-105888212D01*
X201865000Y-106111788D01*
X201908617Y-106331067D01*
X201994176Y-106537624D01*
X202118388Y-106723520D01*
X202276480Y-106881612D01*
X202462376Y-107005824D01*
X202668933Y-107091383D01*
X202888212Y-107135000D01*
X203111788Y-107135000D01*
X203331067Y-107091383D01*
X203537624Y-107005824D01*
X203723520Y-106881612D01*
X203881612Y-106723520D01*
X204005824Y-106537624D01*
X204091383Y-106331067D01*
X204135000Y-106111788D01*
X204135000Y-105888212D01*
X204091383Y-105668933D01*
X204005824Y-105462376D01*
X203881612Y-105276480D01*
X203723520Y-105118388D01*
X203537624Y-104994176D01*
X203331067Y-104908617D01*
X203111788Y-104865000D01*
X202888212Y-104865000D01*
X202668933Y-104908617D01*
X202462376Y-104994176D01*
X202276480Y-105118388D01*
X202118388Y-105276480D01*
X201994176Y-105462376D01*
X201908617Y-105668933D01*
X201865000Y-105888212D01*
X193746962Y-105888212D01*
X193737157Y-105838919D01*
X193651598Y-105632362D01*
X193527386Y-105446466D01*
X193369294Y-105288374D01*
X193183398Y-105164162D01*
X192976841Y-105078603D01*
X192757562Y-105034986D01*
X192533986Y-105034986D01*
X192314707Y-105078603D01*
X192108150Y-105164162D01*
X191922254Y-105288374D01*
X191764162Y-105446466D01*
X191639950Y-105632362D01*
X191554391Y-105838919D01*
X191510774Y-106058198D01*
X173135000Y-106058198D01*
X173135000Y-105888212D01*
X173091383Y-105668933D01*
X173005824Y-105462376D01*
X172881612Y-105276480D01*
X172723520Y-105118388D01*
X172537624Y-104994176D01*
X172331067Y-104908617D01*
X172111788Y-104865000D01*
X171888212Y-104865000D01*
X171668933Y-104908617D01*
X171462376Y-104994176D01*
X171276480Y-105118388D01*
X171118388Y-105276480D01*
X170994176Y-105462376D01*
X170908617Y-105668933D01*
X170865000Y-105888212D01*
X170660000Y-105888212D01*
X170660000Y-104590392D01*
X181999718Y-104590392D01*
X181999718Y-104813968D01*
X182043335Y-105033247D01*
X182128894Y-105239804D01*
X182253106Y-105425700D01*
X182411198Y-105583792D01*
X182597094Y-105708004D01*
X182803651Y-105793563D01*
X183022930Y-105837180D01*
X183246506Y-105837180D01*
X183465785Y-105793563D01*
X183672342Y-105708004D01*
X183858238Y-105583792D01*
X184016330Y-105425700D01*
X184140542Y-105239804D01*
X184226101Y-105033247D01*
X184269718Y-104813968D01*
X184269718Y-104590392D01*
X184226101Y-104371113D01*
X184140542Y-104164556D01*
X184016330Y-103978660D01*
X183858238Y-103820568D01*
X183672342Y-103696356D01*
X183465785Y-103610797D01*
X183246506Y-103567180D01*
X183022930Y-103567180D01*
X182803651Y-103610797D01*
X182597094Y-103696356D01*
X182411198Y-103820568D01*
X182253106Y-103978660D01*
X182128894Y-104164556D01*
X182043335Y-104371113D01*
X181999718Y-104590392D01*
X170660000Y-104590392D01*
X170660000Y-101888212D01*
X170865000Y-101888212D01*
X170865000Y-102111788D01*
X170908617Y-102331067D01*
X170994176Y-102537624D01*
X171118388Y-102723520D01*
X171276480Y-102881612D01*
X171462376Y-103005824D01*
X171668933Y-103091383D01*
X171888212Y-103135000D01*
X172111788Y-103135000D01*
X172331067Y-103091383D01*
X172537624Y-103005824D01*
X172723520Y-102881612D01*
X172881612Y-102723520D01*
X173005824Y-102537624D01*
X173091383Y-102331067D01*
X173135000Y-102111788D01*
X173135000Y-101888212D01*
X173865000Y-101888212D01*
X173865000Y-102111788D01*
X173908617Y-102331067D01*
X173994176Y-102537624D01*
X174118388Y-102723520D01*
X174276480Y-102881612D01*
X174462376Y-103005824D01*
X174668933Y-103091383D01*
X174888212Y-103135000D01*
X175111788Y-103135000D01*
X175331067Y-103091383D01*
X175537624Y-103005824D01*
X175723520Y-102881612D01*
X175881612Y-102723520D01*
X176005824Y-102537624D01*
X176091383Y-102331067D01*
X176135000Y-102111788D01*
X176135000Y-101888212D01*
X176865000Y-101888212D01*
X176865000Y-102111788D01*
X176908617Y-102331067D01*
X176994176Y-102537624D01*
X177118388Y-102723520D01*
X177276480Y-102881612D01*
X177462376Y-103005824D01*
X177668933Y-103091383D01*
X177888212Y-103135000D01*
X178111788Y-103135000D01*
X178331067Y-103091383D01*
X178537624Y-103005824D01*
X178723520Y-102881612D01*
X178881612Y-102723520D01*
X179005824Y-102537624D01*
X179091383Y-102331067D01*
X179135000Y-102111788D01*
X179135000Y-101888212D01*
X179865000Y-101888212D01*
X179865000Y-102111788D01*
X179908617Y-102331067D01*
X179994176Y-102537624D01*
X180118388Y-102723520D01*
X180276480Y-102881612D01*
X180462376Y-103005824D01*
X180668933Y-103091383D01*
X180888212Y-103135000D01*
X181111788Y-103135000D01*
X181331067Y-103091383D01*
X181537624Y-103005824D01*
X181723520Y-102881612D01*
X181881612Y-102723520D01*
X182005824Y-102537624D01*
X182091383Y-102331067D01*
X182135000Y-102111788D01*
X182135000Y-101888212D01*
X182091383Y-101668933D01*
X182005824Y-101462376D01*
X181881612Y-101276480D01*
X181723520Y-101118388D01*
X181537624Y-100994176D01*
X181331067Y-100908617D01*
X181111788Y-100865000D01*
X180888212Y-100865000D01*
X180668933Y-100908617D01*
X180462376Y-100994176D01*
X180276480Y-101118388D01*
X180118388Y-101276480D01*
X179994176Y-101462376D01*
X179908617Y-101668933D01*
X179865000Y-101888212D01*
X179135000Y-101888212D01*
X179091383Y-101668933D01*
X179005824Y-101462376D01*
X178881612Y-101276480D01*
X178723520Y-101118388D01*
X178537624Y-100994176D01*
X178331067Y-100908617D01*
X178111788Y-100865000D01*
X177888212Y-100865000D01*
X177668933Y-100908617D01*
X177462376Y-100994176D01*
X177276480Y-101118388D01*
X177118388Y-101276480D01*
X176994176Y-101462376D01*
X176908617Y-101668933D01*
X176865000Y-101888212D01*
X176135000Y-101888212D01*
X176091383Y-101668933D01*
X176005824Y-101462376D01*
X175881612Y-101276480D01*
X175723520Y-101118388D01*
X175537624Y-100994176D01*
X175331067Y-100908617D01*
X175111788Y-100865000D01*
X174888212Y-100865000D01*
X174668933Y-100908617D01*
X174462376Y-100994176D01*
X174276480Y-101118388D01*
X174118388Y-101276480D01*
X173994176Y-101462376D01*
X173908617Y-101668933D01*
X173865000Y-101888212D01*
X173135000Y-101888212D01*
X173091383Y-101668933D01*
X173005824Y-101462376D01*
X172881612Y-101276480D01*
X172723520Y-101118388D01*
X172537624Y-100994176D01*
X172331067Y-100908617D01*
X172111788Y-100865000D01*
X171888212Y-100865000D01*
X171668933Y-100908617D01*
X171462376Y-100994176D01*
X171276480Y-101118388D01*
X171118388Y-101276480D01*
X170994176Y-101462376D01*
X170908617Y-101668933D01*
X170865000Y-101888212D01*
X170660000Y-101888212D01*
X170660000Y-97888212D01*
X170865000Y-97888212D01*
X170865000Y-98111788D01*
X170908617Y-98331067D01*
X170994176Y-98537624D01*
X171118388Y-98723520D01*
X171276480Y-98881612D01*
X171462376Y-99005824D01*
X171668933Y-99091383D01*
X171888212Y-99135000D01*
X172111788Y-99135000D01*
X172331067Y-99091383D01*
X172537624Y-99005824D01*
X172723520Y-98881612D01*
X172881612Y-98723520D01*
X173005824Y-98537624D01*
X173091383Y-98331067D01*
X173135000Y-98111788D01*
X173135000Y-97888212D01*
X173865000Y-97888212D01*
X173865000Y-98111788D01*
X173908617Y-98331067D01*
X173994176Y-98537624D01*
X174118388Y-98723520D01*
X174276480Y-98881612D01*
X174462376Y-99005824D01*
X174668933Y-99091383D01*
X174888212Y-99135000D01*
X175111788Y-99135000D01*
X175331067Y-99091383D01*
X175537624Y-99005824D01*
X175723520Y-98881612D01*
X175881612Y-98723520D01*
X176005824Y-98537624D01*
X176091383Y-98331067D01*
X176135000Y-98111788D01*
X176135000Y-97888212D01*
X176865000Y-97888212D01*
X176865000Y-98111788D01*
X176908617Y-98331067D01*
X176994176Y-98537624D01*
X177118388Y-98723520D01*
X177276480Y-98881612D01*
X177462376Y-99005824D01*
X177668933Y-99091383D01*
X177888212Y-99135000D01*
X178111788Y-99135000D01*
X178331067Y-99091383D01*
X178537624Y-99005824D01*
X178723520Y-98881612D01*
X178881612Y-98723520D01*
X179005824Y-98537624D01*
X179091383Y-98331067D01*
X179135000Y-98111788D01*
X179135000Y-97888212D01*
X179865000Y-97888212D01*
X179865000Y-98111788D01*
X179908617Y-98331067D01*
X179994176Y-98537624D01*
X180118388Y-98723520D01*
X180276480Y-98881612D01*
X180462376Y-99005824D01*
X180668933Y-99091383D01*
X180888212Y-99135000D01*
X181111788Y-99135000D01*
X181331067Y-99091383D01*
X181537624Y-99005824D01*
X181723520Y-98881612D01*
X181881612Y-98723520D01*
X182005824Y-98537624D01*
X182091383Y-98331067D01*
X182135000Y-98111788D01*
X182135000Y-97888212D01*
X189865000Y-97888212D01*
X189865000Y-98111788D01*
X189908617Y-98331067D01*
X189994176Y-98537624D01*
X190118388Y-98723520D01*
X190276480Y-98881612D01*
X190453660Y-99000000D01*
X190276480Y-99118388D01*
X190118388Y-99276480D01*
X189994176Y-99462376D01*
X189908617Y-99668933D01*
X189865000Y-99888212D01*
X189865000Y-100111788D01*
X189908617Y-100331067D01*
X189994176Y-100537624D01*
X190118388Y-100723520D01*
X190276480Y-100881612D01*
X190462376Y-101005824D01*
X190668933Y-101091383D01*
X190888212Y-101135000D01*
X191111788Y-101135000D01*
X191331067Y-101091383D01*
X191537624Y-101005824D01*
X191723520Y-100881612D01*
X191881612Y-100723520D01*
X192005824Y-100537624D01*
X192091383Y-100331067D01*
X192135000Y-100111788D01*
X192135000Y-99888212D01*
X192091383Y-99668933D01*
X192005824Y-99462376D01*
X191881612Y-99276480D01*
X191723520Y-99118388D01*
X191546340Y-99000000D01*
X191723520Y-98881612D01*
X191881612Y-98723520D01*
X192005824Y-98537624D01*
X192091383Y-98331067D01*
X192135000Y-98111788D01*
X192135000Y-97888212D01*
X192865000Y-97888212D01*
X192865000Y-98111788D01*
X192908617Y-98331067D01*
X192994176Y-98537624D01*
X193118388Y-98723520D01*
X193276480Y-98881612D01*
X193453660Y-99000000D01*
X193276480Y-99118388D01*
X193118388Y-99276480D01*
X192994176Y-99462376D01*
X192908617Y-99668933D01*
X192865000Y-99888212D01*
X192865000Y-100111788D01*
X192908617Y-100331067D01*
X192994176Y-100537624D01*
X193118388Y-100723520D01*
X193276480Y-100881612D01*
X193462376Y-101005824D01*
X193668933Y-101091383D01*
X193888212Y-101135000D01*
X194111788Y-101135000D01*
X194331067Y-101091383D01*
X194537624Y-101005824D01*
X194723520Y-100881612D01*
X194881612Y-100723520D01*
X195005824Y-100537624D01*
X195091383Y-100331067D01*
X195135000Y-100111788D01*
X195135000Y-99888212D01*
X195091383Y-99668933D01*
X195005824Y-99462376D01*
X194881612Y-99276480D01*
X194723520Y-99118388D01*
X194546340Y-99000000D01*
X194723520Y-98881612D01*
X194881612Y-98723520D01*
X195005824Y-98537624D01*
X195091383Y-98331067D01*
X195135000Y-98111788D01*
X195135000Y-97888212D01*
X195091383Y-97668933D01*
X195005824Y-97462376D01*
X194881612Y-97276480D01*
X194723520Y-97118388D01*
X194537624Y-96994176D01*
X194331067Y-96908617D01*
X194111788Y-96865000D01*
X193888212Y-96865000D01*
X193668933Y-96908617D01*
X193462376Y-96994176D01*
X193276480Y-97118388D01*
X193118388Y-97276480D01*
X192994176Y-97462376D01*
X192908617Y-97668933D01*
X192865000Y-97888212D01*
X192135000Y-97888212D01*
X192091383Y-97668933D01*
X192005824Y-97462376D01*
X191881612Y-97276480D01*
X191723520Y-97118388D01*
X191537624Y-96994176D01*
X191331067Y-96908617D01*
X191111788Y-96865000D01*
X190888212Y-96865000D01*
X190668933Y-96908617D01*
X190462376Y-96994176D01*
X190276480Y-97118388D01*
X190118388Y-97276480D01*
X189994176Y-97462376D01*
X189908617Y-97668933D01*
X189865000Y-97888212D01*
X182135000Y-97888212D01*
X182091383Y-97668933D01*
X182005824Y-97462376D01*
X181881612Y-97276480D01*
X181723520Y-97118388D01*
X181537624Y-96994176D01*
X181331067Y-96908617D01*
X181111788Y-96865000D01*
X180888212Y-96865000D01*
X180668933Y-96908617D01*
X180462376Y-96994176D01*
X180276480Y-97118388D01*
X180118388Y-97276480D01*
X179994176Y-97462376D01*
X179908617Y-97668933D01*
X179865000Y-97888212D01*
X179135000Y-97888212D01*
X179091383Y-97668933D01*
X179005824Y-97462376D01*
X178881612Y-97276480D01*
X178723520Y-97118388D01*
X178537624Y-96994176D01*
X178331067Y-96908617D01*
X178111788Y-96865000D01*
X177888212Y-96865000D01*
X177668933Y-96908617D01*
X177462376Y-96994176D01*
X177276480Y-97118388D01*
X177118388Y-97276480D01*
X176994176Y-97462376D01*
X176908617Y-97668933D01*
X176865000Y-97888212D01*
X176135000Y-97888212D01*
X176091383Y-97668933D01*
X176005824Y-97462376D01*
X175881612Y-97276480D01*
X175723520Y-97118388D01*
X175537624Y-96994176D01*
X175331067Y-96908617D01*
X175111788Y-96865000D01*
X174888212Y-96865000D01*
X174668933Y-96908617D01*
X174462376Y-96994176D01*
X174276480Y-97118388D01*
X174118388Y-97276480D01*
X173994176Y-97462376D01*
X173908617Y-97668933D01*
X173865000Y-97888212D01*
X173135000Y-97888212D01*
X173091383Y-97668933D01*
X173005824Y-97462376D01*
X172881612Y-97276480D01*
X172723520Y-97118388D01*
X172537624Y-96994176D01*
X172331067Y-96908617D01*
X172111788Y-96865000D01*
X171888212Y-96865000D01*
X171668933Y-96908617D01*
X171462376Y-96994176D01*
X171276480Y-97118388D01*
X171118388Y-97276480D01*
X170994176Y-97462376D01*
X170908617Y-97668933D01*
X170865000Y-97888212D01*
X170660000Y-97888212D01*
X170660000Y-94600807D01*
X170797912Y-94807207D01*
X171192793Y-95202088D01*
X171657124Y-95512344D01*
X172173061Y-95726052D01*
X172720777Y-95835000D01*
X173279223Y-95835000D01*
X173826939Y-95726052D01*
X174342876Y-95512344D01*
X174807207Y-95202088D01*
X175146887Y-94862408D01*
X177603000Y-94862408D01*
X177603000Y-95137592D01*
X177656686Y-95407490D01*
X177761995Y-95661727D01*
X177914880Y-95890535D01*
X178109465Y-96085120D01*
X178338273Y-96238005D01*
X178592510Y-96343314D01*
X178862408Y-96397000D01*
X179137592Y-96397000D01*
X179407490Y-96343314D01*
X179661727Y-96238005D01*
X179890535Y-96085120D01*
X180085120Y-95890535D01*
X180238005Y-95661727D01*
X180343314Y-95407490D01*
X180397000Y-95137592D01*
X180397000Y-94862408D01*
X181603000Y-94862408D01*
X181603000Y-95137592D01*
X181656686Y-95407490D01*
X181761995Y-95661727D01*
X181914880Y-95890535D01*
X182109465Y-96085120D01*
X182338273Y-96238005D01*
X182592510Y-96343314D01*
X182862408Y-96397000D01*
X183137592Y-96397000D01*
X183407490Y-96343314D01*
X183661727Y-96238005D01*
X183890535Y-96085120D01*
X184085120Y-95890535D01*
X184238005Y-95661727D01*
X184343314Y-95407490D01*
X184397000Y-95137592D01*
X184397000Y-94862408D01*
X185603000Y-94862408D01*
X185603000Y-95137592D01*
X185656686Y-95407490D01*
X185761995Y-95661727D01*
X185914880Y-95890535D01*
X186109465Y-96085120D01*
X186338273Y-96238005D01*
X186592510Y-96343314D01*
X186862408Y-96397000D01*
X187137592Y-96397000D01*
X187407490Y-96343314D01*
X187661727Y-96238005D01*
X187890535Y-96085120D01*
X188085120Y-95890535D01*
X188238005Y-95661727D01*
X188343314Y-95407490D01*
X188397000Y-95137592D01*
X188397000Y-94862408D01*
X189603000Y-94862408D01*
X189603000Y-95137592D01*
X189656686Y-95407490D01*
X189761995Y-95661727D01*
X189914880Y-95890535D01*
X190109465Y-96085120D01*
X190338273Y-96238005D01*
X190592510Y-96343314D01*
X190862408Y-96397000D01*
X191137592Y-96397000D01*
X191407490Y-96343314D01*
X191661727Y-96238005D01*
X191890535Y-96085120D01*
X192085120Y-95890535D01*
X192238005Y-95661727D01*
X192343314Y-95407490D01*
X192397000Y-95137592D01*
X192397000Y-94862408D01*
X193603000Y-94862408D01*
X193603000Y-95137592D01*
X193656686Y-95407490D01*
X193761995Y-95661727D01*
X193914880Y-95890535D01*
X194109465Y-96085120D01*
X194338273Y-96238005D01*
X194592510Y-96343314D01*
X194862408Y-96397000D01*
X195137592Y-96397000D01*
X195407490Y-96343314D01*
X195656280Y-96240261D01*
X196170600Y-96240261D01*
X196170600Y-96444139D01*
X196210374Y-96644098D01*
X196288395Y-96832456D01*
X196401663Y-97001974D01*
X196545826Y-97146137D01*
X196715344Y-97259405D01*
X196903702Y-97337426D01*
X197103661Y-97377200D01*
X197307539Y-97377200D01*
X197507498Y-97337426D01*
X197695856Y-97259405D01*
X197865374Y-97146137D01*
X198009537Y-97001974D01*
X198122805Y-96832456D01*
X198200826Y-96644098D01*
X198240600Y-96444139D01*
X198240600Y-96240261D01*
X198225111Y-96162392D01*
X198338273Y-96238005D01*
X198592510Y-96343314D01*
X198862408Y-96397000D01*
X199137592Y-96397000D01*
X199407490Y-96343314D01*
X199661727Y-96238005D01*
X199890535Y-96085120D01*
X200085120Y-95890535D01*
X200238005Y-95661727D01*
X200343314Y-95407490D01*
X200397000Y-95137592D01*
X200397000Y-94862408D01*
X201603000Y-94862408D01*
X201603000Y-95137592D01*
X201656686Y-95407490D01*
X201761995Y-95661727D01*
X201914880Y-95890535D01*
X202109465Y-96085120D01*
X202338273Y-96238005D01*
X202592510Y-96343314D01*
X202862408Y-96397000D01*
X203137592Y-96397000D01*
X203407490Y-96343314D01*
X203661727Y-96238005D01*
X203890535Y-96085120D01*
X204085120Y-95890535D01*
X204238005Y-95661727D01*
X204343314Y-95407490D01*
X204397000Y-95137592D01*
X204397000Y-94862408D01*
X205603000Y-94862408D01*
X205603000Y-95137592D01*
X205656686Y-95407490D01*
X205761995Y-95661727D01*
X205914880Y-95890535D01*
X206109465Y-96085120D01*
X206338273Y-96238005D01*
X206592510Y-96343314D01*
X206862408Y-96397000D01*
X207137592Y-96397000D01*
X207407490Y-96343314D01*
X207661727Y-96238005D01*
X207890535Y-96085120D01*
X208085120Y-95890535D01*
X208238005Y-95661727D01*
X208343314Y-95407490D01*
X208397000Y-95137592D01*
X208397000Y-94862408D01*
X208343314Y-94592510D01*
X208238005Y-94338273D01*
X208085120Y-94109465D01*
X207890535Y-93914880D01*
X207661727Y-93761995D01*
X207407490Y-93656686D01*
X207137592Y-93603000D01*
X206862408Y-93603000D01*
X206592510Y-93656686D01*
X206338273Y-93761995D01*
X206109465Y-93914880D01*
X205914880Y-94109465D01*
X205761995Y-94338273D01*
X205656686Y-94592510D01*
X205603000Y-94862408D01*
X204397000Y-94862408D01*
X204343314Y-94592510D01*
X204238005Y-94338273D01*
X204085120Y-94109465D01*
X203890535Y-93914880D01*
X203661727Y-93761995D01*
X203407490Y-93656686D01*
X203137592Y-93603000D01*
X202862408Y-93603000D01*
X202592510Y-93656686D01*
X202338273Y-93761995D01*
X202109465Y-93914880D01*
X201914880Y-94109465D01*
X201761995Y-94338273D01*
X201656686Y-94592510D01*
X201603000Y-94862408D01*
X200397000Y-94862408D01*
X200343314Y-94592510D01*
X200238005Y-94338273D01*
X200085120Y-94109465D01*
X199890535Y-93914880D01*
X199661727Y-93761995D01*
X199407490Y-93656686D01*
X199137592Y-93603000D01*
X198862408Y-93603000D01*
X198592510Y-93656686D01*
X198338273Y-93761995D01*
X198109465Y-93914880D01*
X197914880Y-94109465D01*
X197761995Y-94338273D01*
X197656686Y-94592510D01*
X197603000Y-94862408D01*
X197603000Y-95137592D01*
X197656686Y-95407490D01*
X197657326Y-95409035D01*
X197507498Y-95346974D01*
X197307539Y-95307200D01*
X197103661Y-95307200D01*
X196903702Y-95346974D01*
X196715344Y-95424995D01*
X196545826Y-95538263D01*
X196401663Y-95682426D01*
X196288395Y-95851944D01*
X196210374Y-96040302D01*
X196170600Y-96240261D01*
X195656280Y-96240261D01*
X195661727Y-96238005D01*
X195890535Y-96085120D01*
X196085120Y-95890535D01*
X196238005Y-95661727D01*
X196343314Y-95407490D01*
X196397000Y-95137592D01*
X196397000Y-94862408D01*
X196343314Y-94592510D01*
X196238005Y-94338273D01*
X196085120Y-94109465D01*
X195890535Y-93914880D01*
X195661727Y-93761995D01*
X195407490Y-93656686D01*
X195137592Y-93603000D01*
X194862408Y-93603000D01*
X194592510Y-93656686D01*
X194338273Y-93761995D01*
X194109465Y-93914880D01*
X193914880Y-94109465D01*
X193761995Y-94338273D01*
X193656686Y-94592510D01*
X193603000Y-94862408D01*
X192397000Y-94862408D01*
X192343314Y-94592510D01*
X192238005Y-94338273D01*
X192085120Y-94109465D01*
X191890535Y-93914880D01*
X191661727Y-93761995D01*
X191407490Y-93656686D01*
X191137592Y-93603000D01*
X190862408Y-93603000D01*
X190592510Y-93656686D01*
X190338273Y-93761995D01*
X190109465Y-93914880D01*
X189914880Y-94109465D01*
X189761995Y-94338273D01*
X189656686Y-94592510D01*
X189603000Y-94862408D01*
X188397000Y-94862408D01*
X188343314Y-94592510D01*
X188238005Y-94338273D01*
X188085120Y-94109465D01*
X187890535Y-93914880D01*
X187661727Y-93761995D01*
X187407490Y-93656686D01*
X187137592Y-93603000D01*
X186862408Y-93603000D01*
X186592510Y-93656686D01*
X186338273Y-93761995D01*
X186109465Y-93914880D01*
X185914880Y-94109465D01*
X185761995Y-94338273D01*
X185656686Y-94592510D01*
X185603000Y-94862408D01*
X184397000Y-94862408D01*
X184343314Y-94592510D01*
X184238005Y-94338273D01*
X184085120Y-94109465D01*
X183890535Y-93914880D01*
X183661727Y-93761995D01*
X183407490Y-93656686D01*
X183137592Y-93603000D01*
X182862408Y-93603000D01*
X182592510Y-93656686D01*
X182338273Y-93761995D01*
X182109465Y-93914880D01*
X181914880Y-94109465D01*
X181761995Y-94338273D01*
X181656686Y-94592510D01*
X181603000Y-94862408D01*
X180397000Y-94862408D01*
X180343314Y-94592510D01*
X180238005Y-94338273D01*
X180085120Y-94109465D01*
X179890535Y-93914880D01*
X179661727Y-93761995D01*
X179407490Y-93656686D01*
X179137592Y-93603000D01*
X178862408Y-93603000D01*
X178592510Y-93656686D01*
X178338273Y-93761995D01*
X178109465Y-93914880D01*
X177914880Y-94109465D01*
X177761995Y-94338273D01*
X177656686Y-94592510D01*
X177603000Y-94862408D01*
X175146887Y-94862408D01*
X175202088Y-94807207D01*
X175512344Y-94342876D01*
X175726052Y-93826939D01*
X175835000Y-93279223D01*
X175835000Y-92720777D01*
X175726052Y-92173061D01*
X175512344Y-91657124D01*
X175202088Y-91192793D01*
X174807207Y-90797912D01*
X174600807Y-90660000D01*
X178584509Y-90660000D01*
X178338273Y-90761995D01*
G37*
X178338273Y-90761995D02*
X178109465Y-90914880D01*
X177914880Y-91109465D01*
X177761995Y-91338273D01*
X177656686Y-91592510D01*
X177603000Y-91862408D01*
X177603000Y-92137592D01*
X177656686Y-92407490D01*
X177761995Y-92661727D01*
X177914880Y-92890535D01*
X178109465Y-93085120D01*
X178338273Y-93238005D01*
X178592510Y-93343314D01*
X178862408Y-93397000D01*
X179137592Y-93397000D01*
X179407490Y-93343314D01*
X179661727Y-93238005D01*
X179890535Y-93085120D01*
X180085120Y-92890535D01*
X180238005Y-92661727D01*
X180343314Y-92407490D01*
X180397000Y-92137592D01*
X180397000Y-91862408D01*
X180343314Y-91592510D01*
X180238005Y-91338273D01*
X180085120Y-91109465D01*
X179890535Y-90914880D01*
X179661727Y-90761995D01*
X179415491Y-90660000D01*
X182584509Y-90660000D01*
X182338273Y-90761995D01*
X182109465Y-90914880D01*
X181914880Y-91109465D01*
X181761995Y-91338273D01*
X181656686Y-91592510D01*
X181603000Y-91862408D01*
X181603000Y-92137592D01*
X181656686Y-92407490D01*
X181761995Y-92661727D01*
X181914880Y-92890535D01*
X182109465Y-93085120D01*
X182338273Y-93238005D01*
X182592510Y-93343314D01*
X182862408Y-93397000D01*
X183137592Y-93397000D01*
X183407490Y-93343314D01*
X183661727Y-93238005D01*
X183890535Y-93085120D01*
X184085120Y-92890535D01*
X184238005Y-92661727D01*
X184343314Y-92407490D01*
X184397000Y-92137592D01*
X184397000Y-91862408D01*
X184343314Y-91592510D01*
X184238005Y-91338273D01*
X184085120Y-91109465D01*
X183890535Y-90914880D01*
X183661727Y-90761995D01*
X183415491Y-90660000D01*
X186584509Y-90660000D01*
X186338273Y-90761995D01*
X186109465Y-90914880D01*
X185914880Y-91109465D01*
X185761995Y-91338273D01*
X185656686Y-91592510D01*
X185603000Y-91862408D01*
X185603000Y-92137592D01*
X185656686Y-92407490D01*
X185761995Y-92661727D01*
X185914880Y-92890535D01*
X186109465Y-93085120D01*
X186338273Y-93238005D01*
X186592510Y-93343314D01*
X186862408Y-93397000D01*
X187137592Y-93397000D01*
X187407490Y-93343314D01*
X187661727Y-93238005D01*
X187890535Y-93085120D01*
X188085120Y-92890535D01*
X188238005Y-92661727D01*
X188343314Y-92407490D01*
X188397000Y-92137592D01*
X188397000Y-91862408D01*
X188343314Y-91592510D01*
X188238005Y-91338273D01*
X188085120Y-91109465D01*
X187890535Y-90914880D01*
X187661727Y-90761995D01*
X187415491Y-90660000D01*
X190584509Y-90660000D01*
X190338273Y-90761995D01*
X190109465Y-90914880D01*
X189914880Y-91109465D01*
X189761995Y-91338273D01*
X189656686Y-91592510D01*
X189603000Y-91862408D01*
X189603000Y-92137592D01*
X189656686Y-92407490D01*
X189761995Y-92661727D01*
X189914880Y-92890535D01*
X190109465Y-93085120D01*
X190338273Y-93238005D01*
X190592510Y-93343314D01*
X190862408Y-93397000D01*
X191137592Y-93397000D01*
X191407490Y-93343314D01*
X191661727Y-93238005D01*
X191890535Y-93085120D01*
X192085120Y-92890535D01*
X192238005Y-92661727D01*
X192343314Y-92407490D01*
X192397000Y-92137592D01*
X192397000Y-91862408D01*
X192343314Y-91592510D01*
X192238005Y-91338273D01*
X192085120Y-91109465D01*
X191890535Y-90914880D01*
X191661727Y-90761995D01*
X191415491Y-90660000D01*
X194584509Y-90660000D01*
X194338273Y-90761995D01*
X194109465Y-90914880D01*
X193914880Y-91109465D01*
X193761995Y-91338273D01*
X193656686Y-91592510D01*
X193603000Y-91862408D01*
X193603000Y-92137592D01*
X193656686Y-92407490D01*
X193761995Y-92661727D01*
X193914880Y-92890535D01*
X194109465Y-93085120D01*
X194338273Y-93238005D01*
X194592510Y-93343314D01*
X194862408Y-93397000D01*
X195137592Y-93397000D01*
X195407490Y-93343314D01*
X195661727Y-93238005D01*
X195890535Y-93085120D01*
X196085120Y-92890535D01*
X196238005Y-92661727D01*
X196343314Y-92407490D01*
X196397000Y-92137592D01*
X196397000Y-91862408D01*
X196343314Y-91592510D01*
X196238005Y-91338273D01*
X196085120Y-91109465D01*
X195890535Y-90914880D01*
X195661727Y-90761995D01*
X195415491Y-90660000D01*
X198584509Y-90660000D01*
X198338273Y-90761995D01*
X198109465Y-90914880D01*
X197914880Y-91109465D01*
X197761995Y-91338273D01*
X197656686Y-91592510D01*
X197603000Y-91862408D01*
X197603000Y-92137592D01*
X197656686Y-92407490D01*
X197761995Y-92661727D01*
X197914880Y-92890535D01*
X198109465Y-93085120D01*
X198338273Y-93238005D01*
X198592510Y-93343314D01*
X198862408Y-93397000D01*
X199137592Y-93397000D01*
X199407490Y-93343314D01*
X199661727Y-93238005D01*
X199890535Y-93085120D01*
X200085120Y-92890535D01*
X200238005Y-92661727D01*
X200343314Y-92407490D01*
X200397000Y-92137592D01*
X200397000Y-91862408D01*
X200343314Y-91592510D01*
X200238005Y-91338273D01*
X200085120Y-91109465D01*
X199890535Y-90914880D01*
X199661727Y-90761995D01*
X199415491Y-90660000D01*
X202584509Y-90660000D01*
X202338273Y-90761995D01*
X202109465Y-90914880D01*
X201914880Y-91109465D01*
X201761995Y-91338273D01*
X201656686Y-91592510D01*
X201603000Y-91862408D01*
X201603000Y-92137592D01*
X201656686Y-92407490D01*
X201761995Y-92661727D01*
X201914880Y-92890535D01*
X202109465Y-93085120D01*
X202338273Y-93238005D01*
X202592510Y-93343314D01*
X202862408Y-93397000D01*
X203137592Y-93397000D01*
X203407490Y-93343314D01*
X203661727Y-93238005D01*
X203890535Y-93085120D01*
X204085120Y-92890535D01*
X204238005Y-92661727D01*
X204343314Y-92407490D01*
X204397000Y-92137592D01*
X204397000Y-91862408D01*
X204343314Y-91592510D01*
X204238005Y-91338273D01*
X204085120Y-91109465D01*
X203890535Y-90914880D01*
X203661727Y-90761995D01*
X203415491Y-90660000D01*
X206584509Y-90660000D01*
X206338273Y-90761995D01*
X206109465Y-90914880D01*
X205914880Y-91109465D01*
X205761995Y-91338273D01*
X205656686Y-91592510D01*
X205603000Y-91862408D01*
X205603000Y-92137592D01*
X205656686Y-92407490D01*
X205761995Y-92661727D01*
X205914880Y-92890535D01*
X206109465Y-93085120D01*
X206338273Y-93238005D01*
X206592510Y-93343314D01*
X206862408Y-93397000D01*
X207137592Y-93397000D01*
X207407490Y-93343314D01*
X207661727Y-93238005D01*
X207890535Y-93085120D01*
X208085120Y-92890535D01*
X208238005Y-92661727D01*
X208343314Y-92407490D01*
X208397000Y-92137592D01*
X208397000Y-91862408D01*
X208343314Y-91592510D01*
X208238005Y-91338273D01*
X208085120Y-91109465D01*
X207890535Y-90914880D01*
X207661727Y-90761995D01*
X207415491Y-90660000D01*
X210399193Y-90660000D01*
X210192793Y-90797912D01*
X209797912Y-91192793D01*
X209487656Y-91657124D01*
X209273948Y-92173061D01*
X209165000Y-92720777D01*
X209165000Y-93279223D01*
X209273948Y-93826939D01*
X209487656Y-94342876D01*
X209797912Y-94807207D01*
X210192793Y-95202088D01*
X210657124Y-95512344D01*
X211173061Y-95726052D01*
X211720777Y-95835000D01*
X212279223Y-95835000D01*
X212826939Y-95726052D01*
X213342876Y-95512344D01*
X213807207Y-95202088D01*
X214202088Y-94807207D01*
X214340001Y-94600806D01*
X214340000Y-130399193D01*
X214202088Y-130192793D01*
X213807207Y-129797912D01*
X213342876Y-129487656D01*
X212826939Y-129273948D01*
X212279223Y-129165000D01*
X211720777Y-129165000D01*
X211173061Y-129273948D01*
X210657124Y-129487656D01*
X210192793Y-129797912D01*
X209797912Y-130192793D01*
X209487656Y-130657124D01*
X209273948Y-131173061D01*
X209165000Y-131720777D01*
X209165000Y-132279223D01*
X209273948Y-132826939D01*
X209487656Y-133342876D01*
X209797912Y-133807207D01*
X210192793Y-134202088D01*
X210399193Y-134340000D01*
X174600807Y-134340000D01*
X174807207Y-134202088D01*
X175202088Y-133807207D01*
X175512344Y-133342876D01*
X175700671Y-132888212D01*
X189865000Y-132888212D01*
X189865000Y-133111788D01*
X189908617Y-133331067D01*
X189994176Y-133537624D01*
X190118388Y-133723520D01*
X190276480Y-133881612D01*
X190462376Y-134005824D01*
X190668933Y-134091383D01*
X190888212Y-134135000D01*
X191111788Y-134135000D01*
X191331067Y-134091383D01*
X191537624Y-134005824D01*
X191723520Y-133881612D01*
X191881612Y-133723520D01*
X192005824Y-133537624D01*
X192091383Y-133331067D01*
X192135000Y-133111788D01*
X192135000Y-132888212D01*
X193865000Y-132888212D01*
X193865000Y-133111788D01*
X193908617Y-133331067D01*
X193994176Y-133537624D01*
X194118388Y-133723520D01*
X194276480Y-133881612D01*
X194462376Y-134005824D01*
X194668933Y-134091383D01*
X194888212Y-134135000D01*
X195111788Y-134135000D01*
X195331067Y-134091383D01*
X195537624Y-134005824D01*
X195723520Y-133881612D01*
X195881612Y-133723520D01*
X196005824Y-133537624D01*
X196091383Y-133331067D01*
X196135000Y-133111788D01*
X196135000Y-132888212D01*
X196091383Y-132668933D01*
X196005824Y-132462376D01*
X195881612Y-132276480D01*
X195723520Y-132118388D01*
X195537624Y-131994176D01*
X195331067Y-131908617D01*
X195111788Y-131865000D01*
X194888212Y-131865000D01*
X194668933Y-131908617D01*
X194462376Y-131994176D01*
X194276480Y-132118388D01*
X194118388Y-132276480D01*
X193994176Y-132462376D01*
X193908617Y-132668933D01*
X193865000Y-132888212D01*
X192135000Y-132888212D01*
X192091383Y-132668933D01*
X192005824Y-132462376D01*
X191881612Y-132276480D01*
X191723520Y-132118388D01*
X191537624Y-131994176D01*
X191331067Y-131908617D01*
X191111788Y-131865000D01*
X190888212Y-131865000D01*
X190668933Y-131908617D01*
X190462376Y-131994176D01*
X190276480Y-132118388D01*
X190118388Y-132276480D01*
X189994176Y-132462376D01*
X189908617Y-132668933D01*
X189865000Y-132888212D01*
X175700671Y-132888212D01*
X175726052Y-132826939D01*
X175835000Y-132279223D01*
X175835000Y-131720777D01*
X175726052Y-131173061D01*
X175512344Y-130657124D01*
X175202088Y-130192793D01*
X174807207Y-129797912D01*
X174342876Y-129487656D01*
X173826939Y-129273948D01*
X173279223Y-129165000D01*
X172720777Y-129165000D01*
X172173061Y-129273948D01*
X171657124Y-129487656D01*
X171192793Y-129797912D01*
X170797912Y-130192793D01*
X170660000Y-130399193D01*
X170660000Y-128888212D01*
X189865000Y-128888212D01*
X189865000Y-129111788D01*
X189908617Y-129331067D01*
X189994176Y-129537624D01*
X190118388Y-129723520D01*
X190276480Y-129881612D01*
X190462376Y-130005824D01*
X190668933Y-130091383D01*
X190888212Y-130135000D01*
X191111788Y-130135000D01*
X191331067Y-130091383D01*
X191537624Y-130005824D01*
X191723520Y-129881612D01*
X191881612Y-129723520D01*
X192005824Y-129537624D01*
X192091383Y-129331067D01*
X192135000Y-129111788D01*
X192135000Y-128888212D01*
X193865000Y-128888212D01*
X193865000Y-129111788D01*
X193908617Y-129331067D01*
X193994176Y-129537624D01*
X194118388Y-129723520D01*
X194276480Y-129881612D01*
X194462376Y-130005824D01*
X194668933Y-130091383D01*
X194888212Y-130135000D01*
X195111788Y-130135000D01*
X195331067Y-130091383D01*
X195537624Y-130005824D01*
X195706271Y-129893137D01*
X198715000Y-129893137D01*
X198715000Y-130106863D01*
X198756696Y-130316483D01*
X198838485Y-130513940D01*
X198957225Y-130691647D01*
X199108353Y-130842775D01*
X199286060Y-130961515D01*
X199483517Y-131043304D01*
X199693137Y-131085000D01*
X199906863Y-131085000D01*
X200116483Y-131043304D01*
X200313940Y-130961515D01*
X200491647Y-130842775D01*
X200642775Y-130691647D01*
X200761515Y-130513940D01*
X200843304Y-130316483D01*
X200885000Y-130106863D01*
X200885000Y-129893137D01*
X203115000Y-129893137D01*
X203115000Y-130106863D01*
X203156696Y-130316483D01*
X203238485Y-130513940D01*
X203357225Y-130691647D01*
X203508353Y-130842775D01*
X203686060Y-130961515D01*
X203883517Y-131043304D01*
X204093137Y-131085000D01*
X204306863Y-131085000D01*
X204516483Y-131043304D01*
X204713940Y-130961515D01*
X204891647Y-130842775D01*
X205042775Y-130691647D01*
X205161515Y-130513940D01*
X205243304Y-130316483D01*
X205285000Y-130106863D01*
X205285000Y-129893137D01*
X205243304Y-129683517D01*
X205161515Y-129486060D01*
X205042775Y-129308353D01*
X204891647Y-129157225D01*
X204713940Y-129038485D01*
X204516483Y-128956696D01*
X204306863Y-128915000D01*
X204093137Y-128915000D01*
X203883517Y-128956696D01*
X203686060Y-129038485D01*
X203508353Y-129157225D01*
X203357225Y-129308353D01*
X203238485Y-129486060D01*
X203156696Y-129683517D01*
X203115000Y-129893137D01*
X200885000Y-129893137D01*
X200843304Y-129683517D01*
X200761515Y-129486060D01*
X200642775Y-129308353D01*
X200491647Y-129157225D01*
X200313940Y-129038485D01*
X200116483Y-128956696D01*
X199906863Y-128915000D01*
X199693137Y-128915000D01*
X199483517Y-128956696D01*
X199286060Y-129038485D01*
X199108353Y-129157225D01*
X198957225Y-129308353D01*
X198838485Y-129486060D01*
X198756696Y-129683517D01*
X198715000Y-129893137D01*
X195706271Y-129893137D01*
X195723520Y-129881612D01*
X195881612Y-129723520D01*
X196005824Y-129537624D01*
X196091383Y-129331067D01*
X196135000Y-129111788D01*
X196135000Y-128888212D01*
X196091383Y-128668933D01*
X196005824Y-128462376D01*
X195881612Y-128276480D01*
X195723520Y-128118388D01*
X195537624Y-127994176D01*
X195331067Y-127908617D01*
X195111788Y-127865000D01*
X194888212Y-127865000D01*
X194668933Y-127908617D01*
X194462376Y-127994176D01*
X194276480Y-128118388D01*
X194118388Y-128276480D01*
X193994176Y-128462376D01*
X193908617Y-128668933D01*
X193865000Y-128888212D01*
X192135000Y-128888212D01*
X192091383Y-128668933D01*
X192005824Y-128462376D01*
X191881612Y-128276480D01*
X191723520Y-128118388D01*
X191537624Y-127994176D01*
X191331067Y-127908617D01*
X191111788Y-127865000D01*
X190888212Y-127865000D01*
X190668933Y-127908617D01*
X190462376Y-127994176D01*
X190276480Y-128118388D01*
X190118388Y-128276480D01*
X189994176Y-128462376D01*
X189908617Y-128668933D01*
X189865000Y-128888212D01*
X170660000Y-128888212D01*
X170660000Y-125888212D01*
X170865000Y-125888212D01*
X170865000Y-126111788D01*
X170908617Y-126331067D01*
X170994176Y-126537624D01*
X171118388Y-126723520D01*
X171276480Y-126881612D01*
X171462376Y-127005824D01*
X171668933Y-127091383D01*
X171888212Y-127135000D01*
X172111788Y-127135000D01*
X172331067Y-127091383D01*
X172537624Y-127005824D01*
X172723520Y-126881612D01*
X172881612Y-126723520D01*
X173005824Y-126537624D01*
X173091383Y-126331067D01*
X173135000Y-126111788D01*
X173135000Y-125888212D01*
X173865000Y-125888212D01*
X173865000Y-126111788D01*
X173908617Y-126331067D01*
X173994176Y-126537624D01*
X174118388Y-126723520D01*
X174276480Y-126881612D01*
X174462376Y-127005824D01*
X174668933Y-127091383D01*
X174888212Y-127135000D01*
X175111788Y-127135000D01*
X175331067Y-127091383D01*
X175537624Y-127005824D01*
X175723520Y-126881612D01*
X175881612Y-126723520D01*
X176005824Y-126537624D01*
X176091383Y-126331067D01*
X176135000Y-126111788D01*
X176135000Y-125888212D01*
X176091383Y-125668933D01*
X176005824Y-125462376D01*
X175881612Y-125276480D01*
X175723520Y-125118388D01*
X175537624Y-124994176D01*
X175331067Y-124908617D01*
X175228484Y-124888212D01*
X189865000Y-124888212D01*
X189865000Y-125111788D01*
X189908617Y-125331067D01*
X189994176Y-125537624D01*
X190118388Y-125723520D01*
X190276480Y-125881612D01*
X190462376Y-126005824D01*
X190668933Y-126091383D01*
X190888212Y-126135000D01*
X191111788Y-126135000D01*
X191331067Y-126091383D01*
X191537624Y-126005824D01*
X191723520Y-125881612D01*
X191881612Y-125723520D01*
X192005824Y-125537624D01*
X192091383Y-125331067D01*
X192135000Y-125111788D01*
X192135000Y-124888212D01*
X193865000Y-124888212D01*
X193865000Y-125111788D01*
X193908617Y-125331067D01*
X193994176Y-125537624D01*
X194118388Y-125723520D01*
X194276480Y-125881612D01*
X194462376Y-126005824D01*
X194668933Y-126091383D01*
X194888212Y-126135000D01*
X195111788Y-126135000D01*
X195331067Y-126091383D01*
X195537624Y-126005824D01*
X195723520Y-125881612D01*
X195881612Y-125723520D01*
X196005824Y-125537624D01*
X196091383Y-125331067D01*
X196135000Y-125111788D01*
X196135000Y-124888212D01*
X196091383Y-124668933D01*
X196005824Y-124462376D01*
X195881612Y-124276480D01*
X195723520Y-124118388D01*
X195537624Y-123994176D01*
X195331067Y-123908617D01*
X195111788Y-123865000D01*
X194888212Y-123865000D01*
X194668933Y-123908617D01*
X194462376Y-123994176D01*
X194276480Y-124118388D01*
X194118388Y-124276480D01*
X193994176Y-124462376D01*
X193908617Y-124668933D01*
X193865000Y-124888212D01*
X192135000Y-124888212D01*
X192091383Y-124668933D01*
X192005824Y-124462376D01*
X191881612Y-124276480D01*
X191723520Y-124118388D01*
X191537624Y-123994176D01*
X191331067Y-123908617D01*
X191111788Y-123865000D01*
X190888212Y-123865000D01*
X190668933Y-123908617D01*
X190462376Y-123994176D01*
X190276480Y-124118388D01*
X190118388Y-124276480D01*
X189994176Y-124462376D01*
X189908617Y-124668933D01*
X189865000Y-124888212D01*
X175228484Y-124888212D01*
X175111788Y-124865000D01*
X174888212Y-124865000D01*
X174668933Y-124908617D01*
X174462376Y-124994176D01*
X174276480Y-125118388D01*
X174118388Y-125276480D01*
X173994176Y-125462376D01*
X173908617Y-125668933D01*
X173865000Y-125888212D01*
X173135000Y-125888212D01*
X173091383Y-125668933D01*
X173005824Y-125462376D01*
X172881612Y-125276480D01*
X172723520Y-125118388D01*
X172537624Y-124994176D01*
X172331067Y-124908617D01*
X172111788Y-124865000D01*
X171888212Y-124865000D01*
X171668933Y-124908617D01*
X171462376Y-124994176D01*
X171276480Y-125118388D01*
X171118388Y-125276480D01*
X170994176Y-125462376D01*
X170908617Y-125668933D01*
X170865000Y-125888212D01*
X170660000Y-125888212D01*
X170660000Y-123169341D01*
X176236680Y-123169341D01*
X176236680Y-123373219D01*
X176276454Y-123573178D01*
X176354475Y-123761536D01*
X176467743Y-123931054D01*
X176611906Y-124075217D01*
X176781424Y-124188485D01*
X176969782Y-124266506D01*
X177169741Y-124306280D01*
X177373619Y-124306280D01*
X177573578Y-124266506D01*
X177761936Y-124188485D01*
X177931454Y-124075217D01*
X178075617Y-123931054D01*
X178188885Y-123761536D01*
X178266906Y-123573178D01*
X178306680Y-123373219D01*
X178306680Y-123169341D01*
X178282596Y-123048261D01*
X180889200Y-123048261D01*
X180889200Y-123252139D01*
X180928974Y-123452098D01*
X181006995Y-123640456D01*
X181120263Y-123809974D01*
X181264426Y-123954137D01*
X181433944Y-124067405D01*
X181622302Y-124145426D01*
X181822261Y-124185200D01*
X182026139Y-124185200D01*
X182226098Y-124145426D01*
X182414456Y-124067405D01*
X182513167Y-124001449D01*
X182565004Y-124036085D01*
X182753362Y-124114106D01*
X182953321Y-124153880D01*
X183157199Y-124153880D01*
X183357158Y-124114106D01*
X183545516Y-124036085D01*
X183715034Y-123922817D01*
X183859197Y-123778654D01*
X183972465Y-123609136D01*
X184050486Y-123420778D01*
X184087301Y-123235692D01*
X187475240Y-123235692D01*
X187475240Y-123459268D01*
X187518857Y-123678547D01*
X187604416Y-123885104D01*
X187728628Y-124071000D01*
X187886720Y-124229092D01*
X188072616Y-124353304D01*
X188279173Y-124438863D01*
X188498452Y-124482480D01*
X188722028Y-124482480D01*
X188941307Y-124438863D01*
X189147864Y-124353304D01*
X189333760Y-124229092D01*
X189491852Y-124071000D01*
X189616064Y-123885104D01*
X189701623Y-123678547D01*
X189745240Y-123459268D01*
X189745240Y-123235692D01*
X189701623Y-123016413D01*
X189648521Y-122888212D01*
X205865000Y-122888212D01*
X205865000Y-123111788D01*
X205908617Y-123331067D01*
X205994176Y-123537624D01*
X206118388Y-123723520D01*
X206276480Y-123881612D01*
X206462376Y-124005824D01*
X206668933Y-124091383D01*
X206888212Y-124135000D01*
X207111788Y-124135000D01*
X207331067Y-124091383D01*
X207537624Y-124005824D01*
X207723520Y-123881612D01*
X207881612Y-123723520D01*
X208005824Y-123537624D01*
X208091383Y-123331067D01*
X208135000Y-123111788D01*
X208135000Y-122888212D01*
X208865000Y-122888212D01*
X208865000Y-123111788D01*
X208908617Y-123331067D01*
X208994176Y-123537624D01*
X209118388Y-123723520D01*
X209276480Y-123881612D01*
X209462376Y-124005824D01*
X209668933Y-124091383D01*
X209888212Y-124135000D01*
X210111788Y-124135000D01*
X210287439Y-124100061D01*
X211664600Y-124100061D01*
X211664600Y-124303939D01*
X211704374Y-124503898D01*
X211782395Y-124692256D01*
X211895663Y-124861774D01*
X212039826Y-125005937D01*
X212209344Y-125119205D01*
X212397702Y-125197226D01*
X212597661Y-125237000D01*
X212801539Y-125237000D01*
X213001498Y-125197226D01*
X213189856Y-125119205D01*
X213359374Y-125005937D01*
X213503537Y-124861774D01*
X213616805Y-124692256D01*
X213694826Y-124503898D01*
X213734600Y-124303939D01*
X213734600Y-124100061D01*
X213694826Y-123900102D01*
X213616805Y-123711744D01*
X213503537Y-123542226D01*
X213359374Y-123398063D01*
X213189856Y-123284795D01*
X213001498Y-123206774D01*
X212801539Y-123167000D01*
X212597661Y-123167000D01*
X212397702Y-123206774D01*
X212209344Y-123284795D01*
X212039826Y-123398063D01*
X211895663Y-123542226D01*
X211782395Y-123711744D01*
X211704374Y-123900102D01*
X211664600Y-124100061D01*
X210287439Y-124100061D01*
X210331067Y-124091383D01*
X210537624Y-124005824D01*
X210723520Y-123881612D01*
X210881612Y-123723520D01*
X211005824Y-123537624D01*
X211091383Y-123331067D01*
X211135000Y-123111788D01*
X211135000Y-122888212D01*
X211091383Y-122668933D01*
X211005824Y-122462376D01*
X210881612Y-122276480D01*
X210723520Y-122118388D01*
X210537624Y-121994176D01*
X210331067Y-121908617D01*
X210111788Y-121865000D01*
X209888212Y-121865000D01*
X209668933Y-121908617D01*
X209462376Y-121994176D01*
X209276480Y-122118388D01*
X209118388Y-122276480D01*
X208994176Y-122462376D01*
X208908617Y-122668933D01*
X208865000Y-122888212D01*
X208135000Y-122888212D01*
X208091383Y-122668933D01*
X208005824Y-122462376D01*
X207881612Y-122276480D01*
X207723520Y-122118388D01*
X207537624Y-121994176D01*
X207331067Y-121908617D01*
X207111788Y-121865000D01*
X206888212Y-121865000D01*
X206668933Y-121908617D01*
X206462376Y-121994176D01*
X206276480Y-122118388D01*
X206118388Y-122276480D01*
X205994176Y-122462376D01*
X205908617Y-122668933D01*
X205865000Y-122888212D01*
X189648521Y-122888212D01*
X189616064Y-122809856D01*
X189491852Y-122623960D01*
X189333760Y-122465868D01*
X189147864Y-122341656D01*
X188941307Y-122256097D01*
X188722028Y-122212480D01*
X188498452Y-122212480D01*
X188279173Y-122256097D01*
X188072616Y-122341656D01*
X187886720Y-122465868D01*
X187728628Y-122623960D01*
X187604416Y-122809856D01*
X187518857Y-123016413D01*
X187475240Y-123235692D01*
X184087301Y-123235692D01*
X184090260Y-123220819D01*
X184090260Y-123016941D01*
X184050486Y-122816982D01*
X183972465Y-122628624D01*
X183859197Y-122459106D01*
X183715034Y-122314943D01*
X183545516Y-122201675D01*
X183357158Y-122123654D01*
X183157199Y-122083880D01*
X182953321Y-122083880D01*
X182753362Y-122123654D01*
X182565004Y-122201675D01*
X182466293Y-122267631D01*
X182414456Y-122232995D01*
X182226098Y-122154974D01*
X182026139Y-122115200D01*
X181822261Y-122115200D01*
X181622302Y-122154974D01*
X181433944Y-122232995D01*
X181264426Y-122346263D01*
X181120263Y-122490426D01*
X181006995Y-122659944D01*
X180928974Y-122848302D01*
X180889200Y-123048261D01*
X178282596Y-123048261D01*
X178266906Y-122969382D01*
X178188885Y-122781024D01*
X178075617Y-122611506D01*
X177931454Y-122467343D01*
X177761936Y-122354075D01*
X177573578Y-122276054D01*
X177373619Y-122236280D01*
X177169741Y-122236280D01*
X176969782Y-122276054D01*
X176781424Y-122354075D01*
X176611906Y-122467343D01*
X176467743Y-122611506D01*
X176354475Y-122781024D01*
X176276454Y-122969382D01*
X176236680Y-123169341D01*
X170660000Y-123169341D01*
X170660000Y-121909812D01*
X171051600Y-121909812D01*
X171051600Y-122133388D01*
X171095217Y-122352667D01*
X171180776Y-122559224D01*
X171304988Y-122745120D01*
X171463080Y-122903212D01*
X171648976Y-123027424D01*
X171855533Y-123112983D01*
X172074812Y-123156600D01*
X172298388Y-123156600D01*
X172517667Y-123112983D01*
X172724224Y-123027424D01*
X172910120Y-122903212D01*
X173068212Y-122745120D01*
X173192424Y-122559224D01*
X173277983Y-122352667D01*
X173321600Y-122133388D01*
X173321600Y-121909812D01*
X173317304Y-121888212D01*
X173865000Y-121888212D01*
X173865000Y-122111788D01*
X173908617Y-122331067D01*
X173994176Y-122537624D01*
X174118388Y-122723520D01*
X174276480Y-122881612D01*
X174462376Y-123005824D01*
X174668933Y-123091383D01*
X174888212Y-123135000D01*
X175111788Y-123135000D01*
X175331067Y-123091383D01*
X175537624Y-123005824D01*
X175723520Y-122881612D01*
X175881612Y-122723520D01*
X176005824Y-122537624D01*
X176091383Y-122331067D01*
X176135000Y-122111788D01*
X176135000Y-121888212D01*
X176091383Y-121668933D01*
X176005824Y-121462376D01*
X175881612Y-121276480D01*
X175723520Y-121118388D01*
X175537624Y-120994176D01*
X175331067Y-120908617D01*
X175111788Y-120865000D01*
X174888212Y-120865000D01*
X174668933Y-120908617D01*
X174462376Y-120994176D01*
X174276480Y-121118388D01*
X174118388Y-121276480D01*
X173994176Y-121462376D01*
X173908617Y-121668933D01*
X173865000Y-121888212D01*
X173317304Y-121888212D01*
X173277983Y-121690533D01*
X173192424Y-121483976D01*
X173068212Y-121298080D01*
X172910120Y-121139988D01*
X172724224Y-121015776D01*
X172517667Y-120930217D01*
X172298388Y-120886600D01*
X172074812Y-120886600D01*
X171855533Y-120930217D01*
X171648976Y-121015776D01*
X171463080Y-121139988D01*
X171304988Y-121298080D01*
X171180776Y-121483976D01*
X171095217Y-121690533D01*
X171051600Y-121909812D01*
X170660000Y-121909812D01*
X170660000Y-120439940D01*
X183098661Y-120439940D01*
X183098661Y-120643818D01*
X183138435Y-120843777D01*
X183216456Y-121032135D01*
X183329724Y-121201653D01*
X183473887Y-121345816D01*
X183643405Y-121459084D01*
X183831763Y-121537105D01*
X183843257Y-121539391D01*
X183845543Y-121550885D01*
X183923564Y-121739243D01*
X184036832Y-121908761D01*
X184180995Y-122052924D01*
X184350513Y-122166192D01*
X184538871Y-122244213D01*
X184738830Y-122283987D01*
X184942708Y-122283987D01*
X185142667Y-122244213D01*
X185331025Y-122166192D01*
X185500543Y-122052924D01*
X185644706Y-121908761D01*
X185757974Y-121739243D01*
X185835995Y-121550885D01*
X185875769Y-121350926D01*
X185875769Y-121147048D01*
X185835995Y-120947089D01*
X185757974Y-120758731D01*
X185644706Y-120589213D01*
X185500543Y-120445050D01*
X185331025Y-120331782D01*
X185142667Y-120253761D01*
X185131173Y-120251475D01*
X185128887Y-120239981D01*
X185050866Y-120051623D01*
X184937598Y-119882105D01*
X184793435Y-119737942D01*
X184623917Y-119624674D01*
X184435559Y-119546653D01*
X184235600Y-119506879D01*
X184031722Y-119506879D01*
X183831763Y-119546653D01*
X183643405Y-119624674D01*
X183473887Y-119737942D01*
X183329724Y-119882105D01*
X183216456Y-120051623D01*
X183138435Y-120239981D01*
X183098661Y-120439940D01*
X170660000Y-120439940D01*
X170660000Y-118165852D01*
X171117640Y-118165852D01*
X171117640Y-118389428D01*
X171161257Y-118608707D01*
X171246816Y-118815264D01*
X171371028Y-119001160D01*
X171529120Y-119159252D01*
X171715016Y-119283464D01*
X171921573Y-119369023D01*
X172140852Y-119412640D01*
X172364428Y-119412640D01*
X172583707Y-119369023D01*
X172790264Y-119283464D01*
X172976160Y-119159252D01*
X173134252Y-119001160D01*
X173258464Y-118815264D01*
X173344023Y-118608707D01*
X173387640Y-118389428D01*
X173387640Y-118165852D01*
X173344023Y-117946573D01*
X173258464Y-117740016D01*
X173240156Y-117712616D01*
X197203208Y-117712616D01*
X197203208Y-117916494D01*
X197242982Y-118116453D01*
X197321003Y-118304811D01*
X197434271Y-118474329D01*
X197578434Y-118618492D01*
X197747952Y-118731760D01*
X197936310Y-118809781D01*
X197947803Y-118812067D01*
X197950089Y-118823561D01*
X198028110Y-119011919D01*
X198141378Y-119181437D01*
X198285541Y-119325600D01*
X198455059Y-119438868D01*
X198643417Y-119516889D01*
X198843376Y-119556663D01*
X199047254Y-119556663D01*
X199247213Y-119516889D01*
X199435571Y-119438868D01*
X199605089Y-119325600D01*
X199749252Y-119181437D01*
X199862520Y-119011919D01*
X199940541Y-118823561D01*
X199980315Y-118623602D01*
X199980315Y-118419724D01*
X199940541Y-118219765D01*
X199862520Y-118031407D01*
X199749252Y-117861889D01*
X199605089Y-117717726D01*
X199534488Y-117670552D01*
X204963140Y-117670552D01*
X204963140Y-117894128D01*
X205006757Y-118113407D01*
X205092316Y-118319964D01*
X205216528Y-118505860D01*
X205374620Y-118663952D01*
X205560516Y-118788164D01*
X205767073Y-118873723D01*
X205986352Y-118917340D01*
X206209928Y-118917340D01*
X206429207Y-118873723D01*
X206635764Y-118788164D01*
X206821660Y-118663952D01*
X206979752Y-118505860D01*
X207103964Y-118319964D01*
X207189523Y-118113407D01*
X207233140Y-117894128D01*
X207233140Y-117670552D01*
X207189523Y-117451273D01*
X207103964Y-117244716D01*
X206979752Y-117058820D01*
X206821660Y-116900728D01*
X206635764Y-116776516D01*
X206429207Y-116690957D01*
X206209928Y-116647340D01*
X205986352Y-116647340D01*
X205767073Y-116690957D01*
X205560516Y-116776516D01*
X205374620Y-116900728D01*
X205216528Y-117058820D01*
X205092316Y-117244716D01*
X205006757Y-117451273D01*
X204963140Y-117670552D01*
X199534488Y-117670552D01*
X199435571Y-117604458D01*
X199247213Y-117526437D01*
X199235720Y-117524151D01*
X199233434Y-117512657D01*
X199155413Y-117324299D01*
X199042145Y-117154781D01*
X198897982Y-117010618D01*
X198728464Y-116897350D01*
X198540106Y-116819329D01*
X198340147Y-116779555D01*
X198136269Y-116779555D01*
X197936310Y-116819329D01*
X197747952Y-116897350D01*
X197578434Y-117010618D01*
X197434271Y-117154781D01*
X197321003Y-117324299D01*
X197242982Y-117512657D01*
X197203208Y-117712616D01*
X173240156Y-117712616D01*
X173134252Y-117554120D01*
X172976160Y-117396028D01*
X172790264Y-117271816D01*
X172583707Y-117186257D01*
X172364428Y-117142640D01*
X172140852Y-117142640D01*
X171921573Y-117186257D01*
X171715016Y-117271816D01*
X171529120Y-117396028D01*
X171371028Y-117554120D01*
X171246816Y-117740016D01*
X171161257Y-117946573D01*
X171117640Y-118165852D01*
X170660000Y-118165852D01*
X170660000Y-115606463D01*
X170767102Y-115650826D01*
X170967061Y-115690600D01*
X171170939Y-115690600D01*
X171370898Y-115650826D01*
X171559256Y-115572805D01*
X171728774Y-115459537D01*
X171819111Y-115369200D01*
X174500000Y-115369200D01*
X174524776Y-115366760D01*
X174548601Y-115359533D01*
X174570557Y-115347797D01*
X174589803Y-115332003D01*
X174605597Y-115312757D01*
X174617333Y-115290801D01*
X174624560Y-115266976D01*
X174627000Y-115242200D01*
X174627000Y-112888212D01*
X183865000Y-112888212D01*
X183865000Y-113111788D01*
X183908617Y-113331067D01*
X183994176Y-113537624D01*
X184118388Y-113723520D01*
X184276480Y-113881612D01*
X184462376Y-114005824D01*
X184668933Y-114091383D01*
X184888212Y-114135000D01*
X185111788Y-114135000D01*
X185331067Y-114091383D01*
X185537624Y-114005824D01*
X185723520Y-113881612D01*
X185881612Y-113723520D01*
X186005824Y-113537624D01*
X186091383Y-113331067D01*
X186135000Y-113111788D01*
X186135000Y-112888212D01*
X186091383Y-112668933D01*
X186005824Y-112462376D01*
X185881612Y-112276480D01*
X185723520Y-112118388D01*
X185537624Y-111994176D01*
X185331067Y-111908617D01*
X185228484Y-111888212D01*
X200865000Y-111888212D01*
X200865000Y-112111788D01*
X200908617Y-112331067D01*
X200994176Y-112537624D01*
X201118388Y-112723520D01*
X201276480Y-112881612D01*
X201462376Y-113005824D01*
X201668933Y-113091383D01*
X201888212Y-113135000D01*
X202111788Y-113135000D01*
X202331067Y-113091383D01*
X202537624Y-113005824D01*
X202723520Y-112881612D01*
X202881612Y-112723520D01*
X203005824Y-112537624D01*
X203091383Y-112331067D01*
X203135000Y-112111788D01*
X203135000Y-111888212D01*
X203091383Y-111668933D01*
X203072279Y-111622812D01*
X209812000Y-111622812D01*
X209812000Y-111846388D01*
X209855617Y-112065667D01*
X209941176Y-112272224D01*
X210065388Y-112458120D01*
X210223480Y-112616212D01*
X210409376Y-112740424D01*
X210615933Y-112825983D01*
X210835212Y-112869600D01*
X211058788Y-112869600D01*
X211278067Y-112825983D01*
X211484624Y-112740424D01*
X211670520Y-112616212D01*
X211828612Y-112458120D01*
X211952824Y-112272224D01*
X212038383Y-112065667D01*
X212082000Y-111846388D01*
X212082000Y-111622812D01*
X212038383Y-111403533D01*
X211952824Y-111196976D01*
X211828612Y-111011080D01*
X211670520Y-110852988D01*
X211484624Y-110728776D01*
X211278067Y-110643217D01*
X211058788Y-110599600D01*
X210835212Y-110599600D01*
X210615933Y-110643217D01*
X210409376Y-110728776D01*
X210223480Y-110852988D01*
X210065388Y-111011080D01*
X209941176Y-111196976D01*
X209855617Y-111403533D01*
X209812000Y-111622812D01*
X203072279Y-111622812D01*
X203005824Y-111462376D01*
X202881612Y-111276480D01*
X202723520Y-111118388D01*
X202537624Y-110994176D01*
X202331067Y-110908617D01*
X202111788Y-110865000D01*
X201888212Y-110865000D01*
X201668933Y-110908617D01*
X201462376Y-110994176D01*
X201276480Y-111118388D01*
X201118388Y-111276480D01*
X200994176Y-111462376D01*
X200908617Y-111668933D01*
X200865000Y-111888212D01*
X185228484Y-111888212D01*
X185111788Y-111865000D01*
X184888212Y-111865000D01*
X184668933Y-111908617D01*
X184462376Y-111994176D01*
X184276480Y-112118388D01*
X184118388Y-112276480D01*
X183994176Y-112462376D01*
X183908617Y-112668933D01*
X183865000Y-112888212D01*
X174627000Y-112888212D01*
X174627000Y-112119200D01*
X177750000Y-112119200D01*
X177774776Y-112116760D01*
X177798601Y-112109533D01*
X177820557Y-112097797D01*
X177839803Y-112082003D01*
X177855597Y-112062757D01*
X177867333Y-112040801D01*
X177874560Y-112016976D01*
X177877000Y-111992200D01*
X177877000Y-110742200D01*
X177874560Y-110717424D01*
X177867333Y-110693599D01*
X177855597Y-110671643D01*
X177839803Y-110652397D01*
X177820557Y-110636603D01*
X177798601Y-110624867D01*
X177774776Y-110617640D01*
X177750000Y-110615200D01*
X174627000Y-110615200D01*
X174627000Y-110391332D01*
X174744612Y-110273720D01*
X174868824Y-110087824D01*
X174954383Y-109881267D01*
X174998000Y-109661988D01*
X174998000Y-109490412D01*
X179358142Y-109490412D01*
X179358142Y-109713988D01*
X179401759Y-109933267D01*
X179487318Y-110139824D01*
X179611530Y-110325720D01*
X179769622Y-110483812D01*
X179955518Y-110608024D01*
X180162075Y-110693583D01*
X180381354Y-110737200D01*
X180604930Y-110737200D01*
X180824209Y-110693583D01*
X181030766Y-110608024D01*
X181216662Y-110483812D01*
X181374754Y-110325720D01*
X181498966Y-110139824D01*
X181584525Y-109933267D01*
X181628142Y-109713988D01*
X181628142Y-109490412D01*
X182262800Y-109490412D01*
X182262800Y-109713988D01*
X182306417Y-109933267D01*
X182391976Y-110139824D01*
X182516188Y-110325720D01*
X182674280Y-110483812D01*
X182860176Y-110608024D01*
X183066733Y-110693583D01*
X183286012Y-110737200D01*
X183509588Y-110737200D01*
X183728867Y-110693583D01*
X183935424Y-110608024D01*
X184121320Y-110483812D01*
X184279412Y-110325720D01*
X184397800Y-110148540D01*
X184516188Y-110325720D01*
X184674280Y-110483812D01*
X184860176Y-110608024D01*
X185066733Y-110693583D01*
X185286012Y-110737200D01*
X185509588Y-110737200D01*
X185728867Y-110693583D01*
X185935424Y-110608024D01*
X186121320Y-110483812D01*
X186279412Y-110325720D01*
X186403624Y-110139824D01*
X186489183Y-109933267D01*
X186498144Y-109888212D01*
X197865000Y-109888212D01*
X197865000Y-110111788D01*
X197908617Y-110331067D01*
X197994176Y-110537624D01*
X198118388Y-110723520D01*
X198276480Y-110881612D01*
X198462376Y-111005824D01*
X198668933Y-111091383D01*
X198888212Y-111135000D01*
X199111788Y-111135000D01*
X199331067Y-111091383D01*
X199537624Y-111005824D01*
X199723520Y-110881612D01*
X199881612Y-110723520D01*
X200005824Y-110537624D01*
X200091383Y-110331067D01*
X200135000Y-110111788D01*
X200135000Y-109888212D01*
X202865000Y-109888212D01*
X202865000Y-110111788D01*
X202908617Y-110331067D01*
X202994176Y-110537624D01*
X203118388Y-110723520D01*
X203276480Y-110881612D01*
X203462376Y-111005824D01*
X203668933Y-111091383D01*
X203888212Y-111135000D01*
X204111788Y-111135000D01*
X204331067Y-111091383D01*
X204537624Y-111005824D01*
X204723520Y-110881612D01*
X204881612Y-110723520D01*
X205005824Y-110537624D01*
X205091383Y-110331067D01*
X205095203Y-110311861D01*
X205263700Y-110311861D01*
X205263700Y-110515739D01*
X205303474Y-110715698D01*
X205381495Y-110904056D01*
X205494763Y-111073574D01*
X205638926Y-111217737D01*
X205808444Y-111331005D01*
X205996802Y-111409026D01*
X206196761Y-111448800D01*
X206400639Y-111448800D01*
X206600598Y-111409026D01*
X206788956Y-111331005D01*
X206958474Y-111217737D01*
X207102637Y-111073574D01*
X207215905Y-110904056D01*
X207293926Y-110715698D01*
X207333700Y-110515739D01*
X207333700Y-110311861D01*
X207293926Y-110111902D01*
X207215905Y-109923544D01*
X207102637Y-109754026D01*
X206958474Y-109609863D01*
X206788956Y-109496595D01*
X206600598Y-109418574D01*
X206400639Y-109378800D01*
X206196761Y-109378800D01*
X205996802Y-109418574D01*
X205808444Y-109496595D01*
X205638926Y-109609863D01*
X205494763Y-109754026D01*
X205381495Y-109923544D01*
X205303474Y-110111902D01*
X205263700Y-110311861D01*
X205095203Y-110311861D01*
X205135000Y-110111788D01*
X205135000Y-109888212D01*
X205091383Y-109668933D01*
X205005824Y-109462376D01*
X204881612Y-109276480D01*
X204723520Y-109118388D01*
X204537624Y-108994176D01*
X204331067Y-108908617D01*
X204111788Y-108865000D01*
X203888212Y-108865000D01*
X203668933Y-108908617D01*
X203462376Y-108994176D01*
X203276480Y-109118388D01*
X203118388Y-109276480D01*
X202994176Y-109462376D01*
X202908617Y-109668933D01*
X202865000Y-109888212D01*
X200135000Y-109888212D01*
X200091383Y-109668933D01*
X200005824Y-109462376D01*
X199881612Y-109276480D01*
X199723520Y-109118388D01*
X199537624Y-108994176D01*
X199331067Y-108908617D01*
X199111788Y-108865000D01*
X198888212Y-108865000D01*
X198668933Y-108908617D01*
X198462376Y-108994176D01*
X198276480Y-109118388D01*
X198118388Y-109276480D01*
X197994176Y-109462376D01*
X197908617Y-109668933D01*
X197865000Y-109888212D01*
X186498144Y-109888212D01*
X186532800Y-109713988D01*
X186532800Y-109490412D01*
X186489183Y-109271133D01*
X186403624Y-109064576D01*
X186279412Y-108878680D01*
X186121320Y-108720588D01*
X185935424Y-108596376D01*
X185728867Y-108510817D01*
X185509588Y-108467200D01*
X185286012Y-108467200D01*
X185066733Y-108510817D01*
X184860176Y-108596376D01*
X184674280Y-108720588D01*
X184516188Y-108878680D01*
X184397800Y-109055860D01*
X184279412Y-108878680D01*
X184121320Y-108720588D01*
X183935424Y-108596376D01*
X183728867Y-108510817D01*
X183509588Y-108467200D01*
X183286012Y-108467200D01*
X183066733Y-108510817D01*
X182860176Y-108596376D01*
X182674280Y-108720588D01*
X182516188Y-108878680D01*
X182391976Y-109064576D01*
X182306417Y-109271133D01*
X182262800Y-109490412D01*
X181628142Y-109490412D01*
X181584525Y-109271133D01*
X181498966Y-109064576D01*
X181374754Y-108878680D01*
X181216662Y-108720588D01*
X181030766Y-108596376D01*
X180824209Y-108510817D01*
X180604930Y-108467200D01*
X180381354Y-108467200D01*
X180162075Y-108510817D01*
X179955518Y-108596376D01*
X179769622Y-108720588D01*
X179611530Y-108878680D01*
X179487318Y-109064576D01*
X179401759Y-109271133D01*
X179358142Y-109490412D01*
X174998000Y-109490412D01*
X174998000Y-109438412D01*
X174954383Y-109219133D01*
X174868824Y-109012576D01*
X174744612Y-108826680D01*
X174619859Y-108701927D01*
X174617333Y-108693599D01*
X174605597Y-108671643D01*
X174589803Y-108652397D01*
X174570557Y-108636603D01*
X174548601Y-108624867D01*
X174524776Y-108617640D01*
X174507764Y-108615965D01*
X174400624Y-108544376D01*
X174194067Y-108458817D01*
X173974788Y-108415200D01*
X173751212Y-108415200D01*
X173531933Y-108458817D01*
X173325376Y-108544376D01*
X173219381Y-108615200D01*
X170660000Y-108615200D01*
X170660000Y-107888212D01*
X199865000Y-107888212D01*
X199865000Y-108111788D01*
X199908617Y-108331067D01*
X199994176Y-108537624D01*
X200118388Y-108723520D01*
X200276480Y-108881612D01*
X200462376Y-109005824D01*
X200668933Y-109091383D01*
X200888212Y-109135000D01*
X201111788Y-109135000D01*
X201331067Y-109091383D01*
X201537624Y-109005824D01*
X201723520Y-108881612D01*
X201881612Y-108723520D01*
X202005824Y-108537624D01*
X202091383Y-108331067D01*
X202135000Y-108111788D01*
X202135000Y-107888212D01*
X202091383Y-107668933D01*
X202005824Y-107462376D01*
X201881612Y-107276480D01*
X201723520Y-107118388D01*
X201537624Y-106994176D01*
X201331067Y-106908617D01*
X201111788Y-106865000D01*
X200888212Y-106865000D01*
X200668933Y-106908617D01*
X200462376Y-106994176D01*
X200276480Y-107118388D01*
X200118388Y-107276480D01*
X199994176Y-107462376D01*
X199908617Y-107668933D01*
X199865000Y-107888212D01*
X170660000Y-107888212D01*
X170660000Y-105888212D01*
X170865000Y-105888212D01*
X170865000Y-106111788D01*
X170908617Y-106331067D01*
X170994176Y-106537624D01*
X171118388Y-106723520D01*
X171276480Y-106881612D01*
X171462376Y-107005824D01*
X171668933Y-107091383D01*
X171888212Y-107135000D01*
X172111788Y-107135000D01*
X172331067Y-107091383D01*
X172537624Y-107005824D01*
X172723520Y-106881612D01*
X172881612Y-106723520D01*
X173005824Y-106537624D01*
X173091383Y-106331067D01*
X173135000Y-106111788D01*
X173135000Y-106058198D01*
X191510774Y-106058198D01*
X191510774Y-106281774D01*
X191554391Y-106501053D01*
X191639950Y-106707610D01*
X191764162Y-106893506D01*
X191922254Y-107051598D01*
X192108150Y-107175810D01*
X192314707Y-107261369D01*
X192533986Y-107304986D01*
X192757562Y-107304986D01*
X192976841Y-107261369D01*
X193183398Y-107175810D01*
X193369294Y-107051598D01*
X193527386Y-106893506D01*
X193651598Y-106707610D01*
X193737157Y-106501053D01*
X193780774Y-106281774D01*
X193780774Y-106058198D01*
X193746962Y-105888212D01*
X201865000Y-105888212D01*
X201865000Y-106111788D01*
X201908617Y-106331067D01*
X201994176Y-106537624D01*
X202118388Y-106723520D01*
X202276480Y-106881612D01*
X202462376Y-107005824D01*
X202668933Y-107091383D01*
X202888212Y-107135000D01*
X203111788Y-107135000D01*
X203331067Y-107091383D01*
X203537624Y-107005824D01*
X203723520Y-106881612D01*
X203881612Y-106723520D01*
X204005824Y-106537624D01*
X204091383Y-106331067D01*
X204135000Y-106111788D01*
X204135000Y-105888212D01*
X204091383Y-105668933D01*
X204005824Y-105462376D01*
X203881612Y-105276480D01*
X203723520Y-105118388D01*
X203537624Y-104994176D01*
X203331067Y-104908617D01*
X203111788Y-104865000D01*
X202888212Y-104865000D01*
X202668933Y-104908617D01*
X202462376Y-104994176D01*
X202276480Y-105118388D01*
X202118388Y-105276480D01*
X201994176Y-105462376D01*
X201908617Y-105668933D01*
X201865000Y-105888212D01*
X193746962Y-105888212D01*
X193737157Y-105838919D01*
X193651598Y-105632362D01*
X193527386Y-105446466D01*
X193369294Y-105288374D01*
X193183398Y-105164162D01*
X192976841Y-105078603D01*
X192757562Y-105034986D01*
X192533986Y-105034986D01*
X192314707Y-105078603D01*
X192108150Y-105164162D01*
X191922254Y-105288374D01*
X191764162Y-105446466D01*
X191639950Y-105632362D01*
X191554391Y-105838919D01*
X191510774Y-106058198D01*
X173135000Y-106058198D01*
X173135000Y-105888212D01*
X173091383Y-105668933D01*
X173005824Y-105462376D01*
X172881612Y-105276480D01*
X172723520Y-105118388D01*
X172537624Y-104994176D01*
X172331067Y-104908617D01*
X172111788Y-104865000D01*
X171888212Y-104865000D01*
X171668933Y-104908617D01*
X171462376Y-104994176D01*
X171276480Y-105118388D01*
X171118388Y-105276480D01*
X170994176Y-105462376D01*
X170908617Y-105668933D01*
X170865000Y-105888212D01*
X170660000Y-105888212D01*
X170660000Y-104590392D01*
X181999718Y-104590392D01*
X181999718Y-104813968D01*
X182043335Y-105033247D01*
X182128894Y-105239804D01*
X182253106Y-105425700D01*
X182411198Y-105583792D01*
X182597094Y-105708004D01*
X182803651Y-105793563D01*
X183022930Y-105837180D01*
X183246506Y-105837180D01*
X183465785Y-105793563D01*
X183672342Y-105708004D01*
X183858238Y-105583792D01*
X184016330Y-105425700D01*
X184140542Y-105239804D01*
X184226101Y-105033247D01*
X184269718Y-104813968D01*
X184269718Y-104590392D01*
X184226101Y-104371113D01*
X184140542Y-104164556D01*
X184016330Y-103978660D01*
X183858238Y-103820568D01*
X183672342Y-103696356D01*
X183465785Y-103610797D01*
X183246506Y-103567180D01*
X183022930Y-103567180D01*
X182803651Y-103610797D01*
X182597094Y-103696356D01*
X182411198Y-103820568D01*
X182253106Y-103978660D01*
X182128894Y-104164556D01*
X182043335Y-104371113D01*
X181999718Y-104590392D01*
X170660000Y-104590392D01*
X170660000Y-101888212D01*
X170865000Y-101888212D01*
X170865000Y-102111788D01*
X170908617Y-102331067D01*
X170994176Y-102537624D01*
X171118388Y-102723520D01*
X171276480Y-102881612D01*
X171462376Y-103005824D01*
X171668933Y-103091383D01*
X171888212Y-103135000D01*
X172111788Y-103135000D01*
X172331067Y-103091383D01*
X172537624Y-103005824D01*
X172723520Y-102881612D01*
X172881612Y-102723520D01*
X173005824Y-102537624D01*
X173091383Y-102331067D01*
X173135000Y-102111788D01*
X173135000Y-101888212D01*
X173865000Y-101888212D01*
X173865000Y-102111788D01*
X173908617Y-102331067D01*
X173994176Y-102537624D01*
X174118388Y-102723520D01*
X174276480Y-102881612D01*
X174462376Y-103005824D01*
X174668933Y-103091383D01*
X174888212Y-103135000D01*
X175111788Y-103135000D01*
X175331067Y-103091383D01*
X175537624Y-103005824D01*
X175723520Y-102881612D01*
X175881612Y-102723520D01*
X176005824Y-102537624D01*
X176091383Y-102331067D01*
X176135000Y-102111788D01*
X176135000Y-101888212D01*
X176865000Y-101888212D01*
X176865000Y-102111788D01*
X176908617Y-102331067D01*
X176994176Y-102537624D01*
X177118388Y-102723520D01*
X177276480Y-102881612D01*
X177462376Y-103005824D01*
X177668933Y-103091383D01*
X177888212Y-103135000D01*
X178111788Y-103135000D01*
X178331067Y-103091383D01*
X178537624Y-103005824D01*
X178723520Y-102881612D01*
X178881612Y-102723520D01*
X179005824Y-102537624D01*
X179091383Y-102331067D01*
X179135000Y-102111788D01*
X179135000Y-101888212D01*
X179865000Y-101888212D01*
X179865000Y-102111788D01*
X179908617Y-102331067D01*
X179994176Y-102537624D01*
X180118388Y-102723520D01*
X180276480Y-102881612D01*
X180462376Y-103005824D01*
X180668933Y-103091383D01*
X180888212Y-103135000D01*
X181111788Y-103135000D01*
X181331067Y-103091383D01*
X181537624Y-103005824D01*
X181723520Y-102881612D01*
X181881612Y-102723520D01*
X182005824Y-102537624D01*
X182091383Y-102331067D01*
X182135000Y-102111788D01*
X182135000Y-101888212D01*
X182091383Y-101668933D01*
X182005824Y-101462376D01*
X181881612Y-101276480D01*
X181723520Y-101118388D01*
X181537624Y-100994176D01*
X181331067Y-100908617D01*
X181111788Y-100865000D01*
X180888212Y-100865000D01*
X180668933Y-100908617D01*
X180462376Y-100994176D01*
X180276480Y-101118388D01*
X180118388Y-101276480D01*
X179994176Y-101462376D01*
X179908617Y-101668933D01*
X179865000Y-101888212D01*
X179135000Y-101888212D01*
X179091383Y-101668933D01*
X179005824Y-101462376D01*
X178881612Y-101276480D01*
X178723520Y-101118388D01*
X178537624Y-100994176D01*
X178331067Y-100908617D01*
X178111788Y-100865000D01*
X177888212Y-100865000D01*
X177668933Y-100908617D01*
X177462376Y-100994176D01*
X177276480Y-101118388D01*
X177118388Y-101276480D01*
X176994176Y-101462376D01*
X176908617Y-101668933D01*
X176865000Y-101888212D01*
X176135000Y-101888212D01*
X176091383Y-101668933D01*
X176005824Y-101462376D01*
X175881612Y-101276480D01*
X175723520Y-101118388D01*
X175537624Y-100994176D01*
X175331067Y-100908617D01*
X175111788Y-100865000D01*
X174888212Y-100865000D01*
X174668933Y-100908617D01*
X174462376Y-100994176D01*
X174276480Y-101118388D01*
X174118388Y-101276480D01*
X173994176Y-101462376D01*
X173908617Y-101668933D01*
X173865000Y-101888212D01*
X173135000Y-101888212D01*
X173091383Y-101668933D01*
X173005824Y-101462376D01*
X172881612Y-101276480D01*
X172723520Y-101118388D01*
X172537624Y-100994176D01*
X172331067Y-100908617D01*
X172111788Y-100865000D01*
X171888212Y-100865000D01*
X171668933Y-100908617D01*
X171462376Y-100994176D01*
X171276480Y-101118388D01*
X171118388Y-101276480D01*
X170994176Y-101462376D01*
X170908617Y-101668933D01*
X170865000Y-101888212D01*
X170660000Y-101888212D01*
X170660000Y-97888212D01*
X170865000Y-97888212D01*
X170865000Y-98111788D01*
X170908617Y-98331067D01*
X170994176Y-98537624D01*
X171118388Y-98723520D01*
X171276480Y-98881612D01*
X171462376Y-99005824D01*
X171668933Y-99091383D01*
X171888212Y-99135000D01*
X172111788Y-99135000D01*
X172331067Y-99091383D01*
X172537624Y-99005824D01*
X172723520Y-98881612D01*
X172881612Y-98723520D01*
X173005824Y-98537624D01*
X173091383Y-98331067D01*
X173135000Y-98111788D01*
X173135000Y-97888212D01*
X173865000Y-97888212D01*
X173865000Y-98111788D01*
X173908617Y-98331067D01*
X173994176Y-98537624D01*
X174118388Y-98723520D01*
X174276480Y-98881612D01*
X174462376Y-99005824D01*
X174668933Y-99091383D01*
X174888212Y-99135000D01*
X175111788Y-99135000D01*
X175331067Y-99091383D01*
X175537624Y-99005824D01*
X175723520Y-98881612D01*
X175881612Y-98723520D01*
X176005824Y-98537624D01*
X176091383Y-98331067D01*
X176135000Y-98111788D01*
X176135000Y-97888212D01*
X176865000Y-97888212D01*
X176865000Y-98111788D01*
X176908617Y-98331067D01*
X176994176Y-98537624D01*
X177118388Y-98723520D01*
X177276480Y-98881612D01*
X177462376Y-99005824D01*
X177668933Y-99091383D01*
X177888212Y-99135000D01*
X178111788Y-99135000D01*
X178331067Y-99091383D01*
X178537624Y-99005824D01*
X178723520Y-98881612D01*
X178881612Y-98723520D01*
X179005824Y-98537624D01*
X179091383Y-98331067D01*
X179135000Y-98111788D01*
X179135000Y-97888212D01*
X179865000Y-97888212D01*
X179865000Y-98111788D01*
X179908617Y-98331067D01*
X179994176Y-98537624D01*
X180118388Y-98723520D01*
X180276480Y-98881612D01*
X180462376Y-99005824D01*
X180668933Y-99091383D01*
X180888212Y-99135000D01*
X181111788Y-99135000D01*
X181331067Y-99091383D01*
X181537624Y-99005824D01*
X181723520Y-98881612D01*
X181881612Y-98723520D01*
X182005824Y-98537624D01*
X182091383Y-98331067D01*
X182135000Y-98111788D01*
X182135000Y-97888212D01*
X189865000Y-97888212D01*
X189865000Y-98111788D01*
X189908617Y-98331067D01*
X189994176Y-98537624D01*
X190118388Y-98723520D01*
X190276480Y-98881612D01*
X190453660Y-99000000D01*
X190276480Y-99118388D01*
X190118388Y-99276480D01*
X189994176Y-99462376D01*
X189908617Y-99668933D01*
X189865000Y-99888212D01*
X189865000Y-100111788D01*
X189908617Y-100331067D01*
X189994176Y-100537624D01*
X190118388Y-100723520D01*
X190276480Y-100881612D01*
X190462376Y-101005824D01*
X190668933Y-101091383D01*
X190888212Y-101135000D01*
X191111788Y-101135000D01*
X191331067Y-101091383D01*
X191537624Y-101005824D01*
X191723520Y-100881612D01*
X191881612Y-100723520D01*
X192005824Y-100537624D01*
X192091383Y-100331067D01*
X192135000Y-100111788D01*
X192135000Y-99888212D01*
X192091383Y-99668933D01*
X192005824Y-99462376D01*
X191881612Y-99276480D01*
X191723520Y-99118388D01*
X191546340Y-99000000D01*
X191723520Y-98881612D01*
X191881612Y-98723520D01*
X192005824Y-98537624D01*
X192091383Y-98331067D01*
X192135000Y-98111788D01*
X192135000Y-97888212D01*
X192865000Y-97888212D01*
X192865000Y-98111788D01*
X192908617Y-98331067D01*
X192994176Y-98537624D01*
X193118388Y-98723520D01*
X193276480Y-98881612D01*
X193453660Y-99000000D01*
X193276480Y-99118388D01*
X193118388Y-99276480D01*
X192994176Y-99462376D01*
X192908617Y-99668933D01*
X192865000Y-99888212D01*
X192865000Y-100111788D01*
X192908617Y-100331067D01*
X192994176Y-100537624D01*
X193118388Y-100723520D01*
X193276480Y-100881612D01*
X193462376Y-101005824D01*
X193668933Y-101091383D01*
X193888212Y-101135000D01*
X194111788Y-101135000D01*
X194331067Y-101091383D01*
X194537624Y-101005824D01*
X194723520Y-100881612D01*
X194881612Y-100723520D01*
X195005824Y-100537624D01*
X195091383Y-100331067D01*
X195135000Y-100111788D01*
X195135000Y-99888212D01*
X195091383Y-99668933D01*
X195005824Y-99462376D01*
X194881612Y-99276480D01*
X194723520Y-99118388D01*
X194546340Y-99000000D01*
X194723520Y-98881612D01*
X194881612Y-98723520D01*
X195005824Y-98537624D01*
X195091383Y-98331067D01*
X195135000Y-98111788D01*
X195135000Y-97888212D01*
X195091383Y-97668933D01*
X195005824Y-97462376D01*
X194881612Y-97276480D01*
X194723520Y-97118388D01*
X194537624Y-96994176D01*
X194331067Y-96908617D01*
X194111788Y-96865000D01*
X193888212Y-96865000D01*
X193668933Y-96908617D01*
X193462376Y-96994176D01*
X193276480Y-97118388D01*
X193118388Y-97276480D01*
X192994176Y-97462376D01*
X192908617Y-97668933D01*
X192865000Y-97888212D01*
X192135000Y-97888212D01*
X192091383Y-97668933D01*
X192005824Y-97462376D01*
X191881612Y-97276480D01*
X191723520Y-97118388D01*
X191537624Y-96994176D01*
X191331067Y-96908617D01*
X191111788Y-96865000D01*
X190888212Y-96865000D01*
X190668933Y-96908617D01*
X190462376Y-96994176D01*
X190276480Y-97118388D01*
X190118388Y-97276480D01*
X189994176Y-97462376D01*
X189908617Y-97668933D01*
X189865000Y-97888212D01*
X182135000Y-97888212D01*
X182091383Y-97668933D01*
X182005824Y-97462376D01*
X181881612Y-97276480D01*
X181723520Y-97118388D01*
X181537624Y-96994176D01*
X181331067Y-96908617D01*
X181111788Y-96865000D01*
X180888212Y-96865000D01*
X180668933Y-96908617D01*
X180462376Y-96994176D01*
X180276480Y-97118388D01*
X180118388Y-97276480D01*
X179994176Y-97462376D01*
X179908617Y-97668933D01*
X179865000Y-97888212D01*
X179135000Y-97888212D01*
X179091383Y-97668933D01*
X179005824Y-97462376D01*
X178881612Y-97276480D01*
X178723520Y-97118388D01*
X178537624Y-96994176D01*
X178331067Y-96908617D01*
X178111788Y-96865000D01*
X177888212Y-96865000D01*
X177668933Y-96908617D01*
X177462376Y-96994176D01*
X177276480Y-97118388D01*
X177118388Y-97276480D01*
X176994176Y-97462376D01*
X176908617Y-97668933D01*
X176865000Y-97888212D01*
X176135000Y-97888212D01*
X176091383Y-97668933D01*
X176005824Y-97462376D01*
X175881612Y-97276480D01*
X175723520Y-97118388D01*
X175537624Y-96994176D01*
X175331067Y-96908617D01*
X175111788Y-96865000D01*
X174888212Y-96865000D01*
X174668933Y-96908617D01*
X174462376Y-96994176D01*
X174276480Y-97118388D01*
X174118388Y-97276480D01*
X173994176Y-97462376D01*
X173908617Y-97668933D01*
X173865000Y-97888212D01*
X173135000Y-97888212D01*
X173091383Y-97668933D01*
X173005824Y-97462376D01*
X172881612Y-97276480D01*
X172723520Y-97118388D01*
X172537624Y-96994176D01*
X172331067Y-96908617D01*
X172111788Y-96865000D01*
X171888212Y-96865000D01*
X171668933Y-96908617D01*
X171462376Y-96994176D01*
X171276480Y-97118388D01*
X171118388Y-97276480D01*
X170994176Y-97462376D01*
X170908617Y-97668933D01*
X170865000Y-97888212D01*
X170660000Y-97888212D01*
X170660000Y-94600807D01*
X170797912Y-94807207D01*
X171192793Y-95202088D01*
X171657124Y-95512344D01*
X172173061Y-95726052D01*
X172720777Y-95835000D01*
X173279223Y-95835000D01*
X173826939Y-95726052D01*
X174342876Y-95512344D01*
X174807207Y-95202088D01*
X175146887Y-94862408D01*
X177603000Y-94862408D01*
X177603000Y-95137592D01*
X177656686Y-95407490D01*
X177761995Y-95661727D01*
X177914880Y-95890535D01*
X178109465Y-96085120D01*
X178338273Y-96238005D01*
X178592510Y-96343314D01*
X178862408Y-96397000D01*
X179137592Y-96397000D01*
X179407490Y-96343314D01*
X179661727Y-96238005D01*
X179890535Y-96085120D01*
X180085120Y-95890535D01*
X180238005Y-95661727D01*
X180343314Y-95407490D01*
X180397000Y-95137592D01*
X180397000Y-94862408D01*
X181603000Y-94862408D01*
X181603000Y-95137592D01*
X181656686Y-95407490D01*
X181761995Y-95661727D01*
X181914880Y-95890535D01*
X182109465Y-96085120D01*
X182338273Y-96238005D01*
X182592510Y-96343314D01*
X182862408Y-96397000D01*
X183137592Y-96397000D01*
X183407490Y-96343314D01*
X183661727Y-96238005D01*
X183890535Y-96085120D01*
X184085120Y-95890535D01*
X184238005Y-95661727D01*
X184343314Y-95407490D01*
X184397000Y-95137592D01*
X184397000Y-94862408D01*
X185603000Y-94862408D01*
X185603000Y-95137592D01*
X185656686Y-95407490D01*
X185761995Y-95661727D01*
X185914880Y-95890535D01*
X186109465Y-96085120D01*
X186338273Y-96238005D01*
X186592510Y-96343314D01*
X186862408Y-96397000D01*
X187137592Y-96397000D01*
X187407490Y-96343314D01*
X187661727Y-96238005D01*
X187890535Y-96085120D01*
X188085120Y-95890535D01*
X188238005Y-95661727D01*
X188343314Y-95407490D01*
X188397000Y-95137592D01*
X188397000Y-94862408D01*
X189603000Y-94862408D01*
X189603000Y-95137592D01*
X189656686Y-95407490D01*
X189761995Y-95661727D01*
X189914880Y-95890535D01*
X190109465Y-96085120D01*
X190338273Y-96238005D01*
X190592510Y-96343314D01*
X190862408Y-96397000D01*
X191137592Y-96397000D01*
X191407490Y-96343314D01*
X191661727Y-96238005D01*
X191890535Y-96085120D01*
X192085120Y-95890535D01*
X192238005Y-95661727D01*
X192343314Y-95407490D01*
X192397000Y-95137592D01*
X192397000Y-94862408D01*
X193603000Y-94862408D01*
X193603000Y-95137592D01*
X193656686Y-95407490D01*
X193761995Y-95661727D01*
X193914880Y-95890535D01*
X194109465Y-96085120D01*
X194338273Y-96238005D01*
X194592510Y-96343314D01*
X194862408Y-96397000D01*
X195137592Y-96397000D01*
X195407490Y-96343314D01*
X195656280Y-96240261D01*
X196170600Y-96240261D01*
X196170600Y-96444139D01*
X196210374Y-96644098D01*
X196288395Y-96832456D01*
X196401663Y-97001974D01*
X196545826Y-97146137D01*
X196715344Y-97259405D01*
X196903702Y-97337426D01*
X197103661Y-97377200D01*
X197307539Y-97377200D01*
X197507498Y-97337426D01*
X197695856Y-97259405D01*
X197865374Y-97146137D01*
X198009537Y-97001974D01*
X198122805Y-96832456D01*
X198200826Y-96644098D01*
X198240600Y-96444139D01*
X198240600Y-96240261D01*
X198225111Y-96162392D01*
X198338273Y-96238005D01*
X198592510Y-96343314D01*
X198862408Y-96397000D01*
X199137592Y-96397000D01*
X199407490Y-96343314D01*
X199661727Y-96238005D01*
X199890535Y-96085120D01*
X200085120Y-95890535D01*
X200238005Y-95661727D01*
X200343314Y-95407490D01*
X200397000Y-95137592D01*
X200397000Y-94862408D01*
X201603000Y-94862408D01*
X201603000Y-95137592D01*
X201656686Y-95407490D01*
X201761995Y-95661727D01*
X201914880Y-95890535D01*
X202109465Y-96085120D01*
X202338273Y-96238005D01*
X202592510Y-96343314D01*
X202862408Y-96397000D01*
X203137592Y-96397000D01*
X203407490Y-96343314D01*
X203661727Y-96238005D01*
X203890535Y-96085120D01*
X204085120Y-95890535D01*
X204238005Y-95661727D01*
X204343314Y-95407490D01*
X204397000Y-95137592D01*
X204397000Y-94862408D01*
X205603000Y-94862408D01*
X205603000Y-95137592D01*
X205656686Y-95407490D01*
X205761995Y-95661727D01*
X205914880Y-95890535D01*
X206109465Y-96085120D01*
X206338273Y-96238005D01*
X206592510Y-96343314D01*
X206862408Y-96397000D01*
X207137592Y-96397000D01*
X207407490Y-96343314D01*
X207661727Y-96238005D01*
X207890535Y-96085120D01*
X208085120Y-95890535D01*
X208238005Y-95661727D01*
X208343314Y-95407490D01*
X208397000Y-95137592D01*
X208397000Y-94862408D01*
X208343314Y-94592510D01*
X208238005Y-94338273D01*
X208085120Y-94109465D01*
X207890535Y-93914880D01*
X207661727Y-93761995D01*
X207407490Y-93656686D01*
X207137592Y-93603000D01*
X206862408Y-93603000D01*
X206592510Y-93656686D01*
X206338273Y-93761995D01*
X206109465Y-93914880D01*
X205914880Y-94109465D01*
X205761995Y-94338273D01*
X205656686Y-94592510D01*
X205603000Y-94862408D01*
X204397000Y-94862408D01*
X204343314Y-94592510D01*
X204238005Y-94338273D01*
X204085120Y-94109465D01*
X203890535Y-93914880D01*
X203661727Y-93761995D01*
X203407490Y-93656686D01*
X203137592Y-93603000D01*
X202862408Y-93603000D01*
X202592510Y-93656686D01*
X202338273Y-93761995D01*
X202109465Y-93914880D01*
X201914880Y-94109465D01*
X201761995Y-94338273D01*
X201656686Y-94592510D01*
X201603000Y-94862408D01*
X200397000Y-94862408D01*
X200343314Y-94592510D01*
X200238005Y-94338273D01*
X200085120Y-94109465D01*
X199890535Y-93914880D01*
X199661727Y-93761995D01*
X199407490Y-93656686D01*
X199137592Y-93603000D01*
X198862408Y-93603000D01*
X198592510Y-93656686D01*
X198338273Y-93761995D01*
X198109465Y-93914880D01*
X197914880Y-94109465D01*
X197761995Y-94338273D01*
X197656686Y-94592510D01*
X197603000Y-94862408D01*
X197603000Y-95137592D01*
X197656686Y-95407490D01*
X197657326Y-95409035D01*
X197507498Y-95346974D01*
X197307539Y-95307200D01*
X197103661Y-95307200D01*
X196903702Y-95346974D01*
X196715344Y-95424995D01*
X196545826Y-95538263D01*
X196401663Y-95682426D01*
X196288395Y-95851944D01*
X196210374Y-96040302D01*
X196170600Y-96240261D01*
X195656280Y-96240261D01*
X195661727Y-96238005D01*
X195890535Y-96085120D01*
X196085120Y-95890535D01*
X196238005Y-95661727D01*
X196343314Y-95407490D01*
X196397000Y-95137592D01*
X196397000Y-94862408D01*
X196343314Y-94592510D01*
X196238005Y-94338273D01*
X196085120Y-94109465D01*
X195890535Y-93914880D01*
X195661727Y-93761995D01*
X195407490Y-93656686D01*
X195137592Y-93603000D01*
X194862408Y-93603000D01*
X194592510Y-93656686D01*
X194338273Y-93761995D01*
X194109465Y-93914880D01*
X193914880Y-94109465D01*
X193761995Y-94338273D01*
X193656686Y-94592510D01*
X193603000Y-94862408D01*
X192397000Y-94862408D01*
X192343314Y-94592510D01*
X192238005Y-94338273D01*
X192085120Y-94109465D01*
X191890535Y-93914880D01*
X191661727Y-93761995D01*
X191407490Y-93656686D01*
X191137592Y-93603000D01*
X190862408Y-93603000D01*
X190592510Y-93656686D01*
X190338273Y-93761995D01*
X190109465Y-93914880D01*
X189914880Y-94109465D01*
X189761995Y-94338273D01*
X189656686Y-94592510D01*
X189603000Y-94862408D01*
X188397000Y-94862408D01*
X188343314Y-94592510D01*
X188238005Y-94338273D01*
X188085120Y-94109465D01*
X187890535Y-93914880D01*
X187661727Y-93761995D01*
X187407490Y-93656686D01*
X187137592Y-93603000D01*
X186862408Y-93603000D01*
X186592510Y-93656686D01*
X186338273Y-93761995D01*
X186109465Y-93914880D01*
X185914880Y-94109465D01*
X185761995Y-94338273D01*
X185656686Y-94592510D01*
X185603000Y-94862408D01*
X184397000Y-94862408D01*
X184343314Y-94592510D01*
X184238005Y-94338273D01*
X184085120Y-94109465D01*
X183890535Y-93914880D01*
X183661727Y-93761995D01*
X183407490Y-93656686D01*
X183137592Y-93603000D01*
X182862408Y-93603000D01*
X182592510Y-93656686D01*
X182338273Y-93761995D01*
X182109465Y-93914880D01*
X181914880Y-94109465D01*
X181761995Y-94338273D01*
X181656686Y-94592510D01*
X181603000Y-94862408D01*
X180397000Y-94862408D01*
X180343314Y-94592510D01*
X180238005Y-94338273D01*
X180085120Y-94109465D01*
X179890535Y-93914880D01*
X179661727Y-93761995D01*
X179407490Y-93656686D01*
X179137592Y-93603000D01*
X178862408Y-93603000D01*
X178592510Y-93656686D01*
X178338273Y-93761995D01*
X178109465Y-93914880D01*
X177914880Y-94109465D01*
X177761995Y-94338273D01*
X177656686Y-94592510D01*
X177603000Y-94862408D01*
X175146887Y-94862408D01*
X175202088Y-94807207D01*
X175512344Y-94342876D01*
X175726052Y-93826939D01*
X175835000Y-93279223D01*
X175835000Y-92720777D01*
X175726052Y-92173061D01*
X175512344Y-91657124D01*
X175202088Y-91192793D01*
X174807207Y-90797912D01*
X174600807Y-90660000D01*
X178584509Y-90660000D01*
X178338273Y-90761995D01*
M02*
