G04 #@! TF.GenerationSoftware,KiCad,Pcbnew,5.1.6*
G04 #@! TF.CreationDate,2020-06-26T20:36:41-07:00*
G04 #@! TF.ProjectId,MegaBote,4d656761-426f-4746-952e-6b696361645f,rev?*
G04 #@! TF.SameCoordinates,Original*
G04 #@! TF.FileFunction,Soldermask,Top*
G04 #@! TF.FilePolarity,Negative*
%FSLAX46Y46*%
G04 Gerber Fmt 4.6, Leading zero omitted, Abs format (unit mm)*
G04 Created by KiCad (PCBNEW 5.1.6) date 2020-06-26 20:36:41*
%MOMM*%
%LPD*%
G01*
G04 APERTURE LIST*
%ADD10R,1.000000X1.300000*%
%ADD11R,1.300000X1.500000*%
%ADD12C,1.624000*%
%ADD13R,0.950000X1.200000*%
%ADD14R,0.850000X1.200000*%
%ADD15R,1.270000X1.900000*%
%ADD16R,1.650000X1.450000*%
%ADD17R,1.300000X1.100000*%
%ADD18R,2.000000X1.450000*%
%ADD19R,2.500000X0.840000*%
%ADD20R,2.100000X3.900000*%
%ADD21R,2.100000X1.600000*%
%ADD22R,0.750000X1.160000*%
%ADD23C,0.800000*%
%ADD24C,4.500000*%
%ADD25R,2.100000X2.600000*%
%ADD26R,0.600000X2.600000*%
%ADD27C,1.000000*%
%ADD28R,1.100000X2.610000*%
G04 APERTURE END LIST*
G36*
G01*
X203401400Y-99642850D02*
X203401400Y-98680350D01*
G75*
G02*
X203670150Y-98411600I268750J0D01*
G01*
X204207650Y-98411600D01*
G75*
G02*
X204476400Y-98680350I0J-268750D01*
G01*
X204476400Y-99642850D01*
G75*
G02*
X204207650Y-99911600I-268750J0D01*
G01*
X203670150Y-99911600D01*
G75*
G02*
X203401400Y-99642850I0J268750D01*
G01*
G37*
G36*
G01*
X205276400Y-99642850D02*
X205276400Y-98680350D01*
G75*
G02*
X205545150Y-98411600I268750J0D01*
G01*
X206082650Y-98411600D01*
G75*
G02*
X206351400Y-98680350I0J-268750D01*
G01*
X206351400Y-99642850D01*
G75*
G02*
X206082650Y-99911600I-268750J0D01*
G01*
X205545150Y-99911600D01*
G75*
G02*
X205276400Y-99642850I0J268750D01*
G01*
G37*
G36*
G01*
X190353300Y-108623400D02*
X190748300Y-108623400D01*
G75*
G02*
X190920800Y-108795900I0J-172500D01*
G01*
X190920800Y-109140900D01*
G75*
G02*
X190748300Y-109313400I-172500J0D01*
G01*
X190353300Y-109313400D01*
G75*
G02*
X190180800Y-109140900I0J172500D01*
G01*
X190180800Y-108795900D01*
G75*
G02*
X190353300Y-108623400I172500J0D01*
G01*
G37*
G36*
G01*
X190353300Y-107653400D02*
X190748300Y-107653400D01*
G75*
G02*
X190920800Y-107825900I0J-172500D01*
G01*
X190920800Y-108170900D01*
G75*
G02*
X190748300Y-108343400I-172500J0D01*
G01*
X190353300Y-108343400D01*
G75*
G02*
X190180800Y-108170900I0J172500D01*
G01*
X190180800Y-107825900D01*
G75*
G02*
X190353300Y-107653400I172500J0D01*
G01*
G37*
G36*
G01*
X203633150Y-100607600D02*
X204595650Y-100607600D01*
G75*
G02*
X204864400Y-100876350I0J-268750D01*
G01*
X204864400Y-101413850D01*
G75*
G02*
X204595650Y-101682600I-268750J0D01*
G01*
X203633150Y-101682600D01*
G75*
G02*
X203364400Y-101413850I0J268750D01*
G01*
X203364400Y-100876350D01*
G75*
G02*
X203633150Y-100607600I268750J0D01*
G01*
G37*
G36*
G01*
X203633150Y-102482600D02*
X204595650Y-102482600D01*
G75*
G02*
X204864400Y-102751350I0J-268750D01*
G01*
X204864400Y-103288850D01*
G75*
G02*
X204595650Y-103557600I-268750J0D01*
G01*
X203633150Y-103557600D01*
G75*
G02*
X203364400Y-103288850I0J268750D01*
G01*
X203364400Y-102751350D01*
G75*
G02*
X203633150Y-102482600I268750J0D01*
G01*
G37*
G36*
G01*
X175896350Y-105708400D02*
X176858850Y-105708400D01*
G75*
G02*
X177127600Y-105977150I0J-268750D01*
G01*
X177127600Y-106514650D01*
G75*
G02*
X176858850Y-106783400I-268750J0D01*
G01*
X175896350Y-106783400D01*
G75*
G02*
X175627600Y-106514650I0J268750D01*
G01*
X175627600Y-105977150D01*
G75*
G02*
X175896350Y-105708400I268750J0D01*
G01*
G37*
G36*
G01*
X175896350Y-103833400D02*
X176858850Y-103833400D01*
G75*
G02*
X177127600Y-104102150I0J-268750D01*
G01*
X177127600Y-104639650D01*
G75*
G02*
X176858850Y-104908400I-268750J0D01*
G01*
X175896350Y-104908400D01*
G75*
G02*
X175627600Y-104639650I0J268750D01*
G01*
X175627600Y-104102150D01*
G75*
G02*
X175896350Y-103833400I268750J0D01*
G01*
G37*
G36*
G01*
X177069100Y-120302600D02*
X177464100Y-120302600D01*
G75*
G02*
X177636600Y-120475100I0J-172500D01*
G01*
X177636600Y-120820100D01*
G75*
G02*
X177464100Y-120992600I-172500J0D01*
G01*
X177069100Y-120992600D01*
G75*
G02*
X176896600Y-120820100I0J172500D01*
G01*
X176896600Y-120475100D01*
G75*
G02*
X177069100Y-120302600I172500J0D01*
G01*
G37*
G36*
G01*
X177069100Y-121272600D02*
X177464100Y-121272600D01*
G75*
G02*
X177636600Y-121445100I0J-172500D01*
G01*
X177636600Y-121790100D01*
G75*
G02*
X177464100Y-121962600I-172500J0D01*
G01*
X177069100Y-121962600D01*
G75*
G02*
X176896600Y-121790100I0J172500D01*
G01*
X176896600Y-121445100D01*
G75*
G02*
X177069100Y-121272600I172500J0D01*
G01*
G37*
G36*
G01*
X191343900Y-108623400D02*
X191738900Y-108623400D01*
G75*
G02*
X191911400Y-108795900I0J-172500D01*
G01*
X191911400Y-109140900D01*
G75*
G02*
X191738900Y-109313400I-172500J0D01*
G01*
X191343900Y-109313400D01*
G75*
G02*
X191171400Y-109140900I0J172500D01*
G01*
X191171400Y-108795900D01*
G75*
G02*
X191343900Y-108623400I172500J0D01*
G01*
G37*
G36*
G01*
X191343900Y-107653400D02*
X191738900Y-107653400D01*
G75*
G02*
X191911400Y-107825900I0J-172500D01*
G01*
X191911400Y-108170900D01*
G75*
G02*
X191738900Y-108343400I-172500J0D01*
G01*
X191343900Y-108343400D01*
G75*
G02*
X191171400Y-108170900I0J172500D01*
G01*
X191171400Y-107825900D01*
G75*
G02*
X191343900Y-107653400I172500J0D01*
G01*
G37*
G36*
G01*
X189362700Y-108625801D02*
X189757700Y-108625801D01*
G75*
G02*
X189930200Y-108798301I0J-172500D01*
G01*
X189930200Y-109143301D01*
G75*
G02*
X189757700Y-109315801I-172500J0D01*
G01*
X189362700Y-109315801D01*
G75*
G02*
X189190200Y-109143301I0J172500D01*
G01*
X189190200Y-108798301D01*
G75*
G02*
X189362700Y-108625801I172500J0D01*
G01*
G37*
G36*
G01*
X189362700Y-107655801D02*
X189757700Y-107655801D01*
G75*
G02*
X189930200Y-107828301I0J-172500D01*
G01*
X189930200Y-108173301D01*
G75*
G02*
X189757700Y-108345801I-172500J0D01*
G01*
X189362700Y-108345801D01*
G75*
G02*
X189190200Y-108173301I0J172500D01*
G01*
X189190200Y-107828301D01*
G75*
G02*
X189362700Y-107655801I172500J0D01*
G01*
G37*
G36*
G01*
X173245200Y-109352700D02*
X173245200Y-109747700D01*
G75*
G02*
X173072700Y-109920200I-172500J0D01*
G01*
X172727700Y-109920200D01*
G75*
G02*
X172555200Y-109747700I0J172500D01*
G01*
X172555200Y-109352700D01*
G75*
G02*
X172727700Y-109180200I172500J0D01*
G01*
X173072700Y-109180200D01*
G75*
G02*
X173245200Y-109352700I0J-172500D01*
G01*
G37*
G36*
G01*
X172275200Y-109352700D02*
X172275200Y-109747700D01*
G75*
G02*
X172102700Y-109920200I-172500J0D01*
G01*
X171757700Y-109920200D01*
G75*
G02*
X171585200Y-109747700I0J172500D01*
G01*
X171585200Y-109352700D01*
G75*
G02*
X171757700Y-109180200I172500J0D01*
G01*
X172102700Y-109180200D01*
G75*
G02*
X172275200Y-109352700I0J-172500D01*
G01*
G37*
G36*
G01*
X186961200Y-119893700D02*
X186961200Y-120288700D01*
G75*
G02*
X186788700Y-120461200I-172500J0D01*
G01*
X186443700Y-120461200D01*
G75*
G02*
X186271200Y-120288700I0J172500D01*
G01*
X186271200Y-119893700D01*
G75*
G02*
X186443700Y-119721200I172500J0D01*
G01*
X186788700Y-119721200D01*
G75*
G02*
X186961200Y-119893700I0J-172500D01*
G01*
G37*
G36*
G01*
X185991200Y-119893700D02*
X185991200Y-120288700D01*
G75*
G02*
X185818700Y-120461200I-172500J0D01*
G01*
X185473700Y-120461200D01*
G75*
G02*
X185301200Y-120288700I0J172500D01*
G01*
X185301200Y-119893700D01*
G75*
G02*
X185473700Y-119721200I172500J0D01*
G01*
X185818700Y-119721200D01*
G75*
G02*
X185991200Y-119893700I0J-172500D01*
G01*
G37*
G36*
G01*
X171661400Y-114980100D02*
X171661400Y-114585100D01*
G75*
G02*
X171833900Y-114412600I172500J0D01*
G01*
X172178900Y-114412600D01*
G75*
G02*
X172351400Y-114585100I0J-172500D01*
G01*
X172351400Y-114980100D01*
G75*
G02*
X172178900Y-115152600I-172500J0D01*
G01*
X171833900Y-115152600D01*
G75*
G02*
X171661400Y-114980100I0J172500D01*
G01*
G37*
G36*
G01*
X172631400Y-114980100D02*
X172631400Y-114585100D01*
G75*
G02*
X172803900Y-114412600I172500J0D01*
G01*
X173148900Y-114412600D01*
G75*
G02*
X173321400Y-114585100I0J-172500D01*
G01*
X173321400Y-114980100D01*
G75*
G02*
X173148900Y-115152600I-172500J0D01*
G01*
X172803900Y-115152600D01*
G75*
G02*
X172631400Y-114980100I0J172500D01*
G01*
G37*
G36*
G01*
X205785100Y-121530800D02*
X205390100Y-121530800D01*
G75*
G02*
X205217600Y-121358300I0J172500D01*
G01*
X205217600Y-121013300D01*
G75*
G02*
X205390100Y-120840800I172500J0D01*
G01*
X205785100Y-120840800D01*
G75*
G02*
X205957600Y-121013300I0J-172500D01*
G01*
X205957600Y-121358300D01*
G75*
G02*
X205785100Y-121530800I-172500J0D01*
G01*
G37*
G36*
G01*
X205785100Y-120560800D02*
X205390100Y-120560800D01*
G75*
G02*
X205217600Y-120388300I0J172500D01*
G01*
X205217600Y-120043300D01*
G75*
G02*
X205390100Y-119870800I172500J0D01*
G01*
X205785100Y-119870800D01*
G75*
G02*
X205957600Y-120043300I0J-172500D01*
G01*
X205957600Y-120388300D01*
G75*
G02*
X205785100Y-120560800I-172500J0D01*
G01*
G37*
G36*
G01*
X185991200Y-120858900D02*
X185991200Y-121253900D01*
G75*
G02*
X185818700Y-121426400I-172500J0D01*
G01*
X185473700Y-121426400D01*
G75*
G02*
X185301200Y-121253900I0J172500D01*
G01*
X185301200Y-120858900D01*
G75*
G02*
X185473700Y-120686400I172500J0D01*
G01*
X185818700Y-120686400D01*
G75*
G02*
X185991200Y-120858900I0J-172500D01*
G01*
G37*
G36*
G01*
X186961200Y-120858900D02*
X186961200Y-121253900D01*
G75*
G02*
X186788700Y-121426400I-172500J0D01*
G01*
X186443700Y-121426400D01*
G75*
G02*
X186271200Y-121253900I0J172500D01*
G01*
X186271200Y-120858900D01*
G75*
G02*
X186443700Y-120686400I172500J0D01*
G01*
X186788700Y-120686400D01*
G75*
G02*
X186961200Y-120858900I0J-172500D01*
G01*
G37*
G36*
G01*
X174340000Y-116101100D02*
X174340000Y-116496100D01*
G75*
G02*
X174167500Y-116668600I-172500J0D01*
G01*
X173822500Y-116668600D01*
G75*
G02*
X173650000Y-116496100I0J172500D01*
G01*
X173650000Y-116101100D01*
G75*
G02*
X173822500Y-115928600I172500J0D01*
G01*
X174167500Y-115928600D01*
G75*
G02*
X174340000Y-116101100I0J-172500D01*
G01*
G37*
G36*
G01*
X173370000Y-116101100D02*
X173370000Y-116496100D01*
G75*
G02*
X173197500Y-116668600I-172500J0D01*
G01*
X172852500Y-116668600D01*
G75*
G02*
X172680000Y-116496100I0J172500D01*
G01*
X172680000Y-116101100D01*
G75*
G02*
X172852500Y-115928600I172500J0D01*
G01*
X173197500Y-115928600D01*
G75*
G02*
X173370000Y-116101100I0J-172500D01*
G01*
G37*
G36*
G01*
X173370000Y-117091700D02*
X173370000Y-117486700D01*
G75*
G02*
X173197500Y-117659200I-172500J0D01*
G01*
X172852500Y-117659200D01*
G75*
G02*
X172680000Y-117486700I0J172500D01*
G01*
X172680000Y-117091700D01*
G75*
G02*
X172852500Y-116919200I172500J0D01*
G01*
X173197500Y-116919200D01*
G75*
G02*
X173370000Y-117091700I0J-172500D01*
G01*
G37*
G36*
G01*
X174340000Y-117091700D02*
X174340000Y-117486700D01*
G75*
G02*
X174167500Y-117659200I-172500J0D01*
G01*
X173822500Y-117659200D01*
G75*
G02*
X173650000Y-117486700I0J172500D01*
G01*
X173650000Y-117091700D01*
G75*
G02*
X173822500Y-116919200I172500J0D01*
G01*
X174167500Y-116919200D01*
G75*
G02*
X174340000Y-117091700I0J-172500D01*
G01*
G37*
D10*
X212650000Y-97000000D03*
X209350000Y-97000000D03*
G36*
G01*
X208361200Y-108557750D02*
X208361200Y-109120250D01*
G75*
G02*
X208117450Y-109364000I-243750J0D01*
G01*
X207629950Y-109364000D01*
G75*
G02*
X207386200Y-109120250I0J243750D01*
G01*
X207386200Y-108557750D01*
G75*
G02*
X207629950Y-108314000I243750J0D01*
G01*
X208117450Y-108314000D01*
G75*
G02*
X208361200Y-108557750I0J-243750D01*
G01*
G37*
G36*
G01*
X206786200Y-108557750D02*
X206786200Y-109120250D01*
G75*
G02*
X206542450Y-109364000I-243750J0D01*
G01*
X206054950Y-109364000D01*
G75*
G02*
X205811200Y-109120250I0J243750D01*
G01*
X205811200Y-108557750D01*
G75*
G02*
X206054950Y-108314000I243750J0D01*
G01*
X206542450Y-108314000D01*
G75*
G02*
X206786200Y-108557750I0J-243750D01*
G01*
G37*
G36*
G01*
X206786200Y-110132550D02*
X206786200Y-110695050D01*
G75*
G02*
X206542450Y-110938800I-243750J0D01*
G01*
X206054950Y-110938800D01*
G75*
G02*
X205811200Y-110695050I0J243750D01*
G01*
X205811200Y-110132550D01*
G75*
G02*
X206054950Y-109888800I243750J0D01*
G01*
X206542450Y-109888800D01*
G75*
G02*
X206786200Y-110132550I0J-243750D01*
G01*
G37*
G36*
G01*
X208361200Y-110132550D02*
X208361200Y-110695050D01*
G75*
G02*
X208117450Y-110938800I-243750J0D01*
G01*
X207629950Y-110938800D01*
G75*
G02*
X207386200Y-110695050I0J243750D01*
G01*
X207386200Y-110132550D01*
G75*
G02*
X207629950Y-109888800I243750J0D01*
G01*
X208117450Y-109888800D01*
G75*
G02*
X208361200Y-110132550I0J-243750D01*
G01*
G37*
G36*
G01*
X213209400Y-98680350D02*
X213209400Y-99642850D01*
G75*
G02*
X212940650Y-99911600I-268750J0D01*
G01*
X212403150Y-99911600D01*
G75*
G02*
X212134400Y-99642850I0J268750D01*
G01*
X212134400Y-98680350D01*
G75*
G02*
X212403150Y-98411600I268750J0D01*
G01*
X212940650Y-98411600D01*
G75*
G02*
X213209400Y-98680350I0J-268750D01*
G01*
G37*
G36*
G01*
X211334400Y-98680350D02*
X211334400Y-99642850D01*
G75*
G02*
X211065650Y-99911600I-268750J0D01*
G01*
X210528150Y-99911600D01*
G75*
G02*
X210259400Y-99642850I0J268750D01*
G01*
X210259400Y-98680350D01*
G75*
G02*
X210528150Y-98411600I268750J0D01*
G01*
X211065650Y-98411600D01*
G75*
G02*
X211334400Y-98680350I0J-268750D01*
G01*
G37*
G36*
G01*
X206855800Y-99642850D02*
X206855800Y-98680350D01*
G75*
G02*
X207124550Y-98411600I268750J0D01*
G01*
X207662050Y-98411600D01*
G75*
G02*
X207930800Y-98680350I0J-268750D01*
G01*
X207930800Y-99642850D01*
G75*
G02*
X207662050Y-99911600I-268750J0D01*
G01*
X207124550Y-99911600D01*
G75*
G02*
X206855800Y-99642850I0J268750D01*
G01*
G37*
G36*
G01*
X208730800Y-99642850D02*
X208730800Y-98680350D01*
G75*
G02*
X208999550Y-98411600I268750J0D01*
G01*
X209537050Y-98411600D01*
G75*
G02*
X209805800Y-98680350I0J-268750D01*
G01*
X209805800Y-99642850D01*
G75*
G02*
X209537050Y-99911600I-268750J0D01*
G01*
X208999550Y-99911600D01*
G75*
G02*
X208730800Y-99642850I0J268750D01*
G01*
G37*
D11*
X171590600Y-111066400D03*
X171590600Y-113266400D03*
X173290600Y-113266400D03*
X173290600Y-111066400D03*
D12*
X179000000Y-92000000D03*
X183000000Y-92000000D03*
X187000000Y-92000000D03*
X191000000Y-92000000D03*
X195000000Y-92000000D03*
X199000000Y-92000000D03*
X203000000Y-92000000D03*
X207000000Y-92000000D03*
X179000000Y-95000000D03*
X183000000Y-95000000D03*
X187000000Y-95000000D03*
X191000000Y-95000000D03*
X195000000Y-95000000D03*
X199000000Y-95000000D03*
X203000000Y-95000000D03*
X207000000Y-95000000D03*
D13*
X179724200Y-123150200D03*
D14*
X187374200Y-123150200D03*
D13*
X180824200Y-123150200D03*
X181924200Y-123150200D03*
X183024200Y-123150200D03*
X184124200Y-123150200D03*
X185224200Y-123150200D03*
X186324200Y-123150200D03*
D15*
X188584200Y-123500200D03*
D16*
X177264200Y-123275200D03*
D17*
X177089200Y-133000200D03*
X177089200Y-129300200D03*
D18*
X180589200Y-133975200D03*
X186559200Y-133975200D03*
D19*
X208463600Y-115417600D03*
X212363600Y-115417600D03*
X208463600Y-116687600D03*
X212363600Y-116687600D03*
X208463600Y-117957600D03*
X212363600Y-117957600D03*
X208463600Y-119227600D03*
X212363600Y-119227600D03*
X208463600Y-120497600D03*
X212363600Y-120497600D03*
G36*
G01*
X182305340Y-105079500D02*
X181910340Y-105079500D01*
G75*
G02*
X181737840Y-104907000I0J172500D01*
G01*
X181737840Y-104562000D01*
G75*
G02*
X181910340Y-104389500I172500J0D01*
G01*
X182305340Y-104389500D01*
G75*
G02*
X182477840Y-104562000I0J-172500D01*
G01*
X182477840Y-104907000D01*
G75*
G02*
X182305340Y-105079500I-172500J0D01*
G01*
G37*
G36*
G01*
X182305340Y-106049500D02*
X181910340Y-106049500D01*
G75*
G02*
X181737840Y-105877000I0J172500D01*
G01*
X181737840Y-105532000D01*
G75*
G02*
X181910340Y-105359500I172500J0D01*
G01*
X182305340Y-105359500D01*
G75*
G02*
X182477840Y-105532000I0J-172500D01*
G01*
X182477840Y-105877000D01*
G75*
G02*
X182305340Y-106049500I-172500J0D01*
G01*
G37*
G36*
G01*
X190768620Y-102864340D02*
X190373620Y-102864340D01*
G75*
G02*
X190201120Y-102691840I0J172500D01*
G01*
X190201120Y-102346840D01*
G75*
G02*
X190373620Y-102174340I172500J0D01*
G01*
X190768620Y-102174340D01*
G75*
G02*
X190941120Y-102346840I0J-172500D01*
G01*
X190941120Y-102691840D01*
G75*
G02*
X190768620Y-102864340I-172500J0D01*
G01*
G37*
G36*
G01*
X190768620Y-101894340D02*
X190373620Y-101894340D01*
G75*
G02*
X190201120Y-101721840I0J172500D01*
G01*
X190201120Y-101376840D01*
G75*
G02*
X190373620Y-101204340I172500J0D01*
G01*
X190768620Y-101204340D01*
G75*
G02*
X190941120Y-101376840I0J-172500D01*
G01*
X190941120Y-101721840D01*
G75*
G02*
X190768620Y-101894340I-172500J0D01*
G01*
G37*
G36*
G01*
X208859200Y-109094850D02*
X208859200Y-108532350D01*
G75*
G02*
X209102950Y-108288600I243750J0D01*
G01*
X209590450Y-108288600D01*
G75*
G02*
X209834200Y-108532350I0J-243750D01*
G01*
X209834200Y-109094850D01*
G75*
G02*
X209590450Y-109338600I-243750J0D01*
G01*
X209102950Y-109338600D01*
G75*
G02*
X208859200Y-109094850I0J243750D01*
G01*
G37*
G36*
G01*
X210434200Y-109094850D02*
X210434200Y-108532350D01*
G75*
G02*
X210677950Y-108288600I243750J0D01*
G01*
X211165450Y-108288600D01*
G75*
G02*
X211409200Y-108532350I0J-243750D01*
G01*
X211409200Y-109094850D01*
G75*
G02*
X211165450Y-109338600I-243750J0D01*
G01*
X210677950Y-109338600D01*
G75*
G02*
X210434200Y-109094850I0J243750D01*
G01*
G37*
G36*
G01*
X181314740Y-106049500D02*
X180919740Y-106049500D01*
G75*
G02*
X180747240Y-105877000I0J172500D01*
G01*
X180747240Y-105532000D01*
G75*
G02*
X180919740Y-105359500I172500J0D01*
G01*
X181314740Y-105359500D01*
G75*
G02*
X181487240Y-105532000I0J-172500D01*
G01*
X181487240Y-105877000D01*
G75*
G02*
X181314740Y-106049500I-172500J0D01*
G01*
G37*
G36*
G01*
X181314740Y-105079500D02*
X180919740Y-105079500D01*
G75*
G02*
X180747240Y-104907000I0J172500D01*
G01*
X180747240Y-104562000D01*
G75*
G02*
X180919740Y-104389500I172500J0D01*
G01*
X181314740Y-104389500D01*
G75*
G02*
X181487240Y-104562000I0J-172500D01*
G01*
X181487240Y-104907000D01*
G75*
G02*
X181314740Y-105079500I-172500J0D01*
G01*
G37*
G36*
G01*
X210434200Y-110669650D02*
X210434200Y-110107150D01*
G75*
G02*
X210677950Y-109863400I243750J0D01*
G01*
X211165450Y-109863400D01*
G75*
G02*
X211409200Y-110107150I0J-243750D01*
G01*
X211409200Y-110669650D01*
G75*
G02*
X211165450Y-110913400I-243750J0D01*
G01*
X210677950Y-110913400D01*
G75*
G02*
X210434200Y-110669650I0J243750D01*
G01*
G37*
G36*
G01*
X208859200Y-110669650D02*
X208859200Y-110107150D01*
G75*
G02*
X209102950Y-109863400I243750J0D01*
G01*
X209590450Y-109863400D01*
G75*
G02*
X209834200Y-110107150I0J-243750D01*
G01*
X209834200Y-110669650D01*
G75*
G02*
X209590450Y-110913400I-243750J0D01*
G01*
X209102950Y-110913400D01*
G75*
G02*
X208859200Y-110669650I0J243750D01*
G01*
G37*
G36*
G01*
X197431400Y-104414200D02*
X197081400Y-104414200D01*
G75*
G02*
X196906400Y-104239200I0J175000D01*
G01*
X196906400Y-102539200D01*
G75*
G02*
X197081400Y-102364200I175000J0D01*
G01*
X197431400Y-102364200D01*
G75*
G02*
X197606400Y-102539200I0J-175000D01*
G01*
X197606400Y-104239200D01*
G75*
G02*
X197431400Y-104414200I-175000J0D01*
G01*
G37*
G36*
G01*
X198701400Y-104414200D02*
X198351400Y-104414200D01*
G75*
G02*
X198176400Y-104239200I0J175000D01*
G01*
X198176400Y-102539200D01*
G75*
G02*
X198351400Y-102364200I175000J0D01*
G01*
X198701400Y-102364200D01*
G75*
G02*
X198876400Y-102539200I0J-175000D01*
G01*
X198876400Y-104239200D01*
G75*
G02*
X198701400Y-104414200I-175000J0D01*
G01*
G37*
G36*
G01*
X199971400Y-104414200D02*
X199621400Y-104414200D01*
G75*
G02*
X199446400Y-104239200I0J175000D01*
G01*
X199446400Y-102539200D01*
G75*
G02*
X199621400Y-102364200I175000J0D01*
G01*
X199971400Y-102364200D01*
G75*
G02*
X200146400Y-102539200I0J-175000D01*
G01*
X200146400Y-104239200D01*
G75*
G02*
X199971400Y-104414200I-175000J0D01*
G01*
G37*
G36*
G01*
X201241400Y-104414200D02*
X200891400Y-104414200D01*
G75*
G02*
X200716400Y-104239200I0J175000D01*
G01*
X200716400Y-102539200D01*
G75*
G02*
X200891400Y-102364200I175000J0D01*
G01*
X201241400Y-102364200D01*
G75*
G02*
X201416400Y-102539200I0J-175000D01*
G01*
X201416400Y-104239200D01*
G75*
G02*
X201241400Y-104414200I-175000J0D01*
G01*
G37*
G36*
G01*
X201241400Y-99464200D02*
X200891400Y-99464200D01*
G75*
G02*
X200716400Y-99289200I0J175000D01*
G01*
X200716400Y-97589200D01*
G75*
G02*
X200891400Y-97414200I175000J0D01*
G01*
X201241400Y-97414200D01*
G75*
G02*
X201416400Y-97589200I0J-175000D01*
G01*
X201416400Y-99289200D01*
G75*
G02*
X201241400Y-99464200I-175000J0D01*
G01*
G37*
G36*
G01*
X199971400Y-99464200D02*
X199621400Y-99464200D01*
G75*
G02*
X199446400Y-99289200I0J175000D01*
G01*
X199446400Y-97589200D01*
G75*
G02*
X199621400Y-97414200I175000J0D01*
G01*
X199971400Y-97414200D01*
G75*
G02*
X200146400Y-97589200I0J-175000D01*
G01*
X200146400Y-99289200D01*
G75*
G02*
X199971400Y-99464200I-175000J0D01*
G01*
G37*
G36*
G01*
X198701400Y-99464200D02*
X198351400Y-99464200D01*
G75*
G02*
X198176400Y-99289200I0J175000D01*
G01*
X198176400Y-97589200D01*
G75*
G02*
X198351400Y-97414200I175000J0D01*
G01*
X198701400Y-97414200D01*
G75*
G02*
X198876400Y-97589200I0J-175000D01*
G01*
X198876400Y-99289200D01*
G75*
G02*
X198701400Y-99464200I-175000J0D01*
G01*
G37*
G36*
G01*
X197431400Y-99464200D02*
X197081400Y-99464200D01*
G75*
G02*
X196906400Y-99289200I0J175000D01*
G01*
X196906400Y-97589200D01*
G75*
G02*
X197081400Y-97414200I175000J0D01*
G01*
X197431400Y-97414200D01*
G75*
G02*
X197606400Y-97589200I0J-175000D01*
G01*
X197606400Y-99289200D01*
G75*
G02*
X197431400Y-99464200I-175000J0D01*
G01*
G37*
D20*
X213150000Y-104000000D03*
D21*
X206850000Y-104000000D03*
X206850000Y-106300000D03*
X206850000Y-101700000D03*
D22*
X202950000Y-120900000D03*
X202000000Y-120900000D03*
X201050000Y-120900000D03*
X201050000Y-123100000D03*
X202950000Y-123100000D03*
X202000000Y-123100000D03*
G36*
G01*
X175694200Y-109202200D02*
X175694200Y-109002200D01*
G75*
G02*
X175794200Y-108902200I100000J0D01*
G01*
X177244200Y-108902200D01*
G75*
G02*
X177344200Y-109002200I0J-100000D01*
G01*
X177344200Y-109202200D01*
G75*
G02*
X177244200Y-109302200I-100000J0D01*
G01*
X175794200Y-109302200D01*
G75*
G02*
X175694200Y-109202200I0J100000D01*
G01*
G37*
G36*
G01*
X175694200Y-109702200D02*
X175694200Y-109502200D01*
G75*
G02*
X175794200Y-109402200I100000J0D01*
G01*
X177244200Y-109402200D01*
G75*
G02*
X177344200Y-109502200I0J-100000D01*
G01*
X177344200Y-109702200D01*
G75*
G02*
X177244200Y-109802200I-100000J0D01*
G01*
X175794200Y-109802200D01*
G75*
G02*
X175694200Y-109702200I0J100000D01*
G01*
G37*
G36*
G01*
X175694200Y-110202200D02*
X175694200Y-110002200D01*
G75*
G02*
X175794200Y-109902200I100000J0D01*
G01*
X177244200Y-109902200D01*
G75*
G02*
X177344200Y-110002200I0J-100000D01*
G01*
X177344200Y-110202200D01*
G75*
G02*
X177244200Y-110302200I-100000J0D01*
G01*
X175794200Y-110302200D01*
G75*
G02*
X175694200Y-110202200I0J100000D01*
G01*
G37*
G36*
G01*
X175694200Y-110702200D02*
X175694200Y-110502200D01*
G75*
G02*
X175794200Y-110402200I100000J0D01*
G01*
X177244200Y-110402200D01*
G75*
G02*
X177344200Y-110502200I0J-100000D01*
G01*
X177344200Y-110702200D01*
G75*
G02*
X177244200Y-110802200I-100000J0D01*
G01*
X175794200Y-110802200D01*
G75*
G02*
X175694200Y-110702200I0J100000D01*
G01*
G37*
G36*
G01*
X175694200Y-111202200D02*
X175694200Y-111002200D01*
G75*
G02*
X175794200Y-110902200I100000J0D01*
G01*
X177244200Y-110902200D01*
G75*
G02*
X177344200Y-111002200I0J-100000D01*
G01*
X177344200Y-111202200D01*
G75*
G02*
X177244200Y-111302200I-100000J0D01*
G01*
X175794200Y-111302200D01*
G75*
G02*
X175694200Y-111202200I0J100000D01*
G01*
G37*
G36*
G01*
X175694200Y-111702200D02*
X175694200Y-111502200D01*
G75*
G02*
X175794200Y-111402200I100000J0D01*
G01*
X177244200Y-111402200D01*
G75*
G02*
X177344200Y-111502200I0J-100000D01*
G01*
X177344200Y-111702200D01*
G75*
G02*
X177244200Y-111802200I-100000J0D01*
G01*
X175794200Y-111802200D01*
G75*
G02*
X175694200Y-111702200I0J100000D01*
G01*
G37*
G36*
G01*
X175694200Y-112202200D02*
X175694200Y-112002200D01*
G75*
G02*
X175794200Y-111902200I100000J0D01*
G01*
X177244200Y-111902200D01*
G75*
G02*
X177344200Y-112002200I0J-100000D01*
G01*
X177344200Y-112202200D01*
G75*
G02*
X177244200Y-112302200I-100000J0D01*
G01*
X175794200Y-112302200D01*
G75*
G02*
X175694200Y-112202200I0J100000D01*
G01*
G37*
G36*
G01*
X175694200Y-112702200D02*
X175694200Y-112502200D01*
G75*
G02*
X175794200Y-112402200I100000J0D01*
G01*
X177244200Y-112402200D01*
G75*
G02*
X177344200Y-112502200I0J-100000D01*
G01*
X177344200Y-112702200D01*
G75*
G02*
X177244200Y-112802200I-100000J0D01*
G01*
X175794200Y-112802200D01*
G75*
G02*
X175694200Y-112702200I0J100000D01*
G01*
G37*
G36*
G01*
X175694200Y-113202200D02*
X175694200Y-113002200D01*
G75*
G02*
X175794200Y-112902200I100000J0D01*
G01*
X177244200Y-112902200D01*
G75*
G02*
X177344200Y-113002200I0J-100000D01*
G01*
X177344200Y-113202200D01*
G75*
G02*
X177244200Y-113302200I-100000J0D01*
G01*
X175794200Y-113302200D01*
G75*
G02*
X175694200Y-113202200I0J100000D01*
G01*
G37*
G36*
G01*
X175694200Y-113702200D02*
X175694200Y-113502200D01*
G75*
G02*
X175794200Y-113402200I100000J0D01*
G01*
X177244200Y-113402200D01*
G75*
G02*
X177344200Y-113502200I0J-100000D01*
G01*
X177344200Y-113702200D01*
G75*
G02*
X177244200Y-113802200I-100000J0D01*
G01*
X175794200Y-113802200D01*
G75*
G02*
X175694200Y-113702200I0J100000D01*
G01*
G37*
G36*
G01*
X175694200Y-114202200D02*
X175694200Y-114002200D01*
G75*
G02*
X175794200Y-113902200I100000J0D01*
G01*
X177244200Y-113902200D01*
G75*
G02*
X177344200Y-114002200I0J-100000D01*
G01*
X177344200Y-114202200D01*
G75*
G02*
X177244200Y-114302200I-100000J0D01*
G01*
X175794200Y-114302200D01*
G75*
G02*
X175694200Y-114202200I0J100000D01*
G01*
G37*
G36*
G01*
X175694200Y-114702200D02*
X175694200Y-114502200D01*
G75*
G02*
X175794200Y-114402200I100000J0D01*
G01*
X177244200Y-114402200D01*
G75*
G02*
X177344200Y-114502200I0J-100000D01*
G01*
X177344200Y-114702200D01*
G75*
G02*
X177244200Y-114802200I-100000J0D01*
G01*
X175794200Y-114802200D01*
G75*
G02*
X175694200Y-114702200I0J100000D01*
G01*
G37*
G36*
G01*
X175694200Y-115202200D02*
X175694200Y-115002200D01*
G75*
G02*
X175794200Y-114902200I100000J0D01*
G01*
X177244200Y-114902200D01*
G75*
G02*
X177344200Y-115002200I0J-100000D01*
G01*
X177344200Y-115202200D01*
G75*
G02*
X177244200Y-115302200I-100000J0D01*
G01*
X175794200Y-115302200D01*
G75*
G02*
X175694200Y-115202200I0J100000D01*
G01*
G37*
G36*
G01*
X175694200Y-115702200D02*
X175694200Y-115502200D01*
G75*
G02*
X175794200Y-115402200I100000J0D01*
G01*
X177244200Y-115402200D01*
G75*
G02*
X177344200Y-115502200I0J-100000D01*
G01*
X177344200Y-115702200D01*
G75*
G02*
X177244200Y-115802200I-100000J0D01*
G01*
X175794200Y-115802200D01*
G75*
G02*
X175694200Y-115702200I0J100000D01*
G01*
G37*
G36*
G01*
X175694200Y-116202200D02*
X175694200Y-116002200D01*
G75*
G02*
X175794200Y-115902200I100000J0D01*
G01*
X177244200Y-115902200D01*
G75*
G02*
X177344200Y-116002200I0J-100000D01*
G01*
X177344200Y-116202200D01*
G75*
G02*
X177244200Y-116302200I-100000J0D01*
G01*
X175794200Y-116302200D01*
G75*
G02*
X175694200Y-116202200I0J100000D01*
G01*
G37*
G36*
G01*
X175694200Y-116702200D02*
X175694200Y-116502200D01*
G75*
G02*
X175794200Y-116402200I100000J0D01*
G01*
X177244200Y-116402200D01*
G75*
G02*
X177344200Y-116502200I0J-100000D01*
G01*
X177344200Y-116702200D01*
G75*
G02*
X177244200Y-116802200I-100000J0D01*
G01*
X175794200Y-116802200D01*
G75*
G02*
X175694200Y-116702200I0J100000D01*
G01*
G37*
G36*
G01*
X178244200Y-119252200D02*
X178244200Y-117802200D01*
G75*
G02*
X178344200Y-117702200I100000J0D01*
G01*
X178544200Y-117702200D01*
G75*
G02*
X178644200Y-117802200I0J-100000D01*
G01*
X178644200Y-119252200D01*
G75*
G02*
X178544200Y-119352200I-100000J0D01*
G01*
X178344200Y-119352200D01*
G75*
G02*
X178244200Y-119252200I0J100000D01*
G01*
G37*
G36*
G01*
X178744200Y-119252200D02*
X178744200Y-117802200D01*
G75*
G02*
X178844200Y-117702200I100000J0D01*
G01*
X179044200Y-117702200D01*
G75*
G02*
X179144200Y-117802200I0J-100000D01*
G01*
X179144200Y-119252200D01*
G75*
G02*
X179044200Y-119352200I-100000J0D01*
G01*
X178844200Y-119352200D01*
G75*
G02*
X178744200Y-119252200I0J100000D01*
G01*
G37*
G36*
G01*
X179244200Y-119252200D02*
X179244200Y-117802200D01*
G75*
G02*
X179344200Y-117702200I100000J0D01*
G01*
X179544200Y-117702200D01*
G75*
G02*
X179644200Y-117802200I0J-100000D01*
G01*
X179644200Y-119252200D01*
G75*
G02*
X179544200Y-119352200I-100000J0D01*
G01*
X179344200Y-119352200D01*
G75*
G02*
X179244200Y-119252200I0J100000D01*
G01*
G37*
G36*
G01*
X179744200Y-119252200D02*
X179744200Y-117802200D01*
G75*
G02*
X179844200Y-117702200I100000J0D01*
G01*
X180044200Y-117702200D01*
G75*
G02*
X180144200Y-117802200I0J-100000D01*
G01*
X180144200Y-119252200D01*
G75*
G02*
X180044200Y-119352200I-100000J0D01*
G01*
X179844200Y-119352200D01*
G75*
G02*
X179744200Y-119252200I0J100000D01*
G01*
G37*
G36*
G01*
X180244200Y-119252200D02*
X180244200Y-117802200D01*
G75*
G02*
X180344200Y-117702200I100000J0D01*
G01*
X180544200Y-117702200D01*
G75*
G02*
X180644200Y-117802200I0J-100000D01*
G01*
X180644200Y-119252200D01*
G75*
G02*
X180544200Y-119352200I-100000J0D01*
G01*
X180344200Y-119352200D01*
G75*
G02*
X180244200Y-119252200I0J100000D01*
G01*
G37*
G36*
G01*
X180744200Y-119252200D02*
X180744200Y-117802200D01*
G75*
G02*
X180844200Y-117702200I100000J0D01*
G01*
X181044200Y-117702200D01*
G75*
G02*
X181144200Y-117802200I0J-100000D01*
G01*
X181144200Y-119252200D01*
G75*
G02*
X181044200Y-119352200I-100000J0D01*
G01*
X180844200Y-119352200D01*
G75*
G02*
X180744200Y-119252200I0J100000D01*
G01*
G37*
G36*
G01*
X181244200Y-119252200D02*
X181244200Y-117802200D01*
G75*
G02*
X181344200Y-117702200I100000J0D01*
G01*
X181544200Y-117702200D01*
G75*
G02*
X181644200Y-117802200I0J-100000D01*
G01*
X181644200Y-119252200D01*
G75*
G02*
X181544200Y-119352200I-100000J0D01*
G01*
X181344200Y-119352200D01*
G75*
G02*
X181244200Y-119252200I0J100000D01*
G01*
G37*
G36*
G01*
X181744200Y-119252200D02*
X181744200Y-117802200D01*
G75*
G02*
X181844200Y-117702200I100000J0D01*
G01*
X182044200Y-117702200D01*
G75*
G02*
X182144200Y-117802200I0J-100000D01*
G01*
X182144200Y-119252200D01*
G75*
G02*
X182044200Y-119352200I-100000J0D01*
G01*
X181844200Y-119352200D01*
G75*
G02*
X181744200Y-119252200I0J100000D01*
G01*
G37*
G36*
G01*
X182244200Y-119252200D02*
X182244200Y-117802200D01*
G75*
G02*
X182344200Y-117702200I100000J0D01*
G01*
X182544200Y-117702200D01*
G75*
G02*
X182644200Y-117802200I0J-100000D01*
G01*
X182644200Y-119252200D01*
G75*
G02*
X182544200Y-119352200I-100000J0D01*
G01*
X182344200Y-119352200D01*
G75*
G02*
X182244200Y-119252200I0J100000D01*
G01*
G37*
G36*
G01*
X182744200Y-119252200D02*
X182744200Y-117802200D01*
G75*
G02*
X182844200Y-117702200I100000J0D01*
G01*
X183044200Y-117702200D01*
G75*
G02*
X183144200Y-117802200I0J-100000D01*
G01*
X183144200Y-119252200D01*
G75*
G02*
X183044200Y-119352200I-100000J0D01*
G01*
X182844200Y-119352200D01*
G75*
G02*
X182744200Y-119252200I0J100000D01*
G01*
G37*
G36*
G01*
X183244200Y-119252200D02*
X183244200Y-117802200D01*
G75*
G02*
X183344200Y-117702200I100000J0D01*
G01*
X183544200Y-117702200D01*
G75*
G02*
X183644200Y-117802200I0J-100000D01*
G01*
X183644200Y-119252200D01*
G75*
G02*
X183544200Y-119352200I-100000J0D01*
G01*
X183344200Y-119352200D01*
G75*
G02*
X183244200Y-119252200I0J100000D01*
G01*
G37*
G36*
G01*
X183744200Y-119252200D02*
X183744200Y-117802200D01*
G75*
G02*
X183844200Y-117702200I100000J0D01*
G01*
X184044200Y-117702200D01*
G75*
G02*
X184144200Y-117802200I0J-100000D01*
G01*
X184144200Y-119252200D01*
G75*
G02*
X184044200Y-119352200I-100000J0D01*
G01*
X183844200Y-119352200D01*
G75*
G02*
X183744200Y-119252200I0J100000D01*
G01*
G37*
G36*
G01*
X184244200Y-119252200D02*
X184244200Y-117802200D01*
G75*
G02*
X184344200Y-117702200I100000J0D01*
G01*
X184544200Y-117702200D01*
G75*
G02*
X184644200Y-117802200I0J-100000D01*
G01*
X184644200Y-119252200D01*
G75*
G02*
X184544200Y-119352200I-100000J0D01*
G01*
X184344200Y-119352200D01*
G75*
G02*
X184244200Y-119252200I0J100000D01*
G01*
G37*
G36*
G01*
X184744200Y-119252200D02*
X184744200Y-117802200D01*
G75*
G02*
X184844200Y-117702200I100000J0D01*
G01*
X185044200Y-117702200D01*
G75*
G02*
X185144200Y-117802200I0J-100000D01*
G01*
X185144200Y-119252200D01*
G75*
G02*
X185044200Y-119352200I-100000J0D01*
G01*
X184844200Y-119352200D01*
G75*
G02*
X184744200Y-119252200I0J100000D01*
G01*
G37*
G36*
G01*
X185244200Y-119252200D02*
X185244200Y-117802200D01*
G75*
G02*
X185344200Y-117702200I100000J0D01*
G01*
X185544200Y-117702200D01*
G75*
G02*
X185644200Y-117802200I0J-100000D01*
G01*
X185644200Y-119252200D01*
G75*
G02*
X185544200Y-119352200I-100000J0D01*
G01*
X185344200Y-119352200D01*
G75*
G02*
X185244200Y-119252200I0J100000D01*
G01*
G37*
G36*
G01*
X185744200Y-119252200D02*
X185744200Y-117802200D01*
G75*
G02*
X185844200Y-117702200I100000J0D01*
G01*
X186044200Y-117702200D01*
G75*
G02*
X186144200Y-117802200I0J-100000D01*
G01*
X186144200Y-119252200D01*
G75*
G02*
X186044200Y-119352200I-100000J0D01*
G01*
X185844200Y-119352200D01*
G75*
G02*
X185744200Y-119252200I0J100000D01*
G01*
G37*
G36*
G01*
X187044200Y-116702200D02*
X187044200Y-116502200D01*
G75*
G02*
X187144200Y-116402200I100000J0D01*
G01*
X188594200Y-116402200D01*
G75*
G02*
X188694200Y-116502200I0J-100000D01*
G01*
X188694200Y-116702200D01*
G75*
G02*
X188594200Y-116802200I-100000J0D01*
G01*
X187144200Y-116802200D01*
G75*
G02*
X187044200Y-116702200I0J100000D01*
G01*
G37*
G36*
G01*
X187044200Y-116202200D02*
X187044200Y-116002200D01*
G75*
G02*
X187144200Y-115902200I100000J0D01*
G01*
X188594200Y-115902200D01*
G75*
G02*
X188694200Y-116002200I0J-100000D01*
G01*
X188694200Y-116202200D01*
G75*
G02*
X188594200Y-116302200I-100000J0D01*
G01*
X187144200Y-116302200D01*
G75*
G02*
X187044200Y-116202200I0J100000D01*
G01*
G37*
G36*
G01*
X187044200Y-115702200D02*
X187044200Y-115502200D01*
G75*
G02*
X187144200Y-115402200I100000J0D01*
G01*
X188594200Y-115402200D01*
G75*
G02*
X188694200Y-115502200I0J-100000D01*
G01*
X188694200Y-115702200D01*
G75*
G02*
X188594200Y-115802200I-100000J0D01*
G01*
X187144200Y-115802200D01*
G75*
G02*
X187044200Y-115702200I0J100000D01*
G01*
G37*
G36*
G01*
X187044200Y-115202200D02*
X187044200Y-115002200D01*
G75*
G02*
X187144200Y-114902200I100000J0D01*
G01*
X188594200Y-114902200D01*
G75*
G02*
X188694200Y-115002200I0J-100000D01*
G01*
X188694200Y-115202200D01*
G75*
G02*
X188594200Y-115302200I-100000J0D01*
G01*
X187144200Y-115302200D01*
G75*
G02*
X187044200Y-115202200I0J100000D01*
G01*
G37*
G36*
G01*
X187044200Y-114702200D02*
X187044200Y-114502200D01*
G75*
G02*
X187144200Y-114402200I100000J0D01*
G01*
X188594200Y-114402200D01*
G75*
G02*
X188694200Y-114502200I0J-100000D01*
G01*
X188694200Y-114702200D01*
G75*
G02*
X188594200Y-114802200I-100000J0D01*
G01*
X187144200Y-114802200D01*
G75*
G02*
X187044200Y-114702200I0J100000D01*
G01*
G37*
G36*
G01*
X187044200Y-114202200D02*
X187044200Y-114002200D01*
G75*
G02*
X187144200Y-113902200I100000J0D01*
G01*
X188594200Y-113902200D01*
G75*
G02*
X188694200Y-114002200I0J-100000D01*
G01*
X188694200Y-114202200D01*
G75*
G02*
X188594200Y-114302200I-100000J0D01*
G01*
X187144200Y-114302200D01*
G75*
G02*
X187044200Y-114202200I0J100000D01*
G01*
G37*
G36*
G01*
X187044200Y-113702200D02*
X187044200Y-113502200D01*
G75*
G02*
X187144200Y-113402200I100000J0D01*
G01*
X188594200Y-113402200D01*
G75*
G02*
X188694200Y-113502200I0J-100000D01*
G01*
X188694200Y-113702200D01*
G75*
G02*
X188594200Y-113802200I-100000J0D01*
G01*
X187144200Y-113802200D01*
G75*
G02*
X187044200Y-113702200I0J100000D01*
G01*
G37*
G36*
G01*
X187044200Y-113202200D02*
X187044200Y-113002200D01*
G75*
G02*
X187144200Y-112902200I100000J0D01*
G01*
X188594200Y-112902200D01*
G75*
G02*
X188694200Y-113002200I0J-100000D01*
G01*
X188694200Y-113202200D01*
G75*
G02*
X188594200Y-113302200I-100000J0D01*
G01*
X187144200Y-113302200D01*
G75*
G02*
X187044200Y-113202200I0J100000D01*
G01*
G37*
G36*
G01*
X187044200Y-112702200D02*
X187044200Y-112502200D01*
G75*
G02*
X187144200Y-112402200I100000J0D01*
G01*
X188594200Y-112402200D01*
G75*
G02*
X188694200Y-112502200I0J-100000D01*
G01*
X188694200Y-112702200D01*
G75*
G02*
X188594200Y-112802200I-100000J0D01*
G01*
X187144200Y-112802200D01*
G75*
G02*
X187044200Y-112702200I0J100000D01*
G01*
G37*
G36*
G01*
X187044200Y-112202200D02*
X187044200Y-112002200D01*
G75*
G02*
X187144200Y-111902200I100000J0D01*
G01*
X188594200Y-111902200D01*
G75*
G02*
X188694200Y-112002200I0J-100000D01*
G01*
X188694200Y-112202200D01*
G75*
G02*
X188594200Y-112302200I-100000J0D01*
G01*
X187144200Y-112302200D01*
G75*
G02*
X187044200Y-112202200I0J100000D01*
G01*
G37*
G36*
G01*
X187044200Y-111702200D02*
X187044200Y-111502200D01*
G75*
G02*
X187144200Y-111402200I100000J0D01*
G01*
X188594200Y-111402200D01*
G75*
G02*
X188694200Y-111502200I0J-100000D01*
G01*
X188694200Y-111702200D01*
G75*
G02*
X188594200Y-111802200I-100000J0D01*
G01*
X187144200Y-111802200D01*
G75*
G02*
X187044200Y-111702200I0J100000D01*
G01*
G37*
G36*
G01*
X187044200Y-111202200D02*
X187044200Y-111002200D01*
G75*
G02*
X187144200Y-110902200I100000J0D01*
G01*
X188594200Y-110902200D01*
G75*
G02*
X188694200Y-111002200I0J-100000D01*
G01*
X188694200Y-111202200D01*
G75*
G02*
X188594200Y-111302200I-100000J0D01*
G01*
X187144200Y-111302200D01*
G75*
G02*
X187044200Y-111202200I0J100000D01*
G01*
G37*
G36*
G01*
X187044200Y-110702200D02*
X187044200Y-110502200D01*
G75*
G02*
X187144200Y-110402200I100000J0D01*
G01*
X188594200Y-110402200D01*
G75*
G02*
X188694200Y-110502200I0J-100000D01*
G01*
X188694200Y-110702200D01*
G75*
G02*
X188594200Y-110802200I-100000J0D01*
G01*
X187144200Y-110802200D01*
G75*
G02*
X187044200Y-110702200I0J100000D01*
G01*
G37*
G36*
G01*
X187044200Y-110202200D02*
X187044200Y-110002200D01*
G75*
G02*
X187144200Y-109902200I100000J0D01*
G01*
X188594200Y-109902200D01*
G75*
G02*
X188694200Y-110002200I0J-100000D01*
G01*
X188694200Y-110202200D01*
G75*
G02*
X188594200Y-110302200I-100000J0D01*
G01*
X187144200Y-110302200D01*
G75*
G02*
X187044200Y-110202200I0J100000D01*
G01*
G37*
G36*
G01*
X187044200Y-109702200D02*
X187044200Y-109502200D01*
G75*
G02*
X187144200Y-109402200I100000J0D01*
G01*
X188594200Y-109402200D01*
G75*
G02*
X188694200Y-109502200I0J-100000D01*
G01*
X188694200Y-109702200D01*
G75*
G02*
X188594200Y-109802200I-100000J0D01*
G01*
X187144200Y-109802200D01*
G75*
G02*
X187044200Y-109702200I0J100000D01*
G01*
G37*
G36*
G01*
X187044200Y-109202200D02*
X187044200Y-109002200D01*
G75*
G02*
X187144200Y-108902200I100000J0D01*
G01*
X188594200Y-108902200D01*
G75*
G02*
X188694200Y-109002200I0J-100000D01*
G01*
X188694200Y-109202200D01*
G75*
G02*
X188594200Y-109302200I-100000J0D01*
G01*
X187144200Y-109302200D01*
G75*
G02*
X187044200Y-109202200I0J100000D01*
G01*
G37*
G36*
G01*
X185744200Y-107902200D02*
X185744200Y-106452200D01*
G75*
G02*
X185844200Y-106352200I100000J0D01*
G01*
X186044200Y-106352200D01*
G75*
G02*
X186144200Y-106452200I0J-100000D01*
G01*
X186144200Y-107902200D01*
G75*
G02*
X186044200Y-108002200I-100000J0D01*
G01*
X185844200Y-108002200D01*
G75*
G02*
X185744200Y-107902200I0J100000D01*
G01*
G37*
G36*
G01*
X185244200Y-107902200D02*
X185244200Y-106452200D01*
G75*
G02*
X185344200Y-106352200I100000J0D01*
G01*
X185544200Y-106352200D01*
G75*
G02*
X185644200Y-106452200I0J-100000D01*
G01*
X185644200Y-107902200D01*
G75*
G02*
X185544200Y-108002200I-100000J0D01*
G01*
X185344200Y-108002200D01*
G75*
G02*
X185244200Y-107902200I0J100000D01*
G01*
G37*
G36*
G01*
X184744200Y-107902200D02*
X184744200Y-106452200D01*
G75*
G02*
X184844200Y-106352200I100000J0D01*
G01*
X185044200Y-106352200D01*
G75*
G02*
X185144200Y-106452200I0J-100000D01*
G01*
X185144200Y-107902200D01*
G75*
G02*
X185044200Y-108002200I-100000J0D01*
G01*
X184844200Y-108002200D01*
G75*
G02*
X184744200Y-107902200I0J100000D01*
G01*
G37*
G36*
G01*
X184244200Y-107902200D02*
X184244200Y-106452200D01*
G75*
G02*
X184344200Y-106352200I100000J0D01*
G01*
X184544200Y-106352200D01*
G75*
G02*
X184644200Y-106452200I0J-100000D01*
G01*
X184644200Y-107902200D01*
G75*
G02*
X184544200Y-108002200I-100000J0D01*
G01*
X184344200Y-108002200D01*
G75*
G02*
X184244200Y-107902200I0J100000D01*
G01*
G37*
G36*
G01*
X183744200Y-107902200D02*
X183744200Y-106452200D01*
G75*
G02*
X183844200Y-106352200I100000J0D01*
G01*
X184044200Y-106352200D01*
G75*
G02*
X184144200Y-106452200I0J-100000D01*
G01*
X184144200Y-107902200D01*
G75*
G02*
X184044200Y-108002200I-100000J0D01*
G01*
X183844200Y-108002200D01*
G75*
G02*
X183744200Y-107902200I0J100000D01*
G01*
G37*
G36*
G01*
X183244200Y-107902200D02*
X183244200Y-106452200D01*
G75*
G02*
X183344200Y-106352200I100000J0D01*
G01*
X183544200Y-106352200D01*
G75*
G02*
X183644200Y-106452200I0J-100000D01*
G01*
X183644200Y-107902200D01*
G75*
G02*
X183544200Y-108002200I-100000J0D01*
G01*
X183344200Y-108002200D01*
G75*
G02*
X183244200Y-107902200I0J100000D01*
G01*
G37*
G36*
G01*
X182744200Y-107902200D02*
X182744200Y-106452200D01*
G75*
G02*
X182844200Y-106352200I100000J0D01*
G01*
X183044200Y-106352200D01*
G75*
G02*
X183144200Y-106452200I0J-100000D01*
G01*
X183144200Y-107902200D01*
G75*
G02*
X183044200Y-108002200I-100000J0D01*
G01*
X182844200Y-108002200D01*
G75*
G02*
X182744200Y-107902200I0J100000D01*
G01*
G37*
G36*
G01*
X182244200Y-107902200D02*
X182244200Y-106452200D01*
G75*
G02*
X182344200Y-106352200I100000J0D01*
G01*
X182544200Y-106352200D01*
G75*
G02*
X182644200Y-106452200I0J-100000D01*
G01*
X182644200Y-107902200D01*
G75*
G02*
X182544200Y-108002200I-100000J0D01*
G01*
X182344200Y-108002200D01*
G75*
G02*
X182244200Y-107902200I0J100000D01*
G01*
G37*
G36*
G01*
X181744200Y-107902200D02*
X181744200Y-106452200D01*
G75*
G02*
X181844200Y-106352200I100000J0D01*
G01*
X182044200Y-106352200D01*
G75*
G02*
X182144200Y-106452200I0J-100000D01*
G01*
X182144200Y-107902200D01*
G75*
G02*
X182044200Y-108002200I-100000J0D01*
G01*
X181844200Y-108002200D01*
G75*
G02*
X181744200Y-107902200I0J100000D01*
G01*
G37*
G36*
G01*
X181244200Y-107902200D02*
X181244200Y-106452200D01*
G75*
G02*
X181344200Y-106352200I100000J0D01*
G01*
X181544200Y-106352200D01*
G75*
G02*
X181644200Y-106452200I0J-100000D01*
G01*
X181644200Y-107902200D01*
G75*
G02*
X181544200Y-108002200I-100000J0D01*
G01*
X181344200Y-108002200D01*
G75*
G02*
X181244200Y-107902200I0J100000D01*
G01*
G37*
G36*
G01*
X180744200Y-107902200D02*
X180744200Y-106452200D01*
G75*
G02*
X180844200Y-106352200I100000J0D01*
G01*
X181044200Y-106352200D01*
G75*
G02*
X181144200Y-106452200I0J-100000D01*
G01*
X181144200Y-107902200D01*
G75*
G02*
X181044200Y-108002200I-100000J0D01*
G01*
X180844200Y-108002200D01*
G75*
G02*
X180744200Y-107902200I0J100000D01*
G01*
G37*
G36*
G01*
X180244200Y-107902200D02*
X180244200Y-106452200D01*
G75*
G02*
X180344200Y-106352200I100000J0D01*
G01*
X180544200Y-106352200D01*
G75*
G02*
X180644200Y-106452200I0J-100000D01*
G01*
X180644200Y-107902200D01*
G75*
G02*
X180544200Y-108002200I-100000J0D01*
G01*
X180344200Y-108002200D01*
G75*
G02*
X180244200Y-107902200I0J100000D01*
G01*
G37*
G36*
G01*
X179744200Y-107902200D02*
X179744200Y-106452200D01*
G75*
G02*
X179844200Y-106352200I100000J0D01*
G01*
X180044200Y-106352200D01*
G75*
G02*
X180144200Y-106452200I0J-100000D01*
G01*
X180144200Y-107902200D01*
G75*
G02*
X180044200Y-108002200I-100000J0D01*
G01*
X179844200Y-108002200D01*
G75*
G02*
X179744200Y-107902200I0J100000D01*
G01*
G37*
G36*
G01*
X179244200Y-107902200D02*
X179244200Y-106452200D01*
G75*
G02*
X179344200Y-106352200I100000J0D01*
G01*
X179544200Y-106352200D01*
G75*
G02*
X179644200Y-106452200I0J-100000D01*
G01*
X179644200Y-107902200D01*
G75*
G02*
X179544200Y-108002200I-100000J0D01*
G01*
X179344200Y-108002200D01*
G75*
G02*
X179244200Y-107902200I0J100000D01*
G01*
G37*
G36*
G01*
X178744200Y-107902200D02*
X178744200Y-106452200D01*
G75*
G02*
X178844200Y-106352200I100000J0D01*
G01*
X179044200Y-106352200D01*
G75*
G02*
X179144200Y-106452200I0J-100000D01*
G01*
X179144200Y-107902200D01*
G75*
G02*
X179044200Y-108002200I-100000J0D01*
G01*
X178844200Y-108002200D01*
G75*
G02*
X178744200Y-107902200I0J100000D01*
G01*
G37*
G36*
G01*
X178244200Y-107902200D02*
X178244200Y-106452200D01*
G75*
G02*
X178344200Y-106352200I100000J0D01*
G01*
X178544200Y-106352200D01*
G75*
G02*
X178644200Y-106452200I0J-100000D01*
G01*
X178644200Y-107902200D01*
G75*
G02*
X178544200Y-108002200I-100000J0D01*
G01*
X178344200Y-108002200D01*
G75*
G02*
X178244200Y-107902200I0J100000D01*
G01*
G37*
D23*
X174166726Y-91833274D03*
X173000000Y-91350000D03*
X171833274Y-91833274D03*
X171350000Y-93000000D03*
X171833274Y-94166726D03*
X173000000Y-94650000D03*
X174166726Y-94166726D03*
X174650000Y-93000000D03*
D24*
X173000000Y-93000000D03*
X173000000Y-132000000D03*
D23*
X174650000Y-132000000D03*
X174166726Y-133166726D03*
X173000000Y-133650000D03*
X171833274Y-133166726D03*
X171350000Y-132000000D03*
X171833274Y-130833274D03*
X173000000Y-130350000D03*
X174166726Y-130833274D03*
D24*
X212000000Y-93000000D03*
D23*
X213650000Y-93000000D03*
X213166726Y-94166726D03*
X212000000Y-94650000D03*
X210833274Y-94166726D03*
X210350000Y-93000000D03*
X210833274Y-91833274D03*
X212000000Y-91350000D03*
X213166726Y-91833274D03*
X213166726Y-130833274D03*
X212000000Y-130350000D03*
X210833274Y-130833274D03*
X210350000Y-132000000D03*
X210833274Y-133166726D03*
X212000000Y-133650000D03*
X213166726Y-133166726D03*
X213650000Y-132000000D03*
D24*
X212000000Y-132000000D03*
D25*
X197600000Y-132900000D03*
X206400000Y-132900000D03*
X197600000Y-127400000D03*
X206400000Y-127400000D03*
D26*
X200400000Y-127400000D03*
X201200000Y-127400000D03*
X202000000Y-127400000D03*
X202800000Y-127400000D03*
X203600000Y-127400000D03*
D27*
X199800000Y-130000000D03*
X204200000Y-130000000D03*
D28*
X210159600Y-127512000D03*
X212699600Y-124202000D03*
X188249560Y-97857120D03*
X185709560Y-101167120D03*
M02*
