G04 #@! TF.GenerationSoftware,KiCad,Pcbnew,5.1.6*
G04 #@! TF.CreationDate,2020-06-26T20:36:41-07:00*
G04 #@! TF.ProjectId,MegaBote,4d656761-426f-4746-952e-6b696361645f,rev?*
G04 #@! TF.SameCoordinates,Original*
G04 #@! TF.FileFunction,Paste,Top*
G04 #@! TF.FilePolarity,Positive*
%FSLAX46Y46*%
G04 Gerber Fmt 4.6, Leading zero omitted, Abs format (unit mm)*
G04 Created by KiCad (PCBNEW 5.1.6) date 2020-06-26 20:36:41*
%MOMM*%
%LPD*%
G01*
G04 APERTURE LIST*
%ADD10R,0.900000X1.200000*%
%ADD11R,1.200000X1.400000*%
%ADD12R,0.850000X1.100000*%
%ADD13R,0.750000X1.100000*%
%ADD14R,1.170000X1.800000*%
%ADD15R,1.550000X1.350000*%
%ADD16R,1.200000X1.000000*%
%ADD17R,1.900000X1.350000*%
%ADD18R,2.400000X0.740000*%
%ADD19R,2.000000X3.800000*%
%ADD20R,2.000000X1.500000*%
%ADD21R,0.650000X1.060000*%
%ADD22R,2.000000X2.500000*%
%ADD23R,0.500000X2.500000*%
%ADD24R,1.000000X2.510000*%
G04 APERTURE END LIST*
G36*
G01*
X203451400Y-99617850D02*
X203451400Y-98705350D01*
G75*
G02*
X203695150Y-98461600I243750J0D01*
G01*
X204182650Y-98461600D01*
G75*
G02*
X204426400Y-98705350I0J-243750D01*
G01*
X204426400Y-99617850D01*
G75*
G02*
X204182650Y-99861600I-243750J0D01*
G01*
X203695150Y-99861600D01*
G75*
G02*
X203451400Y-99617850I0J243750D01*
G01*
G37*
G36*
G01*
X205326400Y-99617850D02*
X205326400Y-98705350D01*
G75*
G02*
X205570150Y-98461600I243750J0D01*
G01*
X206057650Y-98461600D01*
G75*
G02*
X206301400Y-98705350I0J-243750D01*
G01*
X206301400Y-99617850D01*
G75*
G02*
X206057650Y-99861600I-243750J0D01*
G01*
X205570150Y-99861600D01*
G75*
G02*
X205326400Y-99617850I0J243750D01*
G01*
G37*
G36*
G01*
X190378300Y-108673400D02*
X190723300Y-108673400D01*
G75*
G02*
X190870800Y-108820900I0J-147500D01*
G01*
X190870800Y-109115900D01*
G75*
G02*
X190723300Y-109263400I-147500J0D01*
G01*
X190378300Y-109263400D01*
G75*
G02*
X190230800Y-109115900I0J147500D01*
G01*
X190230800Y-108820900D01*
G75*
G02*
X190378300Y-108673400I147500J0D01*
G01*
G37*
G36*
G01*
X190378300Y-107703400D02*
X190723300Y-107703400D01*
G75*
G02*
X190870800Y-107850900I0J-147500D01*
G01*
X190870800Y-108145900D01*
G75*
G02*
X190723300Y-108293400I-147500J0D01*
G01*
X190378300Y-108293400D01*
G75*
G02*
X190230800Y-108145900I0J147500D01*
G01*
X190230800Y-107850900D01*
G75*
G02*
X190378300Y-107703400I147500J0D01*
G01*
G37*
G36*
G01*
X203658150Y-100657600D02*
X204570650Y-100657600D01*
G75*
G02*
X204814400Y-100901350I0J-243750D01*
G01*
X204814400Y-101388850D01*
G75*
G02*
X204570650Y-101632600I-243750J0D01*
G01*
X203658150Y-101632600D01*
G75*
G02*
X203414400Y-101388850I0J243750D01*
G01*
X203414400Y-100901350D01*
G75*
G02*
X203658150Y-100657600I243750J0D01*
G01*
G37*
G36*
G01*
X203658150Y-102532600D02*
X204570650Y-102532600D01*
G75*
G02*
X204814400Y-102776350I0J-243750D01*
G01*
X204814400Y-103263850D01*
G75*
G02*
X204570650Y-103507600I-243750J0D01*
G01*
X203658150Y-103507600D01*
G75*
G02*
X203414400Y-103263850I0J243750D01*
G01*
X203414400Y-102776350D01*
G75*
G02*
X203658150Y-102532600I243750J0D01*
G01*
G37*
G36*
G01*
X175921350Y-105758400D02*
X176833850Y-105758400D01*
G75*
G02*
X177077600Y-106002150I0J-243750D01*
G01*
X177077600Y-106489650D01*
G75*
G02*
X176833850Y-106733400I-243750J0D01*
G01*
X175921350Y-106733400D01*
G75*
G02*
X175677600Y-106489650I0J243750D01*
G01*
X175677600Y-106002150D01*
G75*
G02*
X175921350Y-105758400I243750J0D01*
G01*
G37*
G36*
G01*
X175921350Y-103883400D02*
X176833850Y-103883400D01*
G75*
G02*
X177077600Y-104127150I0J-243750D01*
G01*
X177077600Y-104614650D01*
G75*
G02*
X176833850Y-104858400I-243750J0D01*
G01*
X175921350Y-104858400D01*
G75*
G02*
X175677600Y-104614650I0J243750D01*
G01*
X175677600Y-104127150D01*
G75*
G02*
X175921350Y-103883400I243750J0D01*
G01*
G37*
G36*
G01*
X177094100Y-120352600D02*
X177439100Y-120352600D01*
G75*
G02*
X177586600Y-120500100I0J-147500D01*
G01*
X177586600Y-120795100D01*
G75*
G02*
X177439100Y-120942600I-147500J0D01*
G01*
X177094100Y-120942600D01*
G75*
G02*
X176946600Y-120795100I0J147500D01*
G01*
X176946600Y-120500100D01*
G75*
G02*
X177094100Y-120352600I147500J0D01*
G01*
G37*
G36*
G01*
X177094100Y-121322600D02*
X177439100Y-121322600D01*
G75*
G02*
X177586600Y-121470100I0J-147500D01*
G01*
X177586600Y-121765100D01*
G75*
G02*
X177439100Y-121912600I-147500J0D01*
G01*
X177094100Y-121912600D01*
G75*
G02*
X176946600Y-121765100I0J147500D01*
G01*
X176946600Y-121470100D01*
G75*
G02*
X177094100Y-121322600I147500J0D01*
G01*
G37*
G36*
G01*
X191368900Y-108673400D02*
X191713900Y-108673400D01*
G75*
G02*
X191861400Y-108820900I0J-147500D01*
G01*
X191861400Y-109115900D01*
G75*
G02*
X191713900Y-109263400I-147500J0D01*
G01*
X191368900Y-109263400D01*
G75*
G02*
X191221400Y-109115900I0J147500D01*
G01*
X191221400Y-108820900D01*
G75*
G02*
X191368900Y-108673400I147500J0D01*
G01*
G37*
G36*
G01*
X191368900Y-107703400D02*
X191713900Y-107703400D01*
G75*
G02*
X191861400Y-107850900I0J-147500D01*
G01*
X191861400Y-108145900D01*
G75*
G02*
X191713900Y-108293400I-147500J0D01*
G01*
X191368900Y-108293400D01*
G75*
G02*
X191221400Y-108145900I0J147500D01*
G01*
X191221400Y-107850900D01*
G75*
G02*
X191368900Y-107703400I147500J0D01*
G01*
G37*
G36*
G01*
X189387700Y-108675801D02*
X189732700Y-108675801D01*
G75*
G02*
X189880200Y-108823301I0J-147500D01*
G01*
X189880200Y-109118301D01*
G75*
G02*
X189732700Y-109265801I-147500J0D01*
G01*
X189387700Y-109265801D01*
G75*
G02*
X189240200Y-109118301I0J147500D01*
G01*
X189240200Y-108823301D01*
G75*
G02*
X189387700Y-108675801I147500J0D01*
G01*
G37*
G36*
G01*
X189387700Y-107705801D02*
X189732700Y-107705801D01*
G75*
G02*
X189880200Y-107853301I0J-147500D01*
G01*
X189880200Y-108148301D01*
G75*
G02*
X189732700Y-108295801I-147500J0D01*
G01*
X189387700Y-108295801D01*
G75*
G02*
X189240200Y-108148301I0J147500D01*
G01*
X189240200Y-107853301D01*
G75*
G02*
X189387700Y-107705801I147500J0D01*
G01*
G37*
G36*
G01*
X173195200Y-109377700D02*
X173195200Y-109722700D01*
G75*
G02*
X173047700Y-109870200I-147500J0D01*
G01*
X172752700Y-109870200D01*
G75*
G02*
X172605200Y-109722700I0J147500D01*
G01*
X172605200Y-109377700D01*
G75*
G02*
X172752700Y-109230200I147500J0D01*
G01*
X173047700Y-109230200D01*
G75*
G02*
X173195200Y-109377700I0J-147500D01*
G01*
G37*
G36*
G01*
X172225200Y-109377700D02*
X172225200Y-109722700D01*
G75*
G02*
X172077700Y-109870200I-147500J0D01*
G01*
X171782700Y-109870200D01*
G75*
G02*
X171635200Y-109722700I0J147500D01*
G01*
X171635200Y-109377700D01*
G75*
G02*
X171782700Y-109230200I147500J0D01*
G01*
X172077700Y-109230200D01*
G75*
G02*
X172225200Y-109377700I0J-147500D01*
G01*
G37*
G36*
G01*
X186911200Y-119918700D02*
X186911200Y-120263700D01*
G75*
G02*
X186763700Y-120411200I-147500J0D01*
G01*
X186468700Y-120411200D01*
G75*
G02*
X186321200Y-120263700I0J147500D01*
G01*
X186321200Y-119918700D01*
G75*
G02*
X186468700Y-119771200I147500J0D01*
G01*
X186763700Y-119771200D01*
G75*
G02*
X186911200Y-119918700I0J-147500D01*
G01*
G37*
G36*
G01*
X185941200Y-119918700D02*
X185941200Y-120263700D01*
G75*
G02*
X185793700Y-120411200I-147500J0D01*
G01*
X185498700Y-120411200D01*
G75*
G02*
X185351200Y-120263700I0J147500D01*
G01*
X185351200Y-119918700D01*
G75*
G02*
X185498700Y-119771200I147500J0D01*
G01*
X185793700Y-119771200D01*
G75*
G02*
X185941200Y-119918700I0J-147500D01*
G01*
G37*
G36*
G01*
X171711400Y-114955100D02*
X171711400Y-114610100D01*
G75*
G02*
X171858900Y-114462600I147500J0D01*
G01*
X172153900Y-114462600D01*
G75*
G02*
X172301400Y-114610100I0J-147500D01*
G01*
X172301400Y-114955100D01*
G75*
G02*
X172153900Y-115102600I-147500J0D01*
G01*
X171858900Y-115102600D01*
G75*
G02*
X171711400Y-114955100I0J147500D01*
G01*
G37*
G36*
G01*
X172681400Y-114955100D02*
X172681400Y-114610100D01*
G75*
G02*
X172828900Y-114462600I147500J0D01*
G01*
X173123900Y-114462600D01*
G75*
G02*
X173271400Y-114610100I0J-147500D01*
G01*
X173271400Y-114955100D01*
G75*
G02*
X173123900Y-115102600I-147500J0D01*
G01*
X172828900Y-115102600D01*
G75*
G02*
X172681400Y-114955100I0J147500D01*
G01*
G37*
G36*
G01*
X205760100Y-121480800D02*
X205415100Y-121480800D01*
G75*
G02*
X205267600Y-121333300I0J147500D01*
G01*
X205267600Y-121038300D01*
G75*
G02*
X205415100Y-120890800I147500J0D01*
G01*
X205760100Y-120890800D01*
G75*
G02*
X205907600Y-121038300I0J-147500D01*
G01*
X205907600Y-121333300D01*
G75*
G02*
X205760100Y-121480800I-147500J0D01*
G01*
G37*
G36*
G01*
X205760100Y-120510800D02*
X205415100Y-120510800D01*
G75*
G02*
X205267600Y-120363300I0J147500D01*
G01*
X205267600Y-120068300D01*
G75*
G02*
X205415100Y-119920800I147500J0D01*
G01*
X205760100Y-119920800D01*
G75*
G02*
X205907600Y-120068300I0J-147500D01*
G01*
X205907600Y-120363300D01*
G75*
G02*
X205760100Y-120510800I-147500J0D01*
G01*
G37*
G36*
G01*
X185941200Y-120883900D02*
X185941200Y-121228900D01*
G75*
G02*
X185793700Y-121376400I-147500J0D01*
G01*
X185498700Y-121376400D01*
G75*
G02*
X185351200Y-121228900I0J147500D01*
G01*
X185351200Y-120883900D01*
G75*
G02*
X185498700Y-120736400I147500J0D01*
G01*
X185793700Y-120736400D01*
G75*
G02*
X185941200Y-120883900I0J-147500D01*
G01*
G37*
G36*
G01*
X186911200Y-120883900D02*
X186911200Y-121228900D01*
G75*
G02*
X186763700Y-121376400I-147500J0D01*
G01*
X186468700Y-121376400D01*
G75*
G02*
X186321200Y-121228900I0J147500D01*
G01*
X186321200Y-120883900D01*
G75*
G02*
X186468700Y-120736400I147500J0D01*
G01*
X186763700Y-120736400D01*
G75*
G02*
X186911200Y-120883900I0J-147500D01*
G01*
G37*
G36*
G01*
X174290000Y-116126100D02*
X174290000Y-116471100D01*
G75*
G02*
X174142500Y-116618600I-147500J0D01*
G01*
X173847500Y-116618600D01*
G75*
G02*
X173700000Y-116471100I0J147500D01*
G01*
X173700000Y-116126100D01*
G75*
G02*
X173847500Y-115978600I147500J0D01*
G01*
X174142500Y-115978600D01*
G75*
G02*
X174290000Y-116126100I0J-147500D01*
G01*
G37*
G36*
G01*
X173320000Y-116126100D02*
X173320000Y-116471100D01*
G75*
G02*
X173172500Y-116618600I-147500J0D01*
G01*
X172877500Y-116618600D01*
G75*
G02*
X172730000Y-116471100I0J147500D01*
G01*
X172730000Y-116126100D01*
G75*
G02*
X172877500Y-115978600I147500J0D01*
G01*
X173172500Y-115978600D01*
G75*
G02*
X173320000Y-116126100I0J-147500D01*
G01*
G37*
G36*
G01*
X173320000Y-117116700D02*
X173320000Y-117461700D01*
G75*
G02*
X173172500Y-117609200I-147500J0D01*
G01*
X172877500Y-117609200D01*
G75*
G02*
X172730000Y-117461700I0J147500D01*
G01*
X172730000Y-117116700D01*
G75*
G02*
X172877500Y-116969200I147500J0D01*
G01*
X173172500Y-116969200D01*
G75*
G02*
X173320000Y-117116700I0J-147500D01*
G01*
G37*
G36*
G01*
X174290000Y-117116700D02*
X174290000Y-117461700D01*
G75*
G02*
X174142500Y-117609200I-147500J0D01*
G01*
X173847500Y-117609200D01*
G75*
G02*
X173700000Y-117461700I0J147500D01*
G01*
X173700000Y-117116700D01*
G75*
G02*
X173847500Y-116969200I147500J0D01*
G01*
X174142500Y-116969200D01*
G75*
G02*
X174290000Y-117116700I0J-147500D01*
G01*
G37*
D10*
X212650000Y-97000000D03*
X209350000Y-97000000D03*
G36*
G01*
X208311200Y-108582750D02*
X208311200Y-109095250D01*
G75*
G02*
X208092450Y-109314000I-218750J0D01*
G01*
X207654950Y-109314000D01*
G75*
G02*
X207436200Y-109095250I0J218750D01*
G01*
X207436200Y-108582750D01*
G75*
G02*
X207654950Y-108364000I218750J0D01*
G01*
X208092450Y-108364000D01*
G75*
G02*
X208311200Y-108582750I0J-218750D01*
G01*
G37*
G36*
G01*
X206736200Y-108582750D02*
X206736200Y-109095250D01*
G75*
G02*
X206517450Y-109314000I-218750J0D01*
G01*
X206079950Y-109314000D01*
G75*
G02*
X205861200Y-109095250I0J218750D01*
G01*
X205861200Y-108582750D01*
G75*
G02*
X206079950Y-108364000I218750J0D01*
G01*
X206517450Y-108364000D01*
G75*
G02*
X206736200Y-108582750I0J-218750D01*
G01*
G37*
G36*
G01*
X206736200Y-110157550D02*
X206736200Y-110670050D01*
G75*
G02*
X206517450Y-110888800I-218750J0D01*
G01*
X206079950Y-110888800D01*
G75*
G02*
X205861200Y-110670050I0J218750D01*
G01*
X205861200Y-110157550D01*
G75*
G02*
X206079950Y-109938800I218750J0D01*
G01*
X206517450Y-109938800D01*
G75*
G02*
X206736200Y-110157550I0J-218750D01*
G01*
G37*
G36*
G01*
X208311200Y-110157550D02*
X208311200Y-110670050D01*
G75*
G02*
X208092450Y-110888800I-218750J0D01*
G01*
X207654950Y-110888800D01*
G75*
G02*
X207436200Y-110670050I0J218750D01*
G01*
X207436200Y-110157550D01*
G75*
G02*
X207654950Y-109938800I218750J0D01*
G01*
X208092450Y-109938800D01*
G75*
G02*
X208311200Y-110157550I0J-218750D01*
G01*
G37*
G36*
G01*
X213159400Y-98705350D02*
X213159400Y-99617850D01*
G75*
G02*
X212915650Y-99861600I-243750J0D01*
G01*
X212428150Y-99861600D01*
G75*
G02*
X212184400Y-99617850I0J243750D01*
G01*
X212184400Y-98705350D01*
G75*
G02*
X212428150Y-98461600I243750J0D01*
G01*
X212915650Y-98461600D01*
G75*
G02*
X213159400Y-98705350I0J-243750D01*
G01*
G37*
G36*
G01*
X211284400Y-98705350D02*
X211284400Y-99617850D01*
G75*
G02*
X211040650Y-99861600I-243750J0D01*
G01*
X210553150Y-99861600D01*
G75*
G02*
X210309400Y-99617850I0J243750D01*
G01*
X210309400Y-98705350D01*
G75*
G02*
X210553150Y-98461600I243750J0D01*
G01*
X211040650Y-98461600D01*
G75*
G02*
X211284400Y-98705350I0J-243750D01*
G01*
G37*
G36*
G01*
X206905800Y-99617850D02*
X206905800Y-98705350D01*
G75*
G02*
X207149550Y-98461600I243750J0D01*
G01*
X207637050Y-98461600D01*
G75*
G02*
X207880800Y-98705350I0J-243750D01*
G01*
X207880800Y-99617850D01*
G75*
G02*
X207637050Y-99861600I-243750J0D01*
G01*
X207149550Y-99861600D01*
G75*
G02*
X206905800Y-99617850I0J243750D01*
G01*
G37*
G36*
G01*
X208780800Y-99617850D02*
X208780800Y-98705350D01*
G75*
G02*
X209024550Y-98461600I243750J0D01*
G01*
X209512050Y-98461600D01*
G75*
G02*
X209755800Y-98705350I0J-243750D01*
G01*
X209755800Y-99617850D01*
G75*
G02*
X209512050Y-99861600I-243750J0D01*
G01*
X209024550Y-99861600D01*
G75*
G02*
X208780800Y-99617850I0J243750D01*
G01*
G37*
D11*
X171590600Y-111066400D03*
X171590600Y-113266400D03*
X173290600Y-113266400D03*
X173290600Y-111066400D03*
D12*
X179724200Y-123150200D03*
D13*
X187374200Y-123150200D03*
D12*
X180824200Y-123150200D03*
X181924200Y-123150200D03*
X183024200Y-123150200D03*
X184124200Y-123150200D03*
X185224200Y-123150200D03*
X186324200Y-123150200D03*
D14*
X188584200Y-123500200D03*
D15*
X177264200Y-123275200D03*
D16*
X177089200Y-133000200D03*
X177089200Y-129300200D03*
D17*
X180589200Y-133975200D03*
X186559200Y-133975200D03*
D18*
X208463600Y-115417600D03*
X212363600Y-115417600D03*
X208463600Y-116687600D03*
X212363600Y-116687600D03*
X208463600Y-117957600D03*
X212363600Y-117957600D03*
X208463600Y-119227600D03*
X212363600Y-119227600D03*
X208463600Y-120497600D03*
X212363600Y-120497600D03*
G36*
G01*
X182280340Y-105029500D02*
X181935340Y-105029500D01*
G75*
G02*
X181787840Y-104882000I0J147500D01*
G01*
X181787840Y-104587000D01*
G75*
G02*
X181935340Y-104439500I147500J0D01*
G01*
X182280340Y-104439500D01*
G75*
G02*
X182427840Y-104587000I0J-147500D01*
G01*
X182427840Y-104882000D01*
G75*
G02*
X182280340Y-105029500I-147500J0D01*
G01*
G37*
G36*
G01*
X182280340Y-105999500D02*
X181935340Y-105999500D01*
G75*
G02*
X181787840Y-105852000I0J147500D01*
G01*
X181787840Y-105557000D01*
G75*
G02*
X181935340Y-105409500I147500J0D01*
G01*
X182280340Y-105409500D01*
G75*
G02*
X182427840Y-105557000I0J-147500D01*
G01*
X182427840Y-105852000D01*
G75*
G02*
X182280340Y-105999500I-147500J0D01*
G01*
G37*
G36*
G01*
X190743620Y-102814340D02*
X190398620Y-102814340D01*
G75*
G02*
X190251120Y-102666840I0J147500D01*
G01*
X190251120Y-102371840D01*
G75*
G02*
X190398620Y-102224340I147500J0D01*
G01*
X190743620Y-102224340D01*
G75*
G02*
X190891120Y-102371840I0J-147500D01*
G01*
X190891120Y-102666840D01*
G75*
G02*
X190743620Y-102814340I-147500J0D01*
G01*
G37*
G36*
G01*
X190743620Y-101844340D02*
X190398620Y-101844340D01*
G75*
G02*
X190251120Y-101696840I0J147500D01*
G01*
X190251120Y-101401840D01*
G75*
G02*
X190398620Y-101254340I147500J0D01*
G01*
X190743620Y-101254340D01*
G75*
G02*
X190891120Y-101401840I0J-147500D01*
G01*
X190891120Y-101696840D01*
G75*
G02*
X190743620Y-101844340I-147500J0D01*
G01*
G37*
G36*
G01*
X208909200Y-109069850D02*
X208909200Y-108557350D01*
G75*
G02*
X209127950Y-108338600I218750J0D01*
G01*
X209565450Y-108338600D01*
G75*
G02*
X209784200Y-108557350I0J-218750D01*
G01*
X209784200Y-109069850D01*
G75*
G02*
X209565450Y-109288600I-218750J0D01*
G01*
X209127950Y-109288600D01*
G75*
G02*
X208909200Y-109069850I0J218750D01*
G01*
G37*
G36*
G01*
X210484200Y-109069850D02*
X210484200Y-108557350D01*
G75*
G02*
X210702950Y-108338600I218750J0D01*
G01*
X211140450Y-108338600D01*
G75*
G02*
X211359200Y-108557350I0J-218750D01*
G01*
X211359200Y-109069850D01*
G75*
G02*
X211140450Y-109288600I-218750J0D01*
G01*
X210702950Y-109288600D01*
G75*
G02*
X210484200Y-109069850I0J218750D01*
G01*
G37*
G36*
G01*
X181289740Y-105999500D02*
X180944740Y-105999500D01*
G75*
G02*
X180797240Y-105852000I0J147500D01*
G01*
X180797240Y-105557000D01*
G75*
G02*
X180944740Y-105409500I147500J0D01*
G01*
X181289740Y-105409500D01*
G75*
G02*
X181437240Y-105557000I0J-147500D01*
G01*
X181437240Y-105852000D01*
G75*
G02*
X181289740Y-105999500I-147500J0D01*
G01*
G37*
G36*
G01*
X181289740Y-105029500D02*
X180944740Y-105029500D01*
G75*
G02*
X180797240Y-104882000I0J147500D01*
G01*
X180797240Y-104587000D01*
G75*
G02*
X180944740Y-104439500I147500J0D01*
G01*
X181289740Y-104439500D01*
G75*
G02*
X181437240Y-104587000I0J-147500D01*
G01*
X181437240Y-104882000D01*
G75*
G02*
X181289740Y-105029500I-147500J0D01*
G01*
G37*
G36*
G01*
X210484200Y-110644650D02*
X210484200Y-110132150D01*
G75*
G02*
X210702950Y-109913400I218750J0D01*
G01*
X211140450Y-109913400D01*
G75*
G02*
X211359200Y-110132150I0J-218750D01*
G01*
X211359200Y-110644650D01*
G75*
G02*
X211140450Y-110863400I-218750J0D01*
G01*
X210702950Y-110863400D01*
G75*
G02*
X210484200Y-110644650I0J218750D01*
G01*
G37*
G36*
G01*
X208909200Y-110644650D02*
X208909200Y-110132150D01*
G75*
G02*
X209127950Y-109913400I218750J0D01*
G01*
X209565450Y-109913400D01*
G75*
G02*
X209784200Y-110132150I0J-218750D01*
G01*
X209784200Y-110644650D01*
G75*
G02*
X209565450Y-110863400I-218750J0D01*
G01*
X209127950Y-110863400D01*
G75*
G02*
X208909200Y-110644650I0J218750D01*
G01*
G37*
G36*
G01*
X197406400Y-104364200D02*
X197106400Y-104364200D01*
G75*
G02*
X196956400Y-104214200I0J150000D01*
G01*
X196956400Y-102564200D01*
G75*
G02*
X197106400Y-102414200I150000J0D01*
G01*
X197406400Y-102414200D01*
G75*
G02*
X197556400Y-102564200I0J-150000D01*
G01*
X197556400Y-104214200D01*
G75*
G02*
X197406400Y-104364200I-150000J0D01*
G01*
G37*
G36*
G01*
X198676400Y-104364200D02*
X198376400Y-104364200D01*
G75*
G02*
X198226400Y-104214200I0J150000D01*
G01*
X198226400Y-102564200D01*
G75*
G02*
X198376400Y-102414200I150000J0D01*
G01*
X198676400Y-102414200D01*
G75*
G02*
X198826400Y-102564200I0J-150000D01*
G01*
X198826400Y-104214200D01*
G75*
G02*
X198676400Y-104364200I-150000J0D01*
G01*
G37*
G36*
G01*
X199946400Y-104364200D02*
X199646400Y-104364200D01*
G75*
G02*
X199496400Y-104214200I0J150000D01*
G01*
X199496400Y-102564200D01*
G75*
G02*
X199646400Y-102414200I150000J0D01*
G01*
X199946400Y-102414200D01*
G75*
G02*
X200096400Y-102564200I0J-150000D01*
G01*
X200096400Y-104214200D01*
G75*
G02*
X199946400Y-104364200I-150000J0D01*
G01*
G37*
G36*
G01*
X201216400Y-104364200D02*
X200916400Y-104364200D01*
G75*
G02*
X200766400Y-104214200I0J150000D01*
G01*
X200766400Y-102564200D01*
G75*
G02*
X200916400Y-102414200I150000J0D01*
G01*
X201216400Y-102414200D01*
G75*
G02*
X201366400Y-102564200I0J-150000D01*
G01*
X201366400Y-104214200D01*
G75*
G02*
X201216400Y-104364200I-150000J0D01*
G01*
G37*
G36*
G01*
X201216400Y-99414200D02*
X200916400Y-99414200D01*
G75*
G02*
X200766400Y-99264200I0J150000D01*
G01*
X200766400Y-97614200D01*
G75*
G02*
X200916400Y-97464200I150000J0D01*
G01*
X201216400Y-97464200D01*
G75*
G02*
X201366400Y-97614200I0J-150000D01*
G01*
X201366400Y-99264200D01*
G75*
G02*
X201216400Y-99414200I-150000J0D01*
G01*
G37*
G36*
G01*
X199946400Y-99414200D02*
X199646400Y-99414200D01*
G75*
G02*
X199496400Y-99264200I0J150000D01*
G01*
X199496400Y-97614200D01*
G75*
G02*
X199646400Y-97464200I150000J0D01*
G01*
X199946400Y-97464200D01*
G75*
G02*
X200096400Y-97614200I0J-150000D01*
G01*
X200096400Y-99264200D01*
G75*
G02*
X199946400Y-99414200I-150000J0D01*
G01*
G37*
G36*
G01*
X198676400Y-99414200D02*
X198376400Y-99414200D01*
G75*
G02*
X198226400Y-99264200I0J150000D01*
G01*
X198226400Y-97614200D01*
G75*
G02*
X198376400Y-97464200I150000J0D01*
G01*
X198676400Y-97464200D01*
G75*
G02*
X198826400Y-97614200I0J-150000D01*
G01*
X198826400Y-99264200D01*
G75*
G02*
X198676400Y-99414200I-150000J0D01*
G01*
G37*
G36*
G01*
X197406400Y-99414200D02*
X197106400Y-99414200D01*
G75*
G02*
X196956400Y-99264200I0J150000D01*
G01*
X196956400Y-97614200D01*
G75*
G02*
X197106400Y-97464200I150000J0D01*
G01*
X197406400Y-97464200D01*
G75*
G02*
X197556400Y-97614200I0J-150000D01*
G01*
X197556400Y-99264200D01*
G75*
G02*
X197406400Y-99414200I-150000J0D01*
G01*
G37*
D19*
X213150000Y-104000000D03*
D20*
X206850000Y-104000000D03*
X206850000Y-106300000D03*
X206850000Y-101700000D03*
D21*
X202950000Y-120900000D03*
X202000000Y-120900000D03*
X201050000Y-120900000D03*
X201050000Y-123100000D03*
X202950000Y-123100000D03*
X202000000Y-123100000D03*
G36*
G01*
X175744200Y-109177200D02*
X175744200Y-109027200D01*
G75*
G02*
X175819200Y-108952200I75000J0D01*
G01*
X177219200Y-108952200D01*
G75*
G02*
X177294200Y-109027200I0J-75000D01*
G01*
X177294200Y-109177200D01*
G75*
G02*
X177219200Y-109252200I-75000J0D01*
G01*
X175819200Y-109252200D01*
G75*
G02*
X175744200Y-109177200I0J75000D01*
G01*
G37*
G36*
G01*
X175744200Y-109677200D02*
X175744200Y-109527200D01*
G75*
G02*
X175819200Y-109452200I75000J0D01*
G01*
X177219200Y-109452200D01*
G75*
G02*
X177294200Y-109527200I0J-75000D01*
G01*
X177294200Y-109677200D01*
G75*
G02*
X177219200Y-109752200I-75000J0D01*
G01*
X175819200Y-109752200D01*
G75*
G02*
X175744200Y-109677200I0J75000D01*
G01*
G37*
G36*
G01*
X175744200Y-110177200D02*
X175744200Y-110027200D01*
G75*
G02*
X175819200Y-109952200I75000J0D01*
G01*
X177219200Y-109952200D01*
G75*
G02*
X177294200Y-110027200I0J-75000D01*
G01*
X177294200Y-110177200D01*
G75*
G02*
X177219200Y-110252200I-75000J0D01*
G01*
X175819200Y-110252200D01*
G75*
G02*
X175744200Y-110177200I0J75000D01*
G01*
G37*
G36*
G01*
X175744200Y-110677200D02*
X175744200Y-110527200D01*
G75*
G02*
X175819200Y-110452200I75000J0D01*
G01*
X177219200Y-110452200D01*
G75*
G02*
X177294200Y-110527200I0J-75000D01*
G01*
X177294200Y-110677200D01*
G75*
G02*
X177219200Y-110752200I-75000J0D01*
G01*
X175819200Y-110752200D01*
G75*
G02*
X175744200Y-110677200I0J75000D01*
G01*
G37*
G36*
G01*
X175744200Y-111177200D02*
X175744200Y-111027200D01*
G75*
G02*
X175819200Y-110952200I75000J0D01*
G01*
X177219200Y-110952200D01*
G75*
G02*
X177294200Y-111027200I0J-75000D01*
G01*
X177294200Y-111177200D01*
G75*
G02*
X177219200Y-111252200I-75000J0D01*
G01*
X175819200Y-111252200D01*
G75*
G02*
X175744200Y-111177200I0J75000D01*
G01*
G37*
G36*
G01*
X175744200Y-111677200D02*
X175744200Y-111527200D01*
G75*
G02*
X175819200Y-111452200I75000J0D01*
G01*
X177219200Y-111452200D01*
G75*
G02*
X177294200Y-111527200I0J-75000D01*
G01*
X177294200Y-111677200D01*
G75*
G02*
X177219200Y-111752200I-75000J0D01*
G01*
X175819200Y-111752200D01*
G75*
G02*
X175744200Y-111677200I0J75000D01*
G01*
G37*
G36*
G01*
X175744200Y-112177200D02*
X175744200Y-112027200D01*
G75*
G02*
X175819200Y-111952200I75000J0D01*
G01*
X177219200Y-111952200D01*
G75*
G02*
X177294200Y-112027200I0J-75000D01*
G01*
X177294200Y-112177200D01*
G75*
G02*
X177219200Y-112252200I-75000J0D01*
G01*
X175819200Y-112252200D01*
G75*
G02*
X175744200Y-112177200I0J75000D01*
G01*
G37*
G36*
G01*
X175744200Y-112677200D02*
X175744200Y-112527200D01*
G75*
G02*
X175819200Y-112452200I75000J0D01*
G01*
X177219200Y-112452200D01*
G75*
G02*
X177294200Y-112527200I0J-75000D01*
G01*
X177294200Y-112677200D01*
G75*
G02*
X177219200Y-112752200I-75000J0D01*
G01*
X175819200Y-112752200D01*
G75*
G02*
X175744200Y-112677200I0J75000D01*
G01*
G37*
G36*
G01*
X175744200Y-113177200D02*
X175744200Y-113027200D01*
G75*
G02*
X175819200Y-112952200I75000J0D01*
G01*
X177219200Y-112952200D01*
G75*
G02*
X177294200Y-113027200I0J-75000D01*
G01*
X177294200Y-113177200D01*
G75*
G02*
X177219200Y-113252200I-75000J0D01*
G01*
X175819200Y-113252200D01*
G75*
G02*
X175744200Y-113177200I0J75000D01*
G01*
G37*
G36*
G01*
X175744200Y-113677200D02*
X175744200Y-113527200D01*
G75*
G02*
X175819200Y-113452200I75000J0D01*
G01*
X177219200Y-113452200D01*
G75*
G02*
X177294200Y-113527200I0J-75000D01*
G01*
X177294200Y-113677200D01*
G75*
G02*
X177219200Y-113752200I-75000J0D01*
G01*
X175819200Y-113752200D01*
G75*
G02*
X175744200Y-113677200I0J75000D01*
G01*
G37*
G36*
G01*
X175744200Y-114177200D02*
X175744200Y-114027200D01*
G75*
G02*
X175819200Y-113952200I75000J0D01*
G01*
X177219200Y-113952200D01*
G75*
G02*
X177294200Y-114027200I0J-75000D01*
G01*
X177294200Y-114177200D01*
G75*
G02*
X177219200Y-114252200I-75000J0D01*
G01*
X175819200Y-114252200D01*
G75*
G02*
X175744200Y-114177200I0J75000D01*
G01*
G37*
G36*
G01*
X175744200Y-114677200D02*
X175744200Y-114527200D01*
G75*
G02*
X175819200Y-114452200I75000J0D01*
G01*
X177219200Y-114452200D01*
G75*
G02*
X177294200Y-114527200I0J-75000D01*
G01*
X177294200Y-114677200D01*
G75*
G02*
X177219200Y-114752200I-75000J0D01*
G01*
X175819200Y-114752200D01*
G75*
G02*
X175744200Y-114677200I0J75000D01*
G01*
G37*
G36*
G01*
X175744200Y-115177200D02*
X175744200Y-115027200D01*
G75*
G02*
X175819200Y-114952200I75000J0D01*
G01*
X177219200Y-114952200D01*
G75*
G02*
X177294200Y-115027200I0J-75000D01*
G01*
X177294200Y-115177200D01*
G75*
G02*
X177219200Y-115252200I-75000J0D01*
G01*
X175819200Y-115252200D01*
G75*
G02*
X175744200Y-115177200I0J75000D01*
G01*
G37*
G36*
G01*
X175744200Y-115677200D02*
X175744200Y-115527200D01*
G75*
G02*
X175819200Y-115452200I75000J0D01*
G01*
X177219200Y-115452200D01*
G75*
G02*
X177294200Y-115527200I0J-75000D01*
G01*
X177294200Y-115677200D01*
G75*
G02*
X177219200Y-115752200I-75000J0D01*
G01*
X175819200Y-115752200D01*
G75*
G02*
X175744200Y-115677200I0J75000D01*
G01*
G37*
G36*
G01*
X175744200Y-116177200D02*
X175744200Y-116027200D01*
G75*
G02*
X175819200Y-115952200I75000J0D01*
G01*
X177219200Y-115952200D01*
G75*
G02*
X177294200Y-116027200I0J-75000D01*
G01*
X177294200Y-116177200D01*
G75*
G02*
X177219200Y-116252200I-75000J0D01*
G01*
X175819200Y-116252200D01*
G75*
G02*
X175744200Y-116177200I0J75000D01*
G01*
G37*
G36*
G01*
X175744200Y-116677200D02*
X175744200Y-116527200D01*
G75*
G02*
X175819200Y-116452200I75000J0D01*
G01*
X177219200Y-116452200D01*
G75*
G02*
X177294200Y-116527200I0J-75000D01*
G01*
X177294200Y-116677200D01*
G75*
G02*
X177219200Y-116752200I-75000J0D01*
G01*
X175819200Y-116752200D01*
G75*
G02*
X175744200Y-116677200I0J75000D01*
G01*
G37*
G36*
G01*
X178294200Y-119227200D02*
X178294200Y-117827200D01*
G75*
G02*
X178369200Y-117752200I75000J0D01*
G01*
X178519200Y-117752200D01*
G75*
G02*
X178594200Y-117827200I0J-75000D01*
G01*
X178594200Y-119227200D01*
G75*
G02*
X178519200Y-119302200I-75000J0D01*
G01*
X178369200Y-119302200D01*
G75*
G02*
X178294200Y-119227200I0J75000D01*
G01*
G37*
G36*
G01*
X178794200Y-119227200D02*
X178794200Y-117827200D01*
G75*
G02*
X178869200Y-117752200I75000J0D01*
G01*
X179019200Y-117752200D01*
G75*
G02*
X179094200Y-117827200I0J-75000D01*
G01*
X179094200Y-119227200D01*
G75*
G02*
X179019200Y-119302200I-75000J0D01*
G01*
X178869200Y-119302200D01*
G75*
G02*
X178794200Y-119227200I0J75000D01*
G01*
G37*
G36*
G01*
X179294200Y-119227200D02*
X179294200Y-117827200D01*
G75*
G02*
X179369200Y-117752200I75000J0D01*
G01*
X179519200Y-117752200D01*
G75*
G02*
X179594200Y-117827200I0J-75000D01*
G01*
X179594200Y-119227200D01*
G75*
G02*
X179519200Y-119302200I-75000J0D01*
G01*
X179369200Y-119302200D01*
G75*
G02*
X179294200Y-119227200I0J75000D01*
G01*
G37*
G36*
G01*
X179794200Y-119227200D02*
X179794200Y-117827200D01*
G75*
G02*
X179869200Y-117752200I75000J0D01*
G01*
X180019200Y-117752200D01*
G75*
G02*
X180094200Y-117827200I0J-75000D01*
G01*
X180094200Y-119227200D01*
G75*
G02*
X180019200Y-119302200I-75000J0D01*
G01*
X179869200Y-119302200D01*
G75*
G02*
X179794200Y-119227200I0J75000D01*
G01*
G37*
G36*
G01*
X180294200Y-119227200D02*
X180294200Y-117827200D01*
G75*
G02*
X180369200Y-117752200I75000J0D01*
G01*
X180519200Y-117752200D01*
G75*
G02*
X180594200Y-117827200I0J-75000D01*
G01*
X180594200Y-119227200D01*
G75*
G02*
X180519200Y-119302200I-75000J0D01*
G01*
X180369200Y-119302200D01*
G75*
G02*
X180294200Y-119227200I0J75000D01*
G01*
G37*
G36*
G01*
X180794200Y-119227200D02*
X180794200Y-117827200D01*
G75*
G02*
X180869200Y-117752200I75000J0D01*
G01*
X181019200Y-117752200D01*
G75*
G02*
X181094200Y-117827200I0J-75000D01*
G01*
X181094200Y-119227200D01*
G75*
G02*
X181019200Y-119302200I-75000J0D01*
G01*
X180869200Y-119302200D01*
G75*
G02*
X180794200Y-119227200I0J75000D01*
G01*
G37*
G36*
G01*
X181294200Y-119227200D02*
X181294200Y-117827200D01*
G75*
G02*
X181369200Y-117752200I75000J0D01*
G01*
X181519200Y-117752200D01*
G75*
G02*
X181594200Y-117827200I0J-75000D01*
G01*
X181594200Y-119227200D01*
G75*
G02*
X181519200Y-119302200I-75000J0D01*
G01*
X181369200Y-119302200D01*
G75*
G02*
X181294200Y-119227200I0J75000D01*
G01*
G37*
G36*
G01*
X181794200Y-119227200D02*
X181794200Y-117827200D01*
G75*
G02*
X181869200Y-117752200I75000J0D01*
G01*
X182019200Y-117752200D01*
G75*
G02*
X182094200Y-117827200I0J-75000D01*
G01*
X182094200Y-119227200D01*
G75*
G02*
X182019200Y-119302200I-75000J0D01*
G01*
X181869200Y-119302200D01*
G75*
G02*
X181794200Y-119227200I0J75000D01*
G01*
G37*
G36*
G01*
X182294200Y-119227200D02*
X182294200Y-117827200D01*
G75*
G02*
X182369200Y-117752200I75000J0D01*
G01*
X182519200Y-117752200D01*
G75*
G02*
X182594200Y-117827200I0J-75000D01*
G01*
X182594200Y-119227200D01*
G75*
G02*
X182519200Y-119302200I-75000J0D01*
G01*
X182369200Y-119302200D01*
G75*
G02*
X182294200Y-119227200I0J75000D01*
G01*
G37*
G36*
G01*
X182794200Y-119227200D02*
X182794200Y-117827200D01*
G75*
G02*
X182869200Y-117752200I75000J0D01*
G01*
X183019200Y-117752200D01*
G75*
G02*
X183094200Y-117827200I0J-75000D01*
G01*
X183094200Y-119227200D01*
G75*
G02*
X183019200Y-119302200I-75000J0D01*
G01*
X182869200Y-119302200D01*
G75*
G02*
X182794200Y-119227200I0J75000D01*
G01*
G37*
G36*
G01*
X183294200Y-119227200D02*
X183294200Y-117827200D01*
G75*
G02*
X183369200Y-117752200I75000J0D01*
G01*
X183519200Y-117752200D01*
G75*
G02*
X183594200Y-117827200I0J-75000D01*
G01*
X183594200Y-119227200D01*
G75*
G02*
X183519200Y-119302200I-75000J0D01*
G01*
X183369200Y-119302200D01*
G75*
G02*
X183294200Y-119227200I0J75000D01*
G01*
G37*
G36*
G01*
X183794200Y-119227200D02*
X183794200Y-117827200D01*
G75*
G02*
X183869200Y-117752200I75000J0D01*
G01*
X184019200Y-117752200D01*
G75*
G02*
X184094200Y-117827200I0J-75000D01*
G01*
X184094200Y-119227200D01*
G75*
G02*
X184019200Y-119302200I-75000J0D01*
G01*
X183869200Y-119302200D01*
G75*
G02*
X183794200Y-119227200I0J75000D01*
G01*
G37*
G36*
G01*
X184294200Y-119227200D02*
X184294200Y-117827200D01*
G75*
G02*
X184369200Y-117752200I75000J0D01*
G01*
X184519200Y-117752200D01*
G75*
G02*
X184594200Y-117827200I0J-75000D01*
G01*
X184594200Y-119227200D01*
G75*
G02*
X184519200Y-119302200I-75000J0D01*
G01*
X184369200Y-119302200D01*
G75*
G02*
X184294200Y-119227200I0J75000D01*
G01*
G37*
G36*
G01*
X184794200Y-119227200D02*
X184794200Y-117827200D01*
G75*
G02*
X184869200Y-117752200I75000J0D01*
G01*
X185019200Y-117752200D01*
G75*
G02*
X185094200Y-117827200I0J-75000D01*
G01*
X185094200Y-119227200D01*
G75*
G02*
X185019200Y-119302200I-75000J0D01*
G01*
X184869200Y-119302200D01*
G75*
G02*
X184794200Y-119227200I0J75000D01*
G01*
G37*
G36*
G01*
X185294200Y-119227200D02*
X185294200Y-117827200D01*
G75*
G02*
X185369200Y-117752200I75000J0D01*
G01*
X185519200Y-117752200D01*
G75*
G02*
X185594200Y-117827200I0J-75000D01*
G01*
X185594200Y-119227200D01*
G75*
G02*
X185519200Y-119302200I-75000J0D01*
G01*
X185369200Y-119302200D01*
G75*
G02*
X185294200Y-119227200I0J75000D01*
G01*
G37*
G36*
G01*
X185794200Y-119227200D02*
X185794200Y-117827200D01*
G75*
G02*
X185869200Y-117752200I75000J0D01*
G01*
X186019200Y-117752200D01*
G75*
G02*
X186094200Y-117827200I0J-75000D01*
G01*
X186094200Y-119227200D01*
G75*
G02*
X186019200Y-119302200I-75000J0D01*
G01*
X185869200Y-119302200D01*
G75*
G02*
X185794200Y-119227200I0J75000D01*
G01*
G37*
G36*
G01*
X187094200Y-116677200D02*
X187094200Y-116527200D01*
G75*
G02*
X187169200Y-116452200I75000J0D01*
G01*
X188569200Y-116452200D01*
G75*
G02*
X188644200Y-116527200I0J-75000D01*
G01*
X188644200Y-116677200D01*
G75*
G02*
X188569200Y-116752200I-75000J0D01*
G01*
X187169200Y-116752200D01*
G75*
G02*
X187094200Y-116677200I0J75000D01*
G01*
G37*
G36*
G01*
X187094200Y-116177200D02*
X187094200Y-116027200D01*
G75*
G02*
X187169200Y-115952200I75000J0D01*
G01*
X188569200Y-115952200D01*
G75*
G02*
X188644200Y-116027200I0J-75000D01*
G01*
X188644200Y-116177200D01*
G75*
G02*
X188569200Y-116252200I-75000J0D01*
G01*
X187169200Y-116252200D01*
G75*
G02*
X187094200Y-116177200I0J75000D01*
G01*
G37*
G36*
G01*
X187094200Y-115677200D02*
X187094200Y-115527200D01*
G75*
G02*
X187169200Y-115452200I75000J0D01*
G01*
X188569200Y-115452200D01*
G75*
G02*
X188644200Y-115527200I0J-75000D01*
G01*
X188644200Y-115677200D01*
G75*
G02*
X188569200Y-115752200I-75000J0D01*
G01*
X187169200Y-115752200D01*
G75*
G02*
X187094200Y-115677200I0J75000D01*
G01*
G37*
G36*
G01*
X187094200Y-115177200D02*
X187094200Y-115027200D01*
G75*
G02*
X187169200Y-114952200I75000J0D01*
G01*
X188569200Y-114952200D01*
G75*
G02*
X188644200Y-115027200I0J-75000D01*
G01*
X188644200Y-115177200D01*
G75*
G02*
X188569200Y-115252200I-75000J0D01*
G01*
X187169200Y-115252200D01*
G75*
G02*
X187094200Y-115177200I0J75000D01*
G01*
G37*
G36*
G01*
X187094200Y-114677200D02*
X187094200Y-114527200D01*
G75*
G02*
X187169200Y-114452200I75000J0D01*
G01*
X188569200Y-114452200D01*
G75*
G02*
X188644200Y-114527200I0J-75000D01*
G01*
X188644200Y-114677200D01*
G75*
G02*
X188569200Y-114752200I-75000J0D01*
G01*
X187169200Y-114752200D01*
G75*
G02*
X187094200Y-114677200I0J75000D01*
G01*
G37*
G36*
G01*
X187094200Y-114177200D02*
X187094200Y-114027200D01*
G75*
G02*
X187169200Y-113952200I75000J0D01*
G01*
X188569200Y-113952200D01*
G75*
G02*
X188644200Y-114027200I0J-75000D01*
G01*
X188644200Y-114177200D01*
G75*
G02*
X188569200Y-114252200I-75000J0D01*
G01*
X187169200Y-114252200D01*
G75*
G02*
X187094200Y-114177200I0J75000D01*
G01*
G37*
G36*
G01*
X187094200Y-113677200D02*
X187094200Y-113527200D01*
G75*
G02*
X187169200Y-113452200I75000J0D01*
G01*
X188569200Y-113452200D01*
G75*
G02*
X188644200Y-113527200I0J-75000D01*
G01*
X188644200Y-113677200D01*
G75*
G02*
X188569200Y-113752200I-75000J0D01*
G01*
X187169200Y-113752200D01*
G75*
G02*
X187094200Y-113677200I0J75000D01*
G01*
G37*
G36*
G01*
X187094200Y-113177200D02*
X187094200Y-113027200D01*
G75*
G02*
X187169200Y-112952200I75000J0D01*
G01*
X188569200Y-112952200D01*
G75*
G02*
X188644200Y-113027200I0J-75000D01*
G01*
X188644200Y-113177200D01*
G75*
G02*
X188569200Y-113252200I-75000J0D01*
G01*
X187169200Y-113252200D01*
G75*
G02*
X187094200Y-113177200I0J75000D01*
G01*
G37*
G36*
G01*
X187094200Y-112677200D02*
X187094200Y-112527200D01*
G75*
G02*
X187169200Y-112452200I75000J0D01*
G01*
X188569200Y-112452200D01*
G75*
G02*
X188644200Y-112527200I0J-75000D01*
G01*
X188644200Y-112677200D01*
G75*
G02*
X188569200Y-112752200I-75000J0D01*
G01*
X187169200Y-112752200D01*
G75*
G02*
X187094200Y-112677200I0J75000D01*
G01*
G37*
G36*
G01*
X187094200Y-112177200D02*
X187094200Y-112027200D01*
G75*
G02*
X187169200Y-111952200I75000J0D01*
G01*
X188569200Y-111952200D01*
G75*
G02*
X188644200Y-112027200I0J-75000D01*
G01*
X188644200Y-112177200D01*
G75*
G02*
X188569200Y-112252200I-75000J0D01*
G01*
X187169200Y-112252200D01*
G75*
G02*
X187094200Y-112177200I0J75000D01*
G01*
G37*
G36*
G01*
X187094200Y-111677200D02*
X187094200Y-111527200D01*
G75*
G02*
X187169200Y-111452200I75000J0D01*
G01*
X188569200Y-111452200D01*
G75*
G02*
X188644200Y-111527200I0J-75000D01*
G01*
X188644200Y-111677200D01*
G75*
G02*
X188569200Y-111752200I-75000J0D01*
G01*
X187169200Y-111752200D01*
G75*
G02*
X187094200Y-111677200I0J75000D01*
G01*
G37*
G36*
G01*
X187094200Y-111177200D02*
X187094200Y-111027200D01*
G75*
G02*
X187169200Y-110952200I75000J0D01*
G01*
X188569200Y-110952200D01*
G75*
G02*
X188644200Y-111027200I0J-75000D01*
G01*
X188644200Y-111177200D01*
G75*
G02*
X188569200Y-111252200I-75000J0D01*
G01*
X187169200Y-111252200D01*
G75*
G02*
X187094200Y-111177200I0J75000D01*
G01*
G37*
G36*
G01*
X187094200Y-110677200D02*
X187094200Y-110527200D01*
G75*
G02*
X187169200Y-110452200I75000J0D01*
G01*
X188569200Y-110452200D01*
G75*
G02*
X188644200Y-110527200I0J-75000D01*
G01*
X188644200Y-110677200D01*
G75*
G02*
X188569200Y-110752200I-75000J0D01*
G01*
X187169200Y-110752200D01*
G75*
G02*
X187094200Y-110677200I0J75000D01*
G01*
G37*
G36*
G01*
X187094200Y-110177200D02*
X187094200Y-110027200D01*
G75*
G02*
X187169200Y-109952200I75000J0D01*
G01*
X188569200Y-109952200D01*
G75*
G02*
X188644200Y-110027200I0J-75000D01*
G01*
X188644200Y-110177200D01*
G75*
G02*
X188569200Y-110252200I-75000J0D01*
G01*
X187169200Y-110252200D01*
G75*
G02*
X187094200Y-110177200I0J75000D01*
G01*
G37*
G36*
G01*
X187094200Y-109677200D02*
X187094200Y-109527200D01*
G75*
G02*
X187169200Y-109452200I75000J0D01*
G01*
X188569200Y-109452200D01*
G75*
G02*
X188644200Y-109527200I0J-75000D01*
G01*
X188644200Y-109677200D01*
G75*
G02*
X188569200Y-109752200I-75000J0D01*
G01*
X187169200Y-109752200D01*
G75*
G02*
X187094200Y-109677200I0J75000D01*
G01*
G37*
G36*
G01*
X187094200Y-109177200D02*
X187094200Y-109027200D01*
G75*
G02*
X187169200Y-108952200I75000J0D01*
G01*
X188569200Y-108952200D01*
G75*
G02*
X188644200Y-109027200I0J-75000D01*
G01*
X188644200Y-109177200D01*
G75*
G02*
X188569200Y-109252200I-75000J0D01*
G01*
X187169200Y-109252200D01*
G75*
G02*
X187094200Y-109177200I0J75000D01*
G01*
G37*
G36*
G01*
X185794200Y-107877200D02*
X185794200Y-106477200D01*
G75*
G02*
X185869200Y-106402200I75000J0D01*
G01*
X186019200Y-106402200D01*
G75*
G02*
X186094200Y-106477200I0J-75000D01*
G01*
X186094200Y-107877200D01*
G75*
G02*
X186019200Y-107952200I-75000J0D01*
G01*
X185869200Y-107952200D01*
G75*
G02*
X185794200Y-107877200I0J75000D01*
G01*
G37*
G36*
G01*
X185294200Y-107877200D02*
X185294200Y-106477200D01*
G75*
G02*
X185369200Y-106402200I75000J0D01*
G01*
X185519200Y-106402200D01*
G75*
G02*
X185594200Y-106477200I0J-75000D01*
G01*
X185594200Y-107877200D01*
G75*
G02*
X185519200Y-107952200I-75000J0D01*
G01*
X185369200Y-107952200D01*
G75*
G02*
X185294200Y-107877200I0J75000D01*
G01*
G37*
G36*
G01*
X184794200Y-107877200D02*
X184794200Y-106477200D01*
G75*
G02*
X184869200Y-106402200I75000J0D01*
G01*
X185019200Y-106402200D01*
G75*
G02*
X185094200Y-106477200I0J-75000D01*
G01*
X185094200Y-107877200D01*
G75*
G02*
X185019200Y-107952200I-75000J0D01*
G01*
X184869200Y-107952200D01*
G75*
G02*
X184794200Y-107877200I0J75000D01*
G01*
G37*
G36*
G01*
X184294200Y-107877200D02*
X184294200Y-106477200D01*
G75*
G02*
X184369200Y-106402200I75000J0D01*
G01*
X184519200Y-106402200D01*
G75*
G02*
X184594200Y-106477200I0J-75000D01*
G01*
X184594200Y-107877200D01*
G75*
G02*
X184519200Y-107952200I-75000J0D01*
G01*
X184369200Y-107952200D01*
G75*
G02*
X184294200Y-107877200I0J75000D01*
G01*
G37*
G36*
G01*
X183794200Y-107877200D02*
X183794200Y-106477200D01*
G75*
G02*
X183869200Y-106402200I75000J0D01*
G01*
X184019200Y-106402200D01*
G75*
G02*
X184094200Y-106477200I0J-75000D01*
G01*
X184094200Y-107877200D01*
G75*
G02*
X184019200Y-107952200I-75000J0D01*
G01*
X183869200Y-107952200D01*
G75*
G02*
X183794200Y-107877200I0J75000D01*
G01*
G37*
G36*
G01*
X183294200Y-107877200D02*
X183294200Y-106477200D01*
G75*
G02*
X183369200Y-106402200I75000J0D01*
G01*
X183519200Y-106402200D01*
G75*
G02*
X183594200Y-106477200I0J-75000D01*
G01*
X183594200Y-107877200D01*
G75*
G02*
X183519200Y-107952200I-75000J0D01*
G01*
X183369200Y-107952200D01*
G75*
G02*
X183294200Y-107877200I0J75000D01*
G01*
G37*
G36*
G01*
X182794200Y-107877200D02*
X182794200Y-106477200D01*
G75*
G02*
X182869200Y-106402200I75000J0D01*
G01*
X183019200Y-106402200D01*
G75*
G02*
X183094200Y-106477200I0J-75000D01*
G01*
X183094200Y-107877200D01*
G75*
G02*
X183019200Y-107952200I-75000J0D01*
G01*
X182869200Y-107952200D01*
G75*
G02*
X182794200Y-107877200I0J75000D01*
G01*
G37*
G36*
G01*
X182294200Y-107877200D02*
X182294200Y-106477200D01*
G75*
G02*
X182369200Y-106402200I75000J0D01*
G01*
X182519200Y-106402200D01*
G75*
G02*
X182594200Y-106477200I0J-75000D01*
G01*
X182594200Y-107877200D01*
G75*
G02*
X182519200Y-107952200I-75000J0D01*
G01*
X182369200Y-107952200D01*
G75*
G02*
X182294200Y-107877200I0J75000D01*
G01*
G37*
G36*
G01*
X181794200Y-107877200D02*
X181794200Y-106477200D01*
G75*
G02*
X181869200Y-106402200I75000J0D01*
G01*
X182019200Y-106402200D01*
G75*
G02*
X182094200Y-106477200I0J-75000D01*
G01*
X182094200Y-107877200D01*
G75*
G02*
X182019200Y-107952200I-75000J0D01*
G01*
X181869200Y-107952200D01*
G75*
G02*
X181794200Y-107877200I0J75000D01*
G01*
G37*
G36*
G01*
X181294200Y-107877200D02*
X181294200Y-106477200D01*
G75*
G02*
X181369200Y-106402200I75000J0D01*
G01*
X181519200Y-106402200D01*
G75*
G02*
X181594200Y-106477200I0J-75000D01*
G01*
X181594200Y-107877200D01*
G75*
G02*
X181519200Y-107952200I-75000J0D01*
G01*
X181369200Y-107952200D01*
G75*
G02*
X181294200Y-107877200I0J75000D01*
G01*
G37*
G36*
G01*
X180794200Y-107877200D02*
X180794200Y-106477200D01*
G75*
G02*
X180869200Y-106402200I75000J0D01*
G01*
X181019200Y-106402200D01*
G75*
G02*
X181094200Y-106477200I0J-75000D01*
G01*
X181094200Y-107877200D01*
G75*
G02*
X181019200Y-107952200I-75000J0D01*
G01*
X180869200Y-107952200D01*
G75*
G02*
X180794200Y-107877200I0J75000D01*
G01*
G37*
G36*
G01*
X180294200Y-107877200D02*
X180294200Y-106477200D01*
G75*
G02*
X180369200Y-106402200I75000J0D01*
G01*
X180519200Y-106402200D01*
G75*
G02*
X180594200Y-106477200I0J-75000D01*
G01*
X180594200Y-107877200D01*
G75*
G02*
X180519200Y-107952200I-75000J0D01*
G01*
X180369200Y-107952200D01*
G75*
G02*
X180294200Y-107877200I0J75000D01*
G01*
G37*
G36*
G01*
X179794200Y-107877200D02*
X179794200Y-106477200D01*
G75*
G02*
X179869200Y-106402200I75000J0D01*
G01*
X180019200Y-106402200D01*
G75*
G02*
X180094200Y-106477200I0J-75000D01*
G01*
X180094200Y-107877200D01*
G75*
G02*
X180019200Y-107952200I-75000J0D01*
G01*
X179869200Y-107952200D01*
G75*
G02*
X179794200Y-107877200I0J75000D01*
G01*
G37*
G36*
G01*
X179294200Y-107877200D02*
X179294200Y-106477200D01*
G75*
G02*
X179369200Y-106402200I75000J0D01*
G01*
X179519200Y-106402200D01*
G75*
G02*
X179594200Y-106477200I0J-75000D01*
G01*
X179594200Y-107877200D01*
G75*
G02*
X179519200Y-107952200I-75000J0D01*
G01*
X179369200Y-107952200D01*
G75*
G02*
X179294200Y-107877200I0J75000D01*
G01*
G37*
G36*
G01*
X178794200Y-107877200D02*
X178794200Y-106477200D01*
G75*
G02*
X178869200Y-106402200I75000J0D01*
G01*
X179019200Y-106402200D01*
G75*
G02*
X179094200Y-106477200I0J-75000D01*
G01*
X179094200Y-107877200D01*
G75*
G02*
X179019200Y-107952200I-75000J0D01*
G01*
X178869200Y-107952200D01*
G75*
G02*
X178794200Y-107877200I0J75000D01*
G01*
G37*
G36*
G01*
X178294200Y-107877200D02*
X178294200Y-106477200D01*
G75*
G02*
X178369200Y-106402200I75000J0D01*
G01*
X178519200Y-106402200D01*
G75*
G02*
X178594200Y-106477200I0J-75000D01*
G01*
X178594200Y-107877200D01*
G75*
G02*
X178519200Y-107952200I-75000J0D01*
G01*
X178369200Y-107952200D01*
G75*
G02*
X178294200Y-107877200I0J75000D01*
G01*
G37*
D22*
X197600000Y-132900000D03*
X206400000Y-132900000D03*
X197600000Y-127400000D03*
X206400000Y-127400000D03*
D23*
X200400000Y-127400000D03*
X201200000Y-127400000D03*
X202000000Y-127400000D03*
X202800000Y-127400000D03*
X203600000Y-127400000D03*
D24*
X210159600Y-127512000D03*
X212699600Y-124202000D03*
X188249560Y-97857120D03*
X185709560Y-101167120D03*
M02*
